<!-- Generator: Adobe Illustrator 19.1.0, SVG Export Plug-In  -->
<svg version="1.1"
	 xmlns="http://www.w3.org/2000/svg" xmlns:xlink="http://www.w3.org/1999/xlink" xmlns:a="http://ns.adobe.com/AdobeSVGViewerExtensions/3.0/"
	 x="0px" y="0px" width="477.6px" height="23.8px" viewBox="0 0 477.6 23.8" enable-background="new 0 0 477.6 23.8"
	 xml:space="preserve">
<defs>
</defs>
<g>
	<path fill="#A5A593" d="M3.6,20.5c-2.9-2.6-3.6-6-3.6-8.9c0-2,0.7-5.5,3.4-8.2c1.8-1.8,4.5-3.2,9.1-3.2c1.2,0,2.9,0.1,4.3,0.4
		C18,0.8,19,1,19.9,1.1c0.3,0,0.4,0.1,0.4,0.3c0,0.2-0.1,0.6-0.1,1.7c-0.1,1-0.1,2.6-0.1,3.1c0,0.4-0.1,0.6-0.3,0.6
		c-0.2,0-0.2-0.2-0.2-0.6c0-1.2-0.5-2.4-1.3-3.1c-1.1-0.9-3.4-1.7-6-1.7c-4,0-5.9,1.2-6.9,2.2c-2.2,2.1-2.7,4.8-2.7,7.8
		c0,5.7,4.4,11,10.8,11c2.2,0,4-0.3,5.2-1.5c0.6-0.7,1-2,1.1-2.5c0.1-0.3,0.1-0.4,0.3-0.4c0.1,0,0.2,0.2,0.2,0.4
		c0,0.2-0.4,2.8-0.7,3.8c-0.2,0.6-0.2,0.6-0.8,0.9c-1.2,0.5-3.5,0.7-5.4,0.7C9,23.8,6,22.6,3.6,20.5z"/>
	<path fill="#A5A593" d="M29.3,14.7c0,4.4,0.1,6.3,0.7,6.9c0.5,0.5,1.3,0.7,3.6,0.7c1.6,0,2.9,0,3.6-0.9c0.4-0.5,0.7-1.2,0.8-1.8
		c0-0.2,0.1-0.4,0.3-0.4c0.1,0,0.2,0.1,0.2,0.4s-0.2,2.1-0.4,3c-0.2,0.7-0.3,0.8-1.9,0.8c-2.2,0-3.7-0.1-5-0.1
		c-1.3-0.1-2.2-0.1-3.1-0.1c-0.1,0-0.6,0-1.2,0c-0.6,0-1.3,0.1-1.7,0.1c-0.3,0-0.5-0.1-0.5-0.2c0-0.1,0.1-0.2,0.2-0.2
		c0.3,0,0.6-0.1,0.9-0.1c0.6-0.1,0.8-0.8,0.9-1.6c0.1-1.3,0.1-3.6,0.1-6.5V9.4c0-4.7,0-5.5-0.1-6.5c-0.1-1-0.3-1.5-1.3-1.7
		c-0.2-0.1-0.8-0.1-1-0.1c-0.1,0-0.2-0.1-0.2-0.2c0-0.2,0.1-0.2,0.5-0.2c1.4,0,3.2,0.1,3.4,0.1s2.3-0.1,3.2-0.1
		c0.3,0,0.5,0.1,0.5,0.2c0,0.1-0.1,0.2-0.2,0.2c-0.2,0-0.6,0-1,0.1c-0.9,0.2-1.1,0.7-1.2,1.7c-0.1,1-0.1,1.8-0.1,6.5V14.7z"/>
	<path fill="#A5A593" d="M48.4,1.4c0.4-1,0.5-1.2,0.7-1.2c0.2,0,0.3,0.2,0.7,1.1c0.4,1.1,5.2,13.5,7,18.1c1.1,2.7,2,3.1,2.6,3.3
		c0.4,0.1,0.9,0.2,1.2,0.2c0.2,0,0.3,0,0.3,0.2c0,0.2-0.3,0.2-0.6,0.2c-0.5,0-2.6,0-4.7-0.1c-0.6,0-0.9,0-0.9-0.2
		c0-0.1,0.1-0.2,0.2-0.2c0.2-0.1,0.4-0.3,0.2-0.8l-2.8-7.4c-0.1-0.1-0.1-0.2-0.3-0.2h-6.4c-0.1,0-0.2,0.1-0.3,0.2L43.4,20
		c-0.3,0.8-0.4,1.5-0.4,2c0,0.6,0.6,0.9,1.1,0.9h0.3c0.2,0,0.3,0.1,0.3,0.2c0,0.2-0.2,0.2-0.5,0.2c-0.7,0-2-0.1-2.3-0.1
		s-2,0.1-3.4,0.1c-0.4,0-0.6-0.1-0.6-0.2c0-0.1,0.1-0.2,0.3-0.2c0.2,0,0.6,0,0.9-0.1c1.4-0.2,2-1.3,2.5-2.8L48.4,1.4z M51.6,13.4
		c0.1,0,0.1-0.1,0.1-0.2l-2.9-8.1c-0.1-0.4-0.3-0.4-0.4,0l-2.6,8.1c-0.1,0.2,0,0.2,0.1,0.2H51.6z"/>
	<path fill="#A5A593" d="M62.8,22.9c-0.4-0.2-0.4-0.3-0.4-1.1c0-1.5,0.1-2.7,0.1-3.2c0-0.3,0.1-0.5,0.2-0.5c0.2,0,0.2,0.1,0.2,0.3
		c0,0.3,0,0.7,0.1,1.1c0.5,2.2,2.4,3.1,4.4,3.1c2.9,0,4.3-2.1,4.3-4c0-2.1-0.9-3.3-3.4-5.4l-1.4-1.1C63.7,9.5,63,7.7,63,5.6
		c0-3.2,2.4-5.4,6.2-5.4c1.2,0,2,0.1,2.8,0.3c0.6,0.1,0.8,0.1,1.1,0.1c0.2,0,0.3,0.1,0.3,0.2S73.3,2,73.3,4.1c0,0.5-0.1,0.7-0.2,0.7
		c-0.2,0-0.2-0.2-0.2-0.4c0-0.4-0.2-1.2-0.4-1.5c-0.2-0.3-1-1.6-3.8-1.6c-2.1,0-3.7,1.3-3.7,3.5c0,1.7,0.8,2.8,3.7,5l0.8,0.7
		c3.5,2.8,4.4,4.6,4.4,7c0,1.2-0.5,3.5-2.6,5c-1.3,0.9-2.9,1.3-4.5,1.3C65.4,23.8,64,23.5,62.8,22.9z"/>
	<path fill="#A5A593" d="M79.1,22.9c-0.4-0.2-0.4-0.3-0.4-1.1c0-1.5,0.1-2.7,0.1-3.2c0-0.3,0.1-0.5,0.2-0.5c0.2,0,0.2,0.1,0.2,0.3
		c0,0.3,0,0.7,0.1,1.1c0.5,2.2,2.4,3.1,4.4,3.1c2.9,0,4.3-2.1,4.3-4c0-2.1-0.9-3.3-3.4-5.4l-1.4-1.1c-3.2-2.6-3.9-4.5-3.9-6.5
		c0-3.2,2.4-5.4,6.2-5.4c1.2,0,2,0.1,2.8,0.3c0.6,0.1,0.8,0.1,1.1,0.1c0.2,0,0.3,0.1,0.3,0.2S89.6,2,89.6,4.1c0,0.5-0.1,0.7-0.2,0.7
		c-0.2,0-0.2-0.2-0.2-0.4c0-0.4-0.2-1.2-0.4-1.5c-0.2-0.3-1-1.6-3.8-1.6c-2.1,0-3.7,1.3-3.7,3.5c0,1.7,0.8,2.8,3.7,5l0.8,0.7
		c3.5,2.8,4.4,4.6,4.4,7c0,1.2-0.5,3.5-2.6,5c-1.3,0.9-2.9,1.3-4.5,1.3C81.7,23.8,80.3,23.5,79.1,22.9z"/>
	<path fill="#A5A593" d="M99.9,14.6c0,2.9,0,5.2,0.2,6.5c0.1,0.9,0.3,1.5,1.2,1.6c0.4,0.1,1.1,0.1,1.3,0.1c0.2,0,0.2,0.1,0.2,0.2
		c0,0.2-0.2,0.2-0.5,0.2c-1.6,0-3.5-0.1-3.7-0.1c-0.2,0-2,0.1-2.9,0.1c-0.3,0-0.5-0.1-0.5-0.2c0-0.1,0.1-0.2,0.2-0.2
		c0.3,0,0.6-0.1,0.9-0.1c0.6-0.1,0.8-0.8,0.9-1.6c0.2-1.3,0.2-3.6,0.2-6.5V9.4c0-4.7,0-5.5-0.1-6.5c-0.1-1-0.4-1.5-1-1.7
		c-0.3-0.1-0.7-0.1-0.9-0.1c-0.1,0-0.2-0.1-0.2-0.2c0-0.2,0.1-0.2,0.5-0.2c1,0,2.9,0.1,3,0.1c0.1,0,2-0.1,2.9-0.1
		c0.3,0,0.5,0.1,0.5,0.2c0,0.1-0.1,0.2-0.2,0.2c-0.2,0-0.4,0-0.8,0.1c-0.8,0.2-1,0.7-1.1,1.7c-0.1,1-0.1,1.8-0.1,6.5V14.6z"/>
	<path fill="#A5A593" d="M109.6,20.5c-2.9-2.6-3.6-6-3.6-8.9c0-2,0.7-5.5,3.4-8.2c1.8-1.8,4.5-3.2,9.1-3.2c1.2,0,2.9,0.1,4.4,0.4
		c1.1,0.2,2.1,0.4,3.1,0.5c0.3,0,0.4,0.1,0.4,0.3c0,0.2-0.1,0.6-0.1,1.7c-0.1,1-0.1,2.6-0.1,3.1c0,0.4-0.1,0.6-0.3,0.6
		c-0.2,0-0.2-0.2-0.2-0.6c0-1.2-0.5-2.4-1.3-3.1c-1-0.9-3.4-1.7-6-1.7c-4,0-5.8,1.2-6.9,2.2c-2.2,2.1-2.7,4.8-2.7,7.8
		c0,5.7,4.4,11,10.8,11c2.2,0,4-0.3,5.2-1.5c0.6-0.7,1-2,1.1-2.5c0.1-0.3,0.1-0.4,0.3-0.4c0.1,0,0.2,0.2,0.2,0.4
		c0,0.2-0.4,2.8-0.7,3.8c-0.2,0.6-0.2,0.6-0.8,0.9c-1.2,0.5-3.5,0.7-5.4,0.7C115,23.8,112,22.6,109.6,20.5z"/>
	<path fill="#A5A593" d="M135.3,14.6c0,2.9,0,5.2,0.2,6.5c0.1,0.9,0.3,1.5,1.2,1.6c0.4,0.1,1.1,0.1,1.3,0.1c0.2,0,0.2,0.1,0.2,0.2
		c0,0.2-0.2,0.2-0.5,0.2c-1.6,0-3.5-0.1-3.7-0.1c-0.2,0-2,0.1-2.9,0.1c-0.3,0-0.5-0.1-0.5-0.2c0-0.1,0.1-0.2,0.2-0.2
		c0.3,0,0.6-0.1,0.9-0.1c0.6-0.1,0.8-0.8,0.9-1.6c0.2-1.3,0.2-3.6,0.2-6.5V9.4c0-4.7,0-5.5-0.1-6.5c-0.1-1-0.4-1.5-1-1.7
		c-0.3-0.1-0.7-0.1-0.9-0.1c-0.1,0-0.2-0.1-0.2-0.2c0-0.2,0.1-0.2,0.5-0.2c1,0,2.9,0.1,3,0.1c0.1,0,2-0.1,2.9-0.1
		c0.3,0,0.5,0.1,0.5,0.2c0,0.1-0.1,0.2-0.2,0.2c-0.2,0-0.4,0-0.8,0.1c-0.8,0.2-1,0.7-1.1,1.7c-0.1,1-0.1,1.8-0.1,6.5V14.6z"/>
	<path fill="#A5A593" d="M153.6,22c3.1,0,4.1-0.6,4.7-1.5c0.3-0.4,0.5-1.2,0.6-1.6c0.1-0.3,0.1-0.5,0.3-0.5c0.2,0,0.2,0.1,0.2,0.7
		c0,0.9-0.4,2.7-0.6,3.4c-0.2,0.7-0.2,0.8-0.9,0.8c-5,0-10-0.1-15.3-0.1c-0.4,0-0.5,0-0.5-0.2c0-0.2,0.1-0.3,0.4-0.8
		c4.5-6.8,9-13.5,13.2-20.3h-6.5c-1.5,0-3.4,0.1-4.3,0.6c-1.1,0.6-1.6,1.7-1.7,2.4c-0.1,0.5-0.2,0.5-0.3,0.5s-0.2-0.2-0.2-0.4
		c0-0.4,0.4-3.1,0.6-4c0.1-0.4,0.1-0.6,0.3-0.6c0.3,0,0.5,0.2,1.3,0.2c2.9,0.1,4.3,0.1,5.2,0.1h8.4c0.5,0,0.6,0.1,0.6,0.2
		c0,0.1,0,0.2-0.1,0.4c-4.4,6.9-8.9,13.8-13.4,20.7H153.6z"/>
	<path fill="#A5A593" d="M167.8,14.6c0,2.9,0,5.2,0.2,6.5c0.1,0.9,0.3,1.5,1.2,1.6c0.4,0.1,1.1,0.1,1.3,0.1c0.2,0,0.2,0.1,0.2,0.2
		c0,0.2-0.1,0.2-0.5,0.2c-1.6,0-3.5-0.1-3.7-0.1c-0.1,0-2,0.1-2.9,0.1c-0.3,0-0.5-0.1-0.5-0.2c0-0.1,0.1-0.2,0.2-0.2
		c0.3,0,0.6-0.1,0.9-0.1c0.6-0.1,0.8-0.8,0.9-1.6c0.2-1.3,0.2-3.6,0.2-6.5V9.4c0-4.7,0-5.5-0.1-6.5c-0.1-1-0.4-1.5-1-1.7
		c-0.3-0.1-0.7-0.1-0.9-0.1c-0.1,0-0.2-0.1-0.2-0.2c0-0.2,0.1-0.2,0.5-0.2c1,0,2.9,0.1,3,0.1c0.2,0,2-0.1,2.9-0.1
		c0.3,0,0.5,0.1,0.5,0.2c0,0.1-0.1,0.2-0.2,0.2c-0.2,0-0.4,0-0.8,0.1c-0.8,0.2-1,0.7-1.1,1.7c-0.1,1-0.1,1.8-0.1,6.5V14.6z"/>
	<path fill="#A5A593" d="M178.5,19.3c0.1,2.5,0.4,3.2,1.2,3.5c0.6,0.1,1.2,0.2,1.5,0.2c0.1,0,0.2,0.1,0.2,0.2c0,0.2-0.2,0.2-0.5,0.2
		c-1.7,0-2.9-0.1-3.2-0.1s-1.5,0.1-2.9,0.1c-0.3,0-0.5,0-0.5-0.2c0-0.1,0.1-0.2,0.2-0.2c0.2,0,0.8,0,1.2-0.2
		c0.8-0.2,0.9-1.1,0.9-3.8l0-17.2c0-1.2,0.1-1.5,0.3-1.5c0.2,0,0.8,0.7,1.1,1c0.4,0.5,4.9,5.3,9.5,10.3c3,3.2,6.2,6.8,7.2,7.8
		l-0.3-15.2c0-1.9-0.2-2.6-1.2-2.8c-0.5-0.1-1.2-0.2-1.5-0.2c-0.2,0-0.2-0.1-0.2-0.2c0-0.2,0.2-0.2,0.6-0.2c1.4,0,2.8,0.1,3.1,0.1
		s1.3-0.1,2.5-0.1c0.3,0,0.5,0,0.5,0.2c0,0.1-0.1,0.2-0.3,0.2c-0.2,0-0.4,0-0.7,0.1c-1,0.2-1.1,0.9-1.1,2.7l-0.1,17.6
		c0,2-0.1,2.1-0.3,2.1c-0.2,0-0.6-0.3-2.2-1.9c-0.3-0.3-4.7-4.7-7.8-8.1c-3.5-3.8-6.9-7.5-7.8-8.6L178.5,19.3z"/>
	<path fill="#A5A593" d="M219.1,15.7c0-2.4-0.1-2.8-1.4-3.1c-0.2-0.1-0.8-0.1-1-0.1c-0.1,0-0.2-0.1-0.2-0.2c0-0.2,0.2-0.2,0.5-0.2
		c1.4,0,3.2,0.1,3.4,0.1c0.1,0,2-0.1,2.9-0.1c0.3,0,0.5,0.1,0.5,0.2c0,0.1-0.1,0.2-0.2,0.2c-0.2,0-0.4,0-0.8,0.1
		c-0.8,0.2-1,0.7-1.1,1.7c-0.1,1-0.1,1.9-0.1,3.1v3.4c0,1.4,0,1.4-0.4,1.6c-1.9,1-4.6,1.3-6.4,1.3c-2.3,0-6.5-0.3-9.9-3.2
		c-1.8-1.6-3.6-4.8-3.6-8.5c0-4.8,2.3-8.2,5-9.9c2.7-1.7,5.7-1.9,8-1.9c1.9,0,4,0.4,4.6,0.5c0.6,0.2,1.7,0.3,2.4,0.3
		c0.3,0,0.4,0.1,0.4,0.3c0,0.4-0.2,1.3-0.2,4.3c0,0.5-0.1,0.6-0.3,0.6c-0.2,0-0.2-0.2-0.2-0.5c0-0.4-0.2-1.3-0.6-2
		c-0.8-1.1-3.2-2.4-7-2.4c-1.9,0-4.1,0.2-6.4,2c-1.7,1.4-3,4.1-3,7.6c0,4.2,2.1,7.3,3.2,8.3c2.4,2.3,5.1,3.2,7.9,3.2
		c1.1,0,2.6-0.2,3.4-0.6c0.4-0.2,0.6-0.5,0.6-1.1V15.7z"/>
	<path fill="#A5A593" d="M238.6,9.4c0-4.6,0-5.4-0.1-6.4c-0.1-1-0.3-1.5-1.3-1.7c-0.2-0.1-0.8-0.1-1.2-0.1c-0.3,0-0.5-0.1-0.5-0.3
		s0.2-0.3,0.7-0.3c1.6,0,3.5,0.1,4.3,0.1c1.2,0,3-0.1,4.4-0.1c3.8,0,5.1,1.3,5.6,1.7c0.7,0.6,1.5,2,1.5,3.6c0,4.3-3.1,7.3-7.4,7.3
		c-0.1,0-0.5,0-0.6,0c-0.1,0-0.4-0.1-0.4-0.3c0-0.2,0.2-0.3,0.8-0.3c1.7,0,4-1.9,4-5c0-1-0.1-3-1.8-4.5c-1.1-1-2.3-1.2-3-1.2
		c-0.5,0-0.9,0-1.2,0.1c-0.2,0.1-0.2,0.2-0.2,0.6v12c0,2.8,0,5.1,0.1,6.4c0.1,0.8,0.3,1.5,1.2,1.6c0.4,0.1,1.1,0.1,1.5,0.1
		c0.3,0,0.5,0.1,0.5,0.2c0,0.2-0.2,0.3-0.6,0.3c-2,0-3.9-0.1-4.6-0.1c-0.7,0-2.6,0.1-3.8,0.1c-0.4,0-0.6-0.1-0.6-0.3
		c0-0.1,0.1-0.2,0.5-0.2c0.5,0,0.8-0.1,1.1-0.1c0.6-0.1,0.8-0.8,0.9-1.7c0.1-1.3,0.1-3.6,0.1-6.4V9.4z"/>
	<path fill="#A5A593" d="M272.9,10.2c0.1,0,0.2-0.1,0.2-0.2V9.4c0-4.6,0-5.4-0.1-6.4c-0.1-1-0.3-1.5-1.3-1.7
		c-0.2-0.1-0.8-0.1-1.2-0.1c-0.3,0-0.5-0.1-0.5-0.3s0.2-0.3,0.6-0.3c1.6,0,3.5,0.1,4.3,0.1c0.7,0,2.6-0.1,3.8-0.1
		c0.4,0,0.6,0.1,0.6,0.3s-0.2,0.3-0.5,0.3c-0.2,0-0.5,0-0.9,0.1c-0.8,0.1-1,0.7-1.1,1.7c-0.1,1-0.1,1.8-0.1,6.4v5.3
		c0,2.8,0,5.1,0.1,6.4c0.1,0.8,0.3,1.5,1.2,1.6c0.4,0.1,1.1,0.1,1.5,0.1c0.3,0,0.5,0.1,0.5,0.2c0,0.2-0.2,0.3-0.6,0.3
		c-1.9,0-3.8-0.1-4.7-0.1c-0.7,0-2.6,0.1-3.7,0.1c-0.4,0-0.6-0.1-0.6-0.3c0-0.1,0.1-0.2,0.5-0.2c0.4,0,0.8-0.1,1.1-0.1
		c0.6-0.1,0.8-0.8,0.9-1.7c0.1-1.3,0.1-3.6,0.1-6.4V12c0-0.1-0.1-0.2-0.2-0.2h-11.5c-0.1,0-0.2,0-0.2,0.2v2.6c0,2.8,0,5.1,0.1,6.4
		c0.1,0.8,0.3,1.5,1.2,1.6c0.4,0.1,1.1,0.1,1.5,0.1c0.3,0,0.5,0.1,0.5,0.2c0,0.2-0.2,0.3-0.6,0.3c-1.9,0-3.8-0.1-4.7-0.1
		c-0.7,0-2.6,0.1-3.8,0.1c-0.4,0-0.6-0.1-0.6-0.3c0-0.1,0.1-0.2,0.5-0.2c0.4,0,0.8-0.1,1.1-0.1c0.6-0.1,0.8-0.8,0.9-1.7
		c0.1-1.3,0.1-3.6,0.1-6.4V9.4c0-4.6,0-5.4-0.1-6.4c-0.1-1-0.3-1.5-1.3-1.7c-0.2-0.1-0.8-0.1-1.2-0.1c-0.3,0-0.5-0.1-0.5-0.3
		s0.2-0.3,0.6-0.3c1.6,0,3.5,0.1,4.3,0.1c0.7,0,2.6-0.1,3.8-0.1c0.4,0,0.6,0.1,0.6,0.3s-0.2,0.3-0.5,0.3c-0.2,0-0.5,0-0.9,0.1
		c-0.8,0.1-1,0.7-1.1,1.7c-0.1,1-0.1,1.8-0.1,6.4V10c0,0.2,0.1,0.2,0.2,0.2H272.9z"/>
	<path fill="#A5A593" d="M285.9,9.4c0-4.6,0-5.4-0.1-6.4c-0.1-1-0.4-1.5-1-1.7c-0.3-0.1-0.7-0.1-1.1-0.1c-0.3,0-0.5-0.1-0.5-0.3
		c0-0.2,0.2-0.2,0.7-0.2c1.1,0,3,0.1,3.9,0.1c0.8,0,2.5-0.1,3.7-0.1c0.4,0,0.6,0.1,0.6,0.2c0,0.2-0.2,0.3-0.5,0.3s-0.5,0-0.9,0.1
		c-0.8,0.1-1,0.7-1.1,1.7c-0.1,1-0.1,1.8-0.1,6.4v5.3c0,2.9,0,5.3,0.1,6.6c0.1,0.8,0.3,1.4,1.2,1.5c0.4,0.1,1.1,0.1,1.5,0.1
		c0.3,0,0.5,0.1,0.5,0.2c0,0.2-0.2,0.3-0.6,0.3c-2,0-3.9-0.1-4.7-0.1c-0.7,0-2.6,0.1-3.8,0.1c-0.4,0-0.6-0.1-0.6-0.3
		c0-0.1,0.1-0.2,0.5-0.2c0.5,0,0.8-0.1,1.1-0.1c0.6-0.1,0.8-0.6,0.9-1.5c0.1-1.3,0.1-3.6,0.1-6.5V9.4z"/>
	<path fill="#A5A593" d="M302.5,14.6c0,3.8,0,5.9,0.6,6.5c0.5,0.4,1.3,0.7,3.6,0.7c1.6,0,2.8,0,3.5-0.8c0.4-0.4,0.7-1.2,0.8-1.8
		c0-0.3,0.1-0.4,0.3-0.4c0.2,0,0.2,0.1,0.2,0.5c0,0.3-0.2,2.6-0.4,3.4c-0.2,0.7-0.3,0.8-1.9,0.8c-2.2,0-3.7-0.1-5.1-0.1
		c-1.4-0.1-2.4-0.1-3.7-0.1c-0.3,0-1,0-1.7,0c-0.7,0-1.5,0.1-2.1,0.1c-0.4,0-0.6-0.1-0.6-0.3c0-0.1,0.1-0.2,0.5-0.2
		c0.4,0,0.8-0.1,1.1-0.1c0.6-0.1,0.8-0.8,0.9-1.7c0.2-1.3,0.2-3.6,0.2-6.4V9.4c0-4.6,0-5.4-0.1-6.4c-0.1-1-0.3-1.5-1.3-1.7
		c-0.2-0.1-0.6-0.1-1-0.1c-0.3,0-0.5-0.1-0.5-0.3s0.2-0.3,0.7-0.3c1.4,0,3.3,0.1,4.1,0.1c0.7,0,2.9-0.1,4.1-0.1
		c0.4,0,0.6,0.1,0.6,0.3s-0.2,0.3-0.5,0.3c-0.3,0-0.8,0-1.2,0.1c-0.8,0.1-1.1,0.7-1.1,1.7c-0.1,1-0.1,1.8-0.1,6.4V14.6z"/>
	<path fill="#A5A593" d="M317.9,15.5c-0.1,0-0.2,0.1-0.3,0.2L316,20c-0.3,0.8-0.5,1.5-0.5,1.8c0,0.5,0.3,0.9,1.2,0.9h0.4
		c0.4,0,0.5,0.1,0.5,0.2c0,0.2-0.2,0.3-0.5,0.3c-1,0-2.2-0.1-3.2-0.1c-0.3,0-2,0.1-3.5,0.1c-0.4,0-0.6-0.1-0.6-0.3
		c0-0.2,0.1-0.2,0.4-0.2c0.3,0,0.7,0,0.9-0.1c1.4-0.2,1.9-1.2,2.5-2.7l7.5-18.8c0.4-0.9,0.5-1.2,0.8-1.2c0.3,0,0.5,0.3,0.8,1
		c0.7,1.6,5.5,13.9,7.4,18.4c1.1,2.7,2,3.1,2.6,3.3c0.4,0.1,0.9,0.1,1.3,0.1c0.2,0,0.4,0,0.4,0.2c0,0.2-0.3,0.3-1.4,0.3
		c-1.1,0-3.3,0-5.7-0.1c-0.5,0-0.9,0-0.9-0.2c0-0.2,0.1-0.2,0.4-0.3c0.2-0.1,0.4-0.3,0.3-0.7l-2.4-6.4c-0.1-0.1-0.1-0.2-0.3-0.2
		H317.9z M324,14c0.1,0,0.2-0.1,0.1-0.2l-2.7-7.4c0-0.1-0.1-0.3-0.2-0.3s-0.1,0.2-0.2,0.3l-2.8,7.4c0,0.1,0,0.2,0.1,0.2H324z"/>
	<path fill="#A5A593" d="M337,9.4c0-4.6,0-5.4-0.1-6.4c-0.1-1-0.3-1.5-1.3-1.7c-0.2-0.1-0.8-0.1-1.2-0.1c-0.3,0-0.5-0.1-0.5-0.3
		s0.2-0.3,0.7-0.3c1.6,0,3.5,0.1,4.3,0.1c0.9,0,2.8-0.1,4.6-0.1c3.7,0,8.8,0,12,3.4c1.5,1.6,2.9,4,2.9,7.6c0,3.8-1.6,6.7-3.3,8.4
		c-1.4,1.4-4.5,3.5-10,3.5c-1.1,0-2.3-0.1-3.4-0.2c-1.1-0.1-2.2-0.2-2.9-0.2c-0.3,0-1,0-1.7,0c-0.7,0-1.5,0.1-2.1,0.1
		c-0.4,0-0.6-0.1-0.6-0.3c0-0.1,0.1-0.2,0.5-0.2c0.5,0,0.8-0.1,1.1-0.1c0.6-0.1,0.8-0.8,0.9-1.7c0.1-1.3,0.1-3.6,0.1-6.4V9.4z
		 M340.7,12.7c0,3.2,0,5.5,0.1,6.1c0,0.8,0.1,2,0.3,2.3c0.4,0.6,1.6,1.2,3.9,1.2c3.1,0,5.1-0.6,6.9-2.2c1.9-1.6,2.5-4.4,2.5-7.5
		c0-3.8-1.6-6.3-2.9-7.5c-2.8-2.6-6.2-3-8.5-3c-0.6,0-1.7,0.1-1.9,0.2c-0.3,0.1-0.4,0.3-0.4,0.6c0,1,0,3.6,0,6V12.7z"/>
	<path fill="#A5A593" d="M364,9.4c0-4.6,0-5.4-0.1-6.4c-0.1-1-0.3-1.5-1.3-1.7c-0.2-0.1-0.8-0.1-1.2-0.1c-0.3,0-0.5-0.1-0.5-0.3
		s0.2-0.3,0.7-0.3c0.8,0,1.7,0,2.4,0c0.8,0,1.5,0.1,1.9,0.1c1,0,6.9,0,7.5,0c0.6-0.1,1.1-0.1,1.3-0.2c0.2,0,0.3-0.1,0.5-0.1
		c0.1,0,0.2,0.1,0.2,0.3c0,0.2-0.1,0.6-0.2,2c0,0.3-0.1,1.6-0.1,2c0,0.2-0.1,0.3-0.3,0.3s-0.3-0.1-0.3-0.4c0-0.2,0-0.7-0.2-1.1
		c-0.2-0.5-0.5-0.9-2-1.1c-0.5-0.1-3.7-0.1-4.3-0.1c-0.1,0-0.2,0.1-0.2,0.3v7.6c0,0.2,0,0.3,0.2,0.3c0.7,0,4.1,0,4.8-0.1
		c0.7-0.1,1.2-0.2,1.4-0.5c0.2-0.2,0.3-0.4,0.5-0.4c0.1,0,0.2,0.1,0.2,0.2c0,0.2-0.1,0.7-0.2,2.2c0,0.6-0.1,1.8-0.1,2
		c0,0.2,0,0.6-0.3,0.6c-0.2,0-0.3-0.1-0.3-0.3c0-0.3,0-0.7-0.1-1.1c-0.1-0.6-0.6-1.1-1.7-1.2c-0.6-0.1-3.5-0.1-4.3-0.1
		c-0.2,0-0.2,0.1-0.2,0.3v2.4c0,1,0,3.8,0,4.6c0.1,2.1,0.5,2.5,3.6,2.5c0.8,0,2,0,2.8-0.4c0.8-0.4,1.1-1,1.4-2.2
		c0.1-0.3,0.1-0.5,0.3-0.5c0.2,0,0.2,0.2,0.2,0.5c0,0.7-0.2,2.7-0.4,3.3c-0.2,0.8-0.5,0.8-1.6,0.8c-2.2,0-3.9-0.1-5.2-0.1
		c-1.3-0.1-2.2-0.1-3.1-0.1c-0.3,0-1,0-1.7,0c-0.7,0-1.5,0.1-2.1,0.1c-0.4,0-0.6-0.1-0.6-0.3c0-0.1,0.1-0.2,0.5-0.2
		c0.4,0,0.8-0.1,1.1-0.1c0.6-0.1,0.8-0.8,0.9-1.7c0.2-1.3,0.2-3.6,0.2-6.4V9.4z"/>
	<path fill="#A5A593" d="M385.9,14.6c0,3.8,0,5.9,0.6,6.5c0.5,0.4,1.3,0.7,3.6,0.7c1.6,0,2.8,0,3.5-0.8c0.4-0.4,0.7-1.2,0.8-1.8
		c0-0.3,0.1-0.4,0.3-0.4c0.2,0,0.2,0.1,0.2,0.5c0,0.3-0.2,2.6-0.5,3.4c-0.2,0.7-0.3,0.8-1.9,0.8c-2.2,0-3.7-0.1-5.1-0.1
		c-1.3-0.1-2.4-0.1-3.7-0.1c-0.3,0-1,0-1.7,0c-0.7,0-1.5,0.1-2.1,0.1c-0.4,0-0.6-0.1-0.6-0.3c0-0.1,0.1-0.2,0.5-0.2
		c0.5,0,0.8-0.1,1.1-0.1c0.6-0.1,0.8-0.8,0.9-1.7c0.1-1.3,0.1-3.6,0.1-6.4V9.4c0-4.6,0-5.4-0.1-6.4c-0.1-1-0.3-1.5-1.3-1.7
		c-0.2-0.1-0.6-0.1-1-0.1c-0.3,0-0.5-0.1-0.5-0.3s0.2-0.3,0.7-0.3c1.4,0,3.3,0.1,4.1,0.1c0.7,0,2.9-0.1,4.1-0.1
		c0.4,0,0.6,0.1,0.6,0.3s-0.2,0.3-0.5,0.3c-0.3,0-0.8,0-1.2,0.1c-0.8,0.1-1,0.7-1.1,1.7c-0.1,1-0.1,1.8-0.1,6.4V14.6z"/>
	<path fill="#A5A593" d="M399.6,9.4c0-4.6,0-5.4-0.1-6.4c-0.1-1-0.3-1.5-1.3-1.7c-0.2-0.1-0.8-0.1-1.2-0.1c-0.3,0-0.5-0.1-0.5-0.3
		s0.2-0.3,0.7-0.3c1.6,0,3.5,0.1,4.3,0.1c1.2,0,3-0.1,4.4-0.1c3.8,0,5.1,1.3,5.6,1.7c0.7,0.6,1.5,2,1.5,3.6c0,4.3-3.1,7.3-7.4,7.3
		c-0.1,0-0.5,0-0.6,0s-0.4-0.1-0.4-0.3c0-0.2,0.2-0.3,0.8-0.3c1.7,0,4-1.9,4-5c0-1-0.1-3-1.8-4.5c-1.1-1-2.3-1.2-3-1.2
		c-0.5,0-0.9,0-1.2,0.1c-0.1,0.1-0.2,0.2-0.2,0.6v12c0,2.8,0,5.1,0.2,6.4c0.1,0.8,0.3,1.5,1.2,1.6c0.4,0.1,1.1,0.1,1.5,0.1
		c0.3,0,0.5,0.1,0.5,0.2c0,0.2-0.2,0.3-0.6,0.3c-2,0-3.9-0.1-4.6-0.1c-0.7,0-2.6,0.1-3.8,0.1c-0.4,0-0.6-0.1-0.6-0.3
		c0-0.1,0.1-0.2,0.5-0.2c0.4,0,0.8-0.1,1.1-0.1c0.6-0.1,0.8-0.8,0.9-1.7c0.2-1.3,0.2-3.6,0.2-6.4V9.4z"/>
	<path fill="#A5A593" d="M433.9,10.2c0.1,0,0.2-0.1,0.2-0.2V9.4c0-4.6,0-5.4-0.1-6.4c-0.1-1-0.3-1.5-1.3-1.7
		c-0.2-0.1-0.8-0.1-1.2-0.1c-0.3,0-0.5-0.1-0.5-0.3s0.2-0.3,0.6-0.3c1.6,0,3.5,0.1,4.3,0.1c0.7,0,2.6-0.1,3.8-0.1
		c0.4,0,0.6,0.1,0.6,0.3s-0.2,0.3-0.5,0.3c-0.2,0-0.5,0-0.9,0.1c-0.8,0.1-1,0.7-1.1,1.7c-0.1,1-0.1,1.8-0.1,6.4v5.3
		c0,2.8,0,5.1,0.1,6.4c0.1,0.8,0.3,1.5,1.2,1.6c0.4,0.1,1.1,0.1,1.5,0.1c0.3,0,0.5,0.1,0.5,0.2c0,0.2-0.2,0.3-0.6,0.3
		c-2,0-3.8-0.1-4.7-0.1c-0.7,0-2.6,0.1-3.8,0.1c-0.4,0-0.6-0.1-0.6-0.3c0-0.1,0.1-0.2,0.5-0.2c0.5,0,0.8-0.1,1.1-0.1
		c0.6-0.1,0.8-0.8,0.9-1.7c0.2-1.3,0.2-3.6,0.2-6.4V12c0-0.1-0.1-0.2-0.2-0.2h-11.5c-0.1,0-0.2,0-0.2,0.2v2.6c0,2.8,0,5.1,0.1,6.4
		c0.1,0.8,0.3,1.5,1.2,1.6c0.4,0.1,1.1,0.1,1.5,0.1c0.3,0,0.5,0.1,0.5,0.2c0,0.2-0.2,0.3-0.6,0.3c-2,0-3.8-0.1-4.7-0.1
		c-0.7,0-2.6,0.1-3.8,0.1c-0.4,0-0.6-0.1-0.6-0.3c0-0.1,0.1-0.2,0.5-0.2c0.5,0,0.8-0.1,1.1-0.1c0.6-0.1,0.8-0.8,0.9-1.7
		c0.1-1.3,0.1-3.6,0.1-6.4V9.4c0-4.6,0-5.4-0.1-6.4c-0.1-1-0.3-1.5-1.3-1.7c-0.2-0.1-0.8-0.1-1.2-0.1c-0.3,0-0.5-0.1-0.5-0.3
		s0.2-0.3,0.6-0.3c1.6,0,3.5,0.1,4.3,0.1c0.7,0,2.6-0.1,3.8-0.1c0.4,0,0.6,0.1,0.6,0.3s-0.2,0.3-0.5,0.3c-0.2,0-0.5,0-0.9,0.1
		c-0.8,0.1-1.1,0.7-1.1,1.7c-0.1,1-0.1,1.8-0.1,6.4V10c0,0.2,0.1,0.2,0.2,0.2H433.9z"/>
	<path fill="#A5A593" d="M446.9,9.4c0-4.6,0-5.4-0.1-6.4c-0.1-1-0.4-1.5-1-1.7c-0.3-0.1-0.7-0.1-1.1-0.1c-0.3,0-0.5-0.1-0.5-0.3
		c0-0.2,0.2-0.2,0.7-0.2c1.1,0,3,0.1,3.9,0.1c0.8,0,2.5-0.1,3.7-0.1c0.4,0,0.6,0.1,0.6,0.2c0,0.2-0.2,0.3-0.5,0.3
		c-0.3,0-0.5,0-0.9,0.1c-0.8,0.1-1,0.7-1.1,1.7c-0.1,1-0.1,1.8-0.1,6.4v5.3c0,2.9,0,5.3,0.1,6.6c0.1,0.8,0.3,1.4,1.2,1.5
		c0.4,0.1,1.1,0.1,1.5,0.1c0.3,0,0.5,0.1,0.5,0.2c0,0.2-0.2,0.3-0.6,0.3c-2,0-3.9-0.1-4.7-0.1c-0.7,0-2.6,0.1-3.8,0.1
		c-0.4,0-0.6-0.1-0.6-0.3c0-0.1,0.1-0.2,0.5-0.2c0.4,0,0.8-0.1,1.1-0.1c0.6-0.1,0.8-0.6,0.9-1.5c0.2-1.3,0.2-3.6,0.2-6.5V9.4z"/>
	<path fill="#A5A593" d="M460.9,15.5c-0.2,0-0.2,0.1-0.3,0.2L459,20c-0.3,0.8-0.4,1.5-0.4,1.8c0,0.5,0.3,0.9,1.2,0.9h0.4
		c0.4,0,0.5,0.1,0.5,0.2c0,0.2-0.2,0.3-0.5,0.3c-1,0-2.2-0.1-3.2-0.1c-0.3,0-2,0.1-3.5,0.1c-0.4,0-0.6-0.1-0.6-0.3
		c0-0.2,0.1-0.2,0.4-0.2c0.3,0,0.7,0,0.9-0.1c1.4-0.2,2-1.2,2.5-2.7l7.5-18.8c0.4-0.9,0.5-1.2,0.8-1.2c0.3,0,0.4,0.3,0.8,1
		c0.7,1.6,5.5,13.9,7.4,18.4c1.1,2.7,2,3.1,2.6,3.3c0.5,0.1,0.9,0.1,1.3,0.1c0.2,0,0.4,0,0.4,0.2c0,0.2-0.3,0.3-1.4,0.3
		c-1.1,0-3.3,0-5.7-0.1c-0.5,0-0.9,0-0.9-0.2c0-0.2,0.1-0.2,0.4-0.3c0.2-0.1,0.4-0.3,0.3-0.7l-2.4-6.4c-0.1-0.1-0.1-0.2-0.3-0.2
		H460.9z M467,14c0.1,0,0.2-0.1,0.1-0.2l-2.7-7.4c0-0.1-0.1-0.3-0.1-0.3s-0.2,0.2-0.2,0.3l-2.8,7.4c0,0.1,0,0.2,0.1,0.2H467z"/>
</g>
</svg>
