<!-- Generator: Adobe Illustrator 19.1.0, SVG Export Plug-In  -->
<svg version="1.1"
	 xmlns="http://www.w3.org/2000/svg" xmlns:xlink="http://www.w3.org/1999/xlink" xmlns:a="http://ns.adobe.com/AdobeSVGViewerExtensions/3.0/"
	 x="0px" y="0px" width="258.4px" height="288.6px" viewBox="0 0 258.4 288.6" enable-background="new 0 0 258.4 288.6"
	 xml:space="preserve">
<defs>
</defs>
<g>
	<defs>
		<circle id="SVGID_1_" cx="129.2" cy="144.3" r="128"/>
	</defs>
	<clipPath id="SVGID_2_">
		<use xlink:href="#SVGID_1_"  overflow="visible"/>
	</clipPath>
	<circle clip-path="url(#SVGID_2_)" fill="#C5C4B8" cx="129.2" cy="144.3" r="128"/>
	<g id="nhASOz_1_" clip-path="url(#SVGID_2_)">
		<g>
			<path fill="#7A7765" d="M195.6,116.7c2.2,0.3,4.2,1,6.3,0.7c4.5-0.7,8.8,0.1,13.2,0.7c0.6,0.1,1.2,0.1,1.7-0.1
				c1.4-0.3,2.8-0.9,4.2-0.3c0.1,0,0.2,0.1,0.3,0c4-1.6,8,0.7,12,0.2c0.6-0.1,1.1,0.2,1.6,0.5c1.8,1.3,1.9,2.3,0.2,3.8
				c-1.6,1.4-1.6,1.4-0.1,2.8c1,1,1.1,3.3-0.1,4.5c-0.6,0.6-0.7,1-0.4,1.9c0.7,1.7,0.2,3.4-0.9,4.8c-1,1.3-2.2,0.6-3.3-0.3
				c-0.2,1.5-0.5,2.9-1.7,3.9c-1.3,1.1-2.4,1-3.1-0.5c-0.5-1.1-1.2-1.1-2.3-1.2c-3.9-0.2-6.2,2.2-8.2,4.8c-2.8,3.7-5.2,7.7-5.9,12.5
				c-0.7,4.6-0.3,9.2,0,13.8c0.1,2.1,0.5,4.2,0.5,6.4c0,1.5-0.1,3.1,0,4.6c0.2,4.4,0.1,8.6-2.4,12.5c-0.1,0.2-0.1,0.4-0.2,0.6
				c-0.2,0.5-0.6,1.2-0.3,1.7c0.4,0.5,1.1,0.2,1.7,0c1.4-0.5,2.5-0.2,3.5,0.8c0.6,0.6,1.2,1.1,1.8,1.6c1.2,1,1.7,2.2,1.3,3.7
				c-0.4,1.2-2.4,2.5-3.8,2.5c-1,0-2-0.3-3-0.6c-1.9-0.7-2.1-0.4-3.1,1.2c-2.2,3.3-3.2,6.9-3.6,10.8c-0.4,4.1-1.2,8.1-1.2,12.3
				c0,3,1.2,4.7,4.1,5.7c2,0.7,3.3,1.9,3.8,4c0.4,1.5-0.9,3.2-2.4,3.3c-2.8,0.2-3.7,1-4.2,3.8c-0.5,3.1-0.6,6.2-0.7,9.3
				c-0.2,10.8-0.3,21.7-0.5,32.5c0,2.3-0.3,2.6-2.6,2.6c-4.9,0-9.7,0-14.6,0c-38.7,0-77.5,0-116.2,0c-2.8,0-3.3-0.5-3.3-3.3
				c-0.1-13.9-0.2-27.8-0.3-41.7c0-1,0-1.9-0.5-2.8c-0.6-1.1-1.3-1.8-2.7-1.4c-1.1,0.3-2.5,0.5-3.1-0.8c-0.6-1.3-0.4-2.6,0.4-3.8
				c0.3-0.4,0.7-0.8,1.1-1.1c2.9-2.1,4.1-5,4-8.4c-0.1-5-0.3-9.9-1.2-14.8c-0.6-2.9-2.3-5.2-4.1-7.5c-0.6-0.7-1.2-0.4-1.7-0.2
				c-1.5,0.7-2.6,0.2-3.4-1.1c-0.4-0.7-0.9-1.3-1.3-2c-0.6-1.2-0.5-2.2,0.5-3.2c1.6-1.8,3.5-2.9,6-2.4c1.2,0.2,1.6-0.4,1-1.6
				c-1.8-4.2-3.7-8.3-4.4-12.8c-0.7-5-1-10.1-2-15.1c-0.6-3.5-1.2-6.9-2-10.4c-1.4-5.8-4.3-10.8-9.2-14.4c-1.2-0.9-2.4-1.5-4-1.5
				c-1.6,0-2.8,0.4-3.5,2c-0.6,1.3-1.6,2.1-3,1.9c-1.5-0.3-2.5-1.3-2.8-2.7c-0.2-0.8-0.3-1.6-1.5-1.5c-0.8,0-1.1-0.9-1.5-1.5
				c-0.7-1.2-1.2-2.5-2.5-3.2c-0.5-0.3-0.7-1-0.8-1.7c-0.6-4-0.2-7.9,0.5-11.8c0.4-2.4,4.4-4.2,6.4-3c0.7,0.4,1.2,0.6,1.8-0.1
				c0.2-0.2,0.6-0.5,0.8-0.4c2.3,0.8,4.8-0.4,7.1,0.3c1.7,0.5,3.5,0.5,5.3,0.4c4.6-0.4,9.2,0.4,13.7,0.3c2.5,0,5-0.6,7.5-0.8
				c0.8,0,0.9-0.5,0.5-1c-1.6-2.1-2.9-4.4-6.1-4.1c-0.9,0.1-1.9-0.1-2.8-0.3c-2.3-0.7-4.2-1.8-5.1-4.3c-0.7-2-1.7-4-2.5-6.1
				c-0.4-1.1-0.4-2.2,0.3-3.2c1.2-1.8,0.9-3.4-0.5-4.9c-0.5-0.5-0.8-1.1-1.2-1.7c-0.4-0.7-0.6-1.4,0-2.1c0.8-1,0.5-2,0.4-3.1
				c0-0.8-0.7-0.9-1.3-0.9c-1.2-0.1-2.4-0.4-3.6-0.8c-0.8-0.3-1.9-0.5-2.4-1.1c-1.8-2.2-3.5-1.1-5.1-0.1c-2.8,1.7-5.6,2.2-8.7,1.2
				c-1.4-0.4-2.4-1.2-3-2.4c-0.4-0.9-0.7-1.3-1.7-1.1c-0.4,0.1-0.7,0-1-0.3c-1.7-2-3.7-3.6-5.1-5.9c-1.8-3.2-2.4-6.7-2.8-10.2
				c-0.9-7.6,1.1-14.5,4.6-21.2c0.9-1.8,1.5-3.4,1-5.5c-0.5-1.9,0.2-3.6,2.2-4.7c2.4-1.3,4.6-2.8,5.4-5.8c1.1-3.8-0.1-7.6-3.6-9.5
				c-3-1.7-6.2-2.9-9.6-3.8c-4.6-1.2-9.1-3.1-12-7.3C-0.3,4.5,0,2.8,0.1,1.1c0-0.9,0.9-0.5,1.4-0.5c6-0.1,12-0.1,18-0.1
				C52.2,0.4,85,0.3,117.8,0.2c44.9-0.1,89.8-0.2,134.7-0.2c1.4,0,2.9,0,4.3,0.1c1.1,0,1.7,0.6,1.6,1.7c-0.2,2.1-0.7,4.1-2.4,5.5
				c-1.1,0.9-2,2-3.1,2.8c-1.9,1.3-3.8,2.5-5.5,4.1c-0.9,0.9-2.5,0.9-3.8,1.1c-2.7,0.3-5.2,1.3-7.6,2.3c-3.4,1.4-4.8,5.7-3.4,9.6
				c1.3,3.7,3.6,6.7,6.3,9.5c0.2,0.2,0.5,0.3,0.6,0.7c0.4,3.5,2.7,6.1,4.1,9.1c1.4,3,2.2,6.2,3.6,9.2c0.3,0.7,0,1.4-0.1,2
				c-0.6,6.3-1.7,12.5-4.7,18.1c-0.5,1-1.1,1.8-2.2,2.2c-1,0.4-2,0.6-2.4-0.8c-0.3-0.8-0.9-0.9-1.7-0.8c-1,0.2-1,0.9-0.8,1.6
				c0.2,1.3-0.2,2.2-1.4,2.9c-0.9,0.5-1.5,1.3-2.3,1.9c-2.8,2.1-5.9,1.5-8.9,0.9c-0.9-0.2-1.8-0.3-2.6-0.7c-1-0.4-1.9-0.3-2.6,0.6
				c-0.3,0.4-0.8,0.4-1.3,0.5c-2.2,0.4-3.5,2.3-2.9,4.4c0.3,1-0.2,1.7-0.8,2.2c-1.4,1.3-1.6,2.5-1,4.4c1.8,5.1,0,10.6-3.9,13.3
				c-1.9,1.4-4.1,1.9-6.4,1.5c-0.8-0.1-1.3,0.1-1.8,0.6C197.6,112.4,196.5,114.3,195.6,116.7z M73.5,47.1l-0.1,0.1
				c-0.2-0.1-0.4-0.2-0.5-0.4c-1.3-1.2-2-2.9-3.5-3.8c-3.6-2.3-7.4-4.3-11.6-5.5c-1.1-0.3-2.1-0.5-3.2-0.2c-1.2,0.3-2.3,0.3-3.5,0.2
				c-1.7,0-3.4,0.2-5.1,0.5c-0.4,0.1-1.2,0.1-1.2,0c-0.6-1.9-2.1-0.9-3-0.7c-2,0.4-4.8-0.7-5.8,2.3c-0.1,0.4-1.1,0.6-0.7,1.2
				c0.4,0.6,1.2,0.5,1.8,0.2c0.9-0.5,1.8-1,2.6-1.5c0.3-0.2,0.7-0.3,1,0.1c0.2,0.4,0.1,0.7-0.2,1c-0.5,0.3-1,0.6-1.5,0.9
				c-1,0.5-1.4,1.2-1,2.2c0.4,1,1.4,0.6,2.1,0.4c1.4-0.4,2.8-1,4.2-1.5c0.6-0.2,1.4-0.4,1.6,0.4c0.2,0.8-0.6,0.9-1.1,1.1
				c-1,0.4-2.2,0.6-3,1.5c-0.3,0.3-0.5,0.6-0.3,1c0.1,0.3,0.5,0.4,0.8,0.4c0.5,0.1,2.7,1.8,2.8,2.3c1.1-0.7,2.3-1.7,2.3-2.9
				c-0.1-1.1,0.5-1.2,1-1.5c0.7-0.5,1.8-0.5,2.4-1.3c-0.9-0.7-2-0.1-3-0.6C54.5,41.5,60.7,43,66,47c4.4,3.3,7.6,8,9.6,13.2
				c1.9,4.8,4,9.5,4.4,14.7c0.1,0.7,0.4,1.2,1.1,1.3c0.8,0,0.9-0.6,1.1-1.2c0.2-0.6,0.1-1.1,0-1.7c-0.1-0.9-0.6-1.9-0.2-2.9
				c0.5,0.4,0.3,0.8,0.4,1.1c0.2,0.8,0.1,2.1,1.3,2c1.2-0.1,0.9-1.3,0.9-2.2c0-0.3-0.1-0.6-0.1-1C84.3,69,84.2,67.7,84,66
				c0.9,1.7,0.8,3.4,1.9,4.7c-0.9-4.8-2.4-9.4-4.8-13.7c-0.4-0.8-0.7-1.6-1.1-2.4c-0.6-1.5-1.6-2.7-2.6-4c-1-1.3-2.2-2.5-3.4-3.8
				C73.6,46.4,73.3,46.2,73.5,47.1z M137.9,23.1c-0.1,0.9-1,1.7-0.9,2.8c1.2-1,2.3-1.9,3.4-2.8c1.3-1.1,2.7-2.1,4-3.2
				c1.4-1.3,1.5-2.5,0.8-3.9C143.5,19.1,140,20.5,137.9,23.1c0.8-1.9,2.7-3,4.1-4.5c0.8-0.8,2.6-1.8,2-2.5c-1-1.2-2.4,0.2-3.5,0.9
				c-3.9,2.4-4.8,6.7-6.7,10.5c0.3,0,0.4-0.2,0.5-0.3C136,26.2,136.4,24.2,137.9,23.1z M44.8,53.3c0-0.5,1.1-0.9,0.4-1.5
				c-0.5-0.4-1,0.1-1.4,0.3c-1.1,0.4-1.6,1.6-2.6,2.3c-1-1.4,0.1-1.8,1-2.3c0.7-0.4,1.7-0.6,1.3-1.8c-0.6-1.8-2-2.1-3.4-0.8
				c-3,2.8-3.2,6.4-3,10.1c0.1,2.5,1.1,4.6,2.7,6.5c0.3,0.4,0.8,1,1.3,0.6c0.6-0.4,0-1-0.2-1.4c-1.8-2.8-1-5.9-0.9-8.8
				c0-0.1,0.1-0.4,0.5-0.3c-0.3,1.9-0.6,3.8-0.2,5.7c0.5,1.9,1.6,3.4,3.1,4.8c0.4-0.9,0-1.5-0.2-1.9c-1.1-2-1.4-4.2-1.1-6.4
				C42.3,56.3,42.8,54.3,44.8,53.3c-0.2,0.4-0.6,0.8-0.8,1.2c-1.4,2.5-2.5,5.1-0.9,8c0.1,0.1,0.2,0.2,0.3,0.2
				c0.5-0.3,0.1-0.9,0.6-1.2c0.3,1.5,1.7,2.5,1.4,4.2c0,0.3,0.2,0.7,0.6,0.4c0.4-0.4,0.7-0.2,1,0c2.6,1.7,5.1,0.4,7.6,0
				c-1.4-0.1-2.9-0.1-4.3-0.1c-0.5,0-1,0-1.5-0.3c-2.2-1.3-3.8-4.7-3.3-7.2c0.1-0.7,0.4-1.3,0.8-1.9c3-4,9.4-4.1,12.5-0.1
				c1.7,2.1,2.6,4.5,2.6,7.2c0,0.9-0.2,2,0.6,2.9c1-1,0.9-2,0.9-3.1c-0.2-6.1-3.8-9.6-9.4-11.7c1.1-0.5,1.8-0.1,2.5,0.1
				c0.7,0.1,1.2,0.7,2.3,0.6c-3.4-2.1-6.5-3-10-1.2C47.3,52,46.1,52.7,44.8,53.3z M90.5,197.2c0-0.7,0-1.5-0.2-2.2
				c-0.2-0.7-0.7-0.9-1.1-0.2c-0.9,1.3-1.6,2.7-1.7,4.4c0,0.6,0.3,1.1,0.8,1.2c0.5,0.1,0.6-0.4,0.9-0.8
				C89.7,198.7,89.7,197.7,90.5,197.2c-0.1,1.9,3.7,5.8,6,6.2c2.7,0.5,4.6-0.9,6.6-2.2c1-0.6,2-0.8,3.2-0.6c1.8,0.3,2.6,1.7,3.9,2.8
				c-0.8-6-5.5-8-9.4-7.6c-2.1,0.2-4.1,0.3-6.1-0.1C92.9,195.3,91.6,195.8,90.5,197.2z M32.2,50.7c-1.1,3.6-1.4,7.4-0.6,10.9
				c2,8.5,7.7,15.5,18.3,15.3c0.7,0,1.9,0.4,2-0.7c0-1.2-1.2-0.9-2-0.9c-5.1-0.2-9.6-1.6-13.1-5.7c-3-3.5-4.8-10.5-3.5-14.1
				C33,70.8,43.5,75.9,50.9,74.4c-0.8-0.9-1.8-0.9-2.8-1c-4.2-0.5-8-2.1-10.3-5.8c-3.7-6.1-4.1-12.4-0.4-18.8c0.5-0.9,1.3-1.7,1.3-3
				C37.5,46.3,37,47.5,36,48c-0.2-0.6,0.2-1,0.4-1.4c0.2-0.4,0.5-0.9,0-1.3c-0.4-0.3-1,0-1.3,0.4c-0.5,0.5-1,1.1-1.5,1.7
				c0-0.3,0-0.7,0-1.4c-1.6,1.9-2.1,3.9-2.3,6C31.6,51.6,31.9,51.1,32.2,50.7z M200.1,52.3c-0.5,0.6-0.9,1.3-1.5,1.9
				c-2.4,2.7-3.4,5.8-2.8,9.4c0.2,1,0,2,0.9,2.8c0.7-1-0.2-2.1,0.3-3.1c0.2,0.1,0.3,0.1,0.4,0.2c0.6,0.6,0.3,2.2,1.3,1.9
				c0.9-0.2,0.7-1.6,0.7-2.6c0.1-2.7,1-4.8,3.8-5.5c0.5-0.1,0.9-0.4,1.3-0.5c3.1-1.2,5-0.6,7.1,2c0.2,0.3,0.3,0.2,0.5,0.1
				c1.6-1.1,1.3,0.4,1.2,1.1c-0.3,4-3.7,5.8-7.2,3.9c-0.7-0.4-1.5-0.9-2.4-0.8c-1.1,0.1-1-0.6-0.8-1.2c0.4-0.9,0.3-1.7-0.2-2.6
				c-1.8,1.9-1.7,5.5,0.1,6.2c0.4-0.5-0.1-1.1,0.4-1.7c3.9,2.8,7.8,3.1,11.2-1.2c0.2,0.8-0.2,1.1-0.5,1.4c-1.1,1.3-2.4,2-4.1,2.2
				c-0.4,0-1,0.1-0.8,0.7c0.1,0.5,0.6,0.3,1,0.2c3.2-0.4,6.3-3.5,5.9-6.7c-0.7-5.8-2.5-8.7-8.7-9.4c-2.3-0.2-4.4,0.3-6.7,0.7
				c2.1-1.6,4.6-1.4,7-1.6c0.5-0.1,1.3,0.3,1.5-0.5c0.1-0.7-0.6-0.9-1.1-1.2c-2.6-1.4-5.2-1.1-7.9,0c-7.7,3.2-12.1,9.3-14.8,16.9
				c-0.2,0.4-0.2,0.9-0.2,1.4c-0.1,1.1,0.5,1.3,1.4,0.8c1-0.5,1.9-1.1,2.9-1.6c1.8-0.9,2.2-0.8,2.8,1.1c0.3,1,0.8,1.2,1.8,1
				c1-0.2,1.2-0.8,1.1-1.7c-0.2-1.5-0.4-3.1-0.5-4.6C194.4,57.8,196.6,53.8,200.1,52.3z M70.1,162.7c-0.2-0.4-0.4-0.9-0.5-1.3
				c-0.2-0.5-0.4-1.2-1.2-1c-0.7,0.2-0.4,0.9-0.3,1.4c0.4,1,0.1,1.2-0.9,1c-0.8-0.1-1.1,0.5-0.9,1.2c0.2,0.5,0.5,1,0.7,1.4
				c0.1,0.3,0.3,0.8-0.2,0.9c-1.7,0.4-1.1,1.4-0.6,2.3c0.6,1.2,1.4,2.2,2.1,3.4c0.3,0.5,0.8,1.2,0.1,1.7c-0.6,0.4-1-0.2-1.4-0.7
				c-0.3-0.4-0.5-0.8-0.8-1.2c-0.4-0.4-0.6-1.2-1.3-0.9c-0.5,0.3-0.3,0.9-0.3,1.5c0,0.2,0.1,0.3,0.1,0.5c0.3,1.7,0.1,1.8-1.5,1.2
				c-0.2-0.1-0.5-0.2-0.7-0.3c-0.3,2.1,0,2.9,2,4.1c0.4,0.3,1.1,0.5,1.1,1c-0.1,0.6-0.8,0.6-1.3,0.6c-0.6,0-1.1,0.1-1.3,0.7
				c-0.1,0.6,0.1,1.1,0.5,1.4c0.7,0.5,1.5,0.9,2.3,1.5c0.7,0.5,2.1,0.7,1.5,1.8c-0.6,1-1.3-0.3-1.9-0.5c-0.3-0.1-0.6-0.5-1-0.1
				c-0.3,0.3-0.2,0.7,0,1.1c0.4,0.6,0.9,1.2,1.6,1.6c0.7,0.4,1.2,0.9,0.1,1.5c-1,0.6-0.5,1.2,0,1.8c0.5,0.6,1.4,0.7,2.1,1.2
				c0.3,0.2,0.6,0.3,0.6,0.7c0,0.4-0.4,0.5-0.7,0.5c-0.9,0-0.7,0.5-0.4,1.1c0.6,1.2,1.8,1.6,3.3,1.1c1.4-0.4,0.9-1.4,0.7-2.4
				c0.8,0.2,1.1,1,2.1,1.1c-0.9-2.9-2.5-5.6-2.7-8.6c1.3,2.8,1.5,6.2,4.1,8.4C72.4,183.2,71.6,172.9,70.1,162.7
				c1.3,3.5,1.7,7.3,2,11.1c0.5,6.1,1.8,12.1,3.5,18c0.2,0.6,0.3,1.3,1.1,1.8c0-2-0.7-3.6-1.1-5.3c-0.1-0.6-0.6-1.1-0.3-1.7
				c0.5-1.1,0.3-2.1,0.1-3.1c-0.4-2.5-0.7-4.9-0.7-7.5c0-6.5,0.3-13-0.7-19.5c-0.4-2.5-0.9-5-2-7.4c0.3,2.6-1.3,4.9-0.6,7.5
				c0.2,0.6,0.2,1.1-0.8,1.3c-1,0.2-1.3,1.1-1.1,2.2C69.8,160.9,70.2,161.8,70.1,162.7z M21.8,42.6c-1,2.8-2.4,5.4-2.8,8.4
				c1.2-2.7,2.3-5.4,3.3-8.1C22.5,42.5,22,42.7,21.8,42.6c-0.1-0.5,0.5-1.4-0.3-1.7c-0.8-0.3-1,0.7-1.4,1.2
				c-0.2,0.3-0.3,0.6-0.5,0.8c-2.6,5-3.6,10.4-3.9,16c-0.2,4.9,0.2,9.6,2.9,13.8c0.9,1.4,1.7,2.7,2.9,3.8c0.3,0.2,0.5,0.7,0.9,0.3
				c0.4-0.4,0-0.7-0.2-1c-0.9-1.5-1.9-3.1-2.9-4.6c-0.9-1.5-1.5-3.2-1-4.7c0.4-1.2,0.3-1.9-0.6-2.9c1.7,0.2,1.6,1.4,1.9,2.3
				c1.1,3.5,2.8,6.5,5.3,9.2c1.5,1.6,3.2,2.4,5.4,2.1c0.8-0.1,2.2,0.4,2.4-0.6c0.2-1.2-1-1.9-2-2.4c-0.3-0.2-0.6-0.3-0.9-0.4
				c-4.8-1.3-7.3-4.9-9-9.3c-0.7-1.8-0.8-3.7-0.1-6c0.2,1,0.4,1.5,0.5,2.1c0.5,2.5,1.6,4.6,3.5,6.3c0.4,0.3,0.7,1,1.3,0.6
				c0.5-0.3,0.2-1,0.1-1.5c0-0.7-0.7-1.5-0.1-2.1c0.5-0.5,0.3-1,0.1-1.4c-1.4-2.2-1.1-4.6-1-7c0.2-4.2,1-8.1,3.6-11.5
				c0.6-0.8,1.3-1.6,1.9-2.4c0.2-0.3,0.5-0.6,0.1-1c-0.3-0.3-0.6-0.1-0.9-0.1c-1.1,0.3-2.1,0.6-3.2,0.9c-1.4,0.3-2.3,1-2.8,2.4
				c-0.9,2.6-1.8,5.1-2.4,7.8c-0.4,1.8-0.3,3.7-1.1,5.6c-1.2-2,0.1-4.1-0.9-6.1c-1,1.5-0.4,3.5-2.1,4.3c-0.3-1.2,0.1-2.4,0.3-3.5
				C18.7,48.7,19.2,45.2,21.8,42.6z M194.7,186.2c0,0.2,0,0.4-0.1,0.6c-0.6,2.1-1.1,4.1-1.7,6.1c-0.2,0.6-0.1,1,0.4,1.4
				c0.3,0.2,0.7,0.4,1,0.1c0.5-0.4,0.1-0.9-0.1-1.3c-0.3-0.6,0-0.9,0.6-0.9c0.4,0,0.7-0.2,1.1-0.3c0.8-0.2,1.8-0.6,1.9-1.5
				c0.1-1.1-1.1-0.7-1.7-1c-0.1-0.1-0.1-0.1-0.2-0.2c0.2-0.6,0.8-0.7,1.3-0.9c0.9-0.4,1.7-0.8,2.5-1.5c0.4-0.4,0.8-0.8,0.5-1.4
				c-0.3-0.6-0.8-0.8-1.5-0.6c-1.2,0.3-2.5,0.6-3.7,0.9c0.2-1.2,0.8-2.1,1.6-2.9c0.2-0.2,0.5-0.6,0.8-0.3c1.4,1.8,2.7,0.1,4.1,0.1
				c0.4,0,0.4-0.3,0.4-0.5c-0.1-0.6,0-1.3-0.4-1.6c-0.5-0.4-1.2-0.3-1.8,0.1c-0.6,0.3-1.4,0.8-1.7,0.3c-0.4-0.7,0.6-1.1,1.1-1.5
				c0.2-0.2,0.5-0.3,0.8-0.5c0.7-0.5,1.3-1.1,1.7-1.9c0.3-0.5,0.5-1,0.1-1.5c-0.4-0.6-1-0.3-1.5-0.2c-0.8,0.2-1.5,0.7-2.6,0.7
				c1.1-0.9,1.9-1.8,2-3c0-0.6,0.1-1.3-0.5-1.6c-0.6-0.3-1.2,0.3-1.7,0.7c-0.3,0.2-0.4,0.6-0.5,1c-0.2,0.3-0.3,0.7-0.5,1
				c-0.4,0.5-0.8,1.2-1.5,0.9c-0.7-0.4-0.4-1.1-0.2-1.7c0.3-0.9,1-1.5,1.8-2c0.8-0.6,1.4-1.3,1.6-2.3c0.1-0.5,0.1-1.2-0.7-1.2
				c-2.2,0.2-1.3-0.7-0.6-1.6c0.7-1.1,0.4-2.3-0.5-2.3c-1.7,0.1-1.9-0.9-2.2-2.1c-0.1-0.7-0.3-1.3-0.5-2.1c-1.1,1-1.9,1.3-1.9-0.6
				c0-0.4-0.4-0.8-0.6-1.1c-0.8-0.9-1.1-2-1-3.1c0.1-1.2,0.3-2.4,0.3-3.7c0-1.6,0.8-3.1,0.4-4.7c-2.5,2.6-3.5,20-1.7,29.4
				c0.5-2.8,0.2-5.5,1-8.2c-0.4,8.7-0.9,17.4-2.4,26.1c2.6-3.5,2.5-7.6,3.3-11.6c0.2,3.5-0.8,7-1.2,10.8c1.2-1.2,1-2.8,2.2-3.8
				c-0.2,1.4-0.3,2.5-0.5,3.6c0.6-0.5,0.9-1,1.2-1.6C193.2,189.5,193.6,187.7,194.7,186.2z M204.9,141.4c0.2-2,1.7-3.6,1.9-5.6
				c-0.2,0-0.4,0-0.4,0.1c-0.6,0.7-1.2,1.3-1.8,2c-1.4,1.5-1.7,1.5-3.1,0.1c-0.6-0.6-1.1-1.2-1.7-1.7c-0.3-0.2-0.6-0.6-0.9-0.3
				c-1,1.1-2.1,1.5-3.6,1.2c-0.2-0.1-0.6,0.3-0.9,0.6c-1.4,1.6-2.3,3.5-3.3,5.3c-0.2,0.3-0.2,0.7,0.1,0.9c0.5,0.2,0.7-0.2,0.7-0.6
				c0.5-2.7,2.9-3.2,4.9-3.7c1.7-0.5,3.5,0.1,4.7,1.7C203.1,143.2,203.6,143.2,204.9,141.4c-0.1,1-0.7,1.9-0.7,3
				c0,0.7-0.1,1.8,0.6,2c0.9,0.2,0.6-1,1.1-1.5c0-0.1,0.1-0.1,0.4-0.1c-1.2,4.6-2.2,9.1-2.9,13.6c-0.7-0.2-0.1-1.3-0.7-1
				c-0.9,0.3-1.6,1.1-2.4,1.6c-0.6,0.4-0.1,1-0.2,1.4c-0.1,0.4,0.1,1.5-0.7,1.2c-1.2-0.5-2.3,0.2-3.4-0.2c-0.3-0.1-0.6,0.1-0.5,0.4
				c0,0.2,0.2,0.5,0.3,0.5c1.7,0.4,1.9,1.8,2.3,3.2c0.2,0.6,0.5,1.6,1.4,1c0.9-0.5,0.7,0.1,0.8,0.5c0.2,1.8,0.4,3.6,0.6,5.4
				c0.1,0.8,0,1.7,0.8,2.1c0.7,0.4,1.4,0,2.3-0.6c-0.3,0.9-0.5,1.6-0.7,2.3c0,0.1-0.1,0.2-0.2,0.2c-1.1,0.7-1.2,2.5-0.1,3.1
				c1.2,0.7,1.3,2.5,0.1,3.1c-1.3,0.6-1.4,1.7-1.9,2.7c1,0.2,1.5-0.7,2.4-0.7c-0.6,2.8-0.8,5.7-2.2,8.3c-0.3,0.6-0.5,1.4,0.2,1.7
				c0.7,0.3,0.9-0.5,1.2-1c1.3-2.2,2.2-4.5,2.8-6.9c0.3-1.2,0.3-2.4,1.2-3.7c-0.2,4.1-1.7,7.6-2.7,11.3c3.6-4.3,4.7-19.6,2.1-28.3
				c-0.4,2.6,0.8,4.9,0,7.2c-0.3-1.6-0.4-3.2-0.6-4.9c-0.8-9.1,0.3-17.8,4.7-25.9c1.4-2.6,3.8-5.1,5.6-6c-6.9,7.6-9.9,16.7-9.7,26.9
				c0.4-2.2,0.6-4.4,0.9-6.6c1-6.7,3.7-12.7,8.4-17.6c2.9-3,6.4-4.5,10.6-2.9c0.9,0.3,1.2-0.1,1.3-0.8c0.1-0.5,0-1-0.3-1.5
				c-0.3-0.5-0.2-0.9,0.2-1.3c0.4-0.3,0.8-0.3,1.2-0.1c0.6,0.3,1.2,0.6,1.8,1c0.7,0.4,1,0.2,1-0.5c0-1.3,0-2.6-1.3-3.4
				c-0.4-0.2-0.9-0.5-0.8-1.1c0.2-0.6,0.8-0.7,1.3-0.8c0.5-0.1,1.4,0.3,1.6-0.4c0.2-0.7-0.6-1.1-1-1.5c-0.4-0.4-0.8-0.8-1.4-1
				c-0.6-0.2-1.4-0.4-1.3-1.1c0-0.7,0.7-0.9,1.4-1.2c0.9-0.3,2-0.5,2.8-1.2c0.4-0.3,1-0.7,0.5-1.3c-0.3-0.5-0.8-0.4-1.3-0.1
				c-0.4,0.2-0.8,0.4-1.2,0.5c-0.6,0.3-1.2,0.2-1.7-0.4c-1.3-1.6-1.9-1.5-3.1,0.2c-0.4,0.6-0.6,1.6-1.4,1.4
				c-0.7-0.2-0.2-1.1-0.3-1.7c-0.1-0.5,0.1-1-0.5-1.2c-0.5-0.2-0.9,0.1-1.3,0.5c-0.5,0.6-0.9,1.3-1.4,1.9c-0.3,0.4-0.5,1-1,0.9
				c-0.6-0.2-0.2-0.8-0.1-1.3c0.1-0.6,0.1-1-0.4-1.4c-0.6-0.4-1.1-0.3-1.6,0c-1.4,0.5-2.3,1.3-2,3c0.1,0.7,0.1,1.5-0.8,1.7
				c-1.5,0.4-1.4,1.5-1.1,2.6c0.6,2,0.1,3.8-1.5,5.2c-0.5,0.4-1.1,0.9-0.6,1.6c0.6,0.9,0.9-0.5,1.6-0.2c-2,1.9-3.2,4.4-4.9,6.4
				c0.3-1,0.7-1.9,1.1-2.8c0.1-0.3,0.2-0.8-0.2-1c-0.4-0.3-0.7,0-1,0.2c-0.6,0.4-1,1-1.3,1.6C206.2,139,205.6,140.2,204.9,141.4z
				 M167,153.2c-0.3,2.7-0.6,5.3,0.2,7.9c1.7,5.7,3.7,11.3,4.7,17.2c0.1,0.5,0.5,1.1-0.3,1.5c-0.1-0.3-0.3-0.5-0.3-0.8
				c-0.3-5.1-2.4-9.7-3.7-14.5c-0.3-1.2-0.8-2.4-1.3-3.6c-0.2-0.4-0.4-1-1-0.7c-0.5,0.2-0.5,0.8-0.4,1.3c0.3,1.2,0.6,2.4,1,3.5
				c1.6,4.6,3.4,9.1,4.3,13.9c0.1,0.4,0.6,1-0.1,1.2c-0.7,0.2-0.6-0.6-0.7-1c-1.1-5.8-3.9-11-5.3-16.7c-0.1-0.6-0.2-1.3-1-1.2
				c-0.7,0-1.2,0.5-1.5,1.1c-0.2,0.4-0.2,0.8-0.3,1.5c-0.7-1.5-1.5-2.3-3-1.6c-0.9,0.5-0.9,2.1-0.1,3.5c0.3,0.4,0.6,0.8,0.8,1.2
				c0.2,0.3,0.4,0.7,0.1,1c-0.3,0.4-0.7,0.2-1,0c-0.3-0.1-0.6-0.3-0.9-0.4c-0.4-0.1-0.9-0.7-1.3-0.2c-0.3,0.4-0.3,0.9-0.2,1.4
				c0.3,1.1,1.2,1.9,1.8,2.8c0.4,0.6,0.7,1.3-0.1,1.8c-0.7,0.5-1.2-0.1-1.5-0.7c-0.3-0.5-0.6-1-1-1.4c-0.7-0.7-1.5-1.6-2.6-1
				c-1.1,0.6-0.7,1.8-0.3,2.7c0.2,0.5,0.5,1,0.7,1.4c0.2,0.4,0.3,0.8-0.2,1.1c-0.5,0.3-0.7-0.1-0.9-0.3c-0.5-0.5-0.9-1-1.4-1.5
				c-0.7-0.6-1.6-0.8-2.4-0.4c-0.8,0.4-0.6,1.3-0.4,2c0.3,1.3,0.9,2.3,2,3c0.5,0.3,1,0.7,1.3,1.2c0.2,0.3,0.3,0.7,0,1
				c-0.3,0.4-0.7,0.1-1-0.1c-0.2-0.1-0.4-0.3-0.7-0.5c-1.1-0.6-2.8-0.3-3,0.5c-0.4,1.3,0.6,1.9,1.5,2.5c0.1,0.1,0.2,0.1,0.3,0.1
				c0.8,0.3,2.1,0.3,2,1.4c-0.1,1.1-1.4,0.6-2.1,0.8c-0.6,0.2-1.2,0.3-1.3,1c-0.2,0.7,0,1.2,0.6,1.7c1.2,1.1,2.6,1.2,4,0.5
				c0.6-0.3,1.1-0.2,1.3,0.4c0.3,0.6-0.1,1-0.6,1.3c-0.3,0.2-0.7,0.3-1,0.5c-0.5,0.3-1.2,0.6-1,1.3c0.1,0.6,0.8,0.8,1.3,1
				c1.1,0.3,2.1-0.1,3.1-0.4c0.6-0.2,1.2-0.3,1.6,0.2c0.5,0.7-0.4,0.8-0.6,1.2c-0.2,0.4-0.6,0.7-0.3,1.1c0.2,0.3,0.7,0.3,1.1,0.2
				c0.8-0.3,1.6-0.7,2.4-0.9c1.2-0.3,1.9-0.9,1.3-2.3c1,0.3,1.4,1.1,2.5,1.2c0-1.8-1.1-3.2-1.8-4.7c0.7,0.7,1.2,1.4,1.8,2.2
				c0.8,1,1.1,2.6,3,1.8c0.7-0.3,1.8,0,1.9-1.1c0.8,0.1,0.6,1.5,1.6,1c2.3-1.1,2.9-1,3.9,1.1c0.6-0.4,1.4-1.1,0.9-1.6
				c-1.3-1.6-0.5-3.3-0.4-4.9c0.2-2.9,0.4-5.8,0-8.8c1.1,2.7,0.6,5.6,1.3,8.3c0.4-4.6,0-9.2,0-13.7c0.3,0.6,0.4,1.2,0.5,1.8
				c0.4,4.6,0.5,9.3,0.3,13.9c0,1.5-0.1,3.1-0.7,4.4c-1.2,2.6,0.5,4.9,0.2,7.4c1.6-3.1,0.2-6.4,0.9-9.5c0.7-3.2,1.1-6.4,1.3-9.7
				c0.9,1,0.7,2.1,0.4,3.1c-0.7,2.3-0.3,4.7-0.7,7c-0.3,1.6,0.7,2.1,1.9,2c1.1,0,1.7-1,1.7-2.1c0-0.9,0-1.8,0.2-2.7
				c0.6-4.2,1.5-8.4,1.7-12.7c0.6-8,0-16,1.3-24c0.5-3.4,1-6.8,2.5-10c1.2-2.6,3-4.8,4.6-7.1c0.5-0.7,1-1.5,1.4-2.3
				c0.3-0.7,0.1-1.4-0.6-1.8c-0.6-0.4-0.9,0.4-1.3,0.7c-0.5,0.4-0.7,1.1-1.7,1.6c0.7-1,1.1-1.8,1.6-2.5c0.5-0.9,0.4-1.9-0.3-2.6
				c-0.8-0.8-1.5,0-2.1,0.3c-0.2,0.1-0.4,0.3-0.9,0.6c0.5-1.3,0.8-2.3,0.7-3.5c0-0.6-0.1-1.1-0.7-1.3c-1-0.4-1.3-1.2-1.4-2.1
				c-0.1-0.7-0.4-1.4-1.2-1.6c-0.8-0.2-1.4,0.3-1.9,0.9c-1,1.1-1.4,2.5-1.9,3.9c-0.5,1.2-0.9,2.5-1.4,3.7c-0.1,0.2-0.2,0.5-0.6,0.4
				c-0.2-0.1-0.3-0.4-0.2-0.5c1.1-1.6,1-3.8,2-5.5c1-1.6,1.5-3.4,2.2-5.1c0.2-0.5,0.4-1.2-0.1-1.6c-0.6-0.5-1.1-0.1-1.6,0.2
				c-1.3,0.7-2.2,1.6-2.6,3.1c-0.2,0.8-0.5,1.5-0.7,2.3c-0.1,0.4-0.4,0.8-0.9,0.8c-0.5-0.1-0.9-0.5-0.9-1c0-0.7,0.1-1.4,0.1-2.1
				c0.1-1.1-0.5-1.2-1.3-0.9c-0.7,0.3-1.3,0.7-1.2,1.6c0.1,0.8,0.1,1.6,0.1,2.4c0,1-0.5,1.9-1.4,1.8c-1.1-0.1-0.4-1.2-0.5-1.8
				c0-0.2,0-0.3,0.1-0.5c0.4-1.2,0.2-2.6-1-2.8c-1.2-0.2-1.7,1-1.7,2.2c0,0.5-0.1,1.1-0.6,1.2c-0.6,0.1-0.7-0.6-0.9-1
				c-0.1-0.3-0.2-0.6-0.3-0.9c-0.2-0.4-0.4-1-0.9-0.9c-0.6,0.1-0.9,0.6-0.9,1.2c0,0.7,0,1.4,0.1,2.1c0.1,2.1,0,2.2-1.9,1.4
				c-1.1-0.4-1.3,0-1.3,0.9c0,1.5,0.4,2.8,1.1,4.1c0.5,0.9,0.5,1.5-0.8,1.4c-1.7-0.1-2,0.3-1.5,2c0.3,1,1.2,1.7,1.3,2.7
				c-0.8,0.5-1.9-0.5-2.2,0.6c-0.3,1.1,0.9,1.5,1.7,2.1c0.1,0.1,0.2,0.1,0.3,0.1c0.9,0.4,1.8,1.6,2.7,0.9c0.9-0.7,0.3-2,0.3-3
				c-0.1-1.5-0.7-2.9-0.2-4.4c0.7,3.5,1.6,6.9,1,10.5c-0.6-0.7-1.1-1.2-2.1-1.3c-1.4-0.2-2.4-2-4.2-1.3c-0.1,0-0.3-0.1-0.4-0.2
				c-0.9-0.8-1.1-0.2-1.1,0.6c0,0.9,0.3,1.8,0.4,2.7c0,0.4,0.1,0.9-0.5,1c-0.6,0.1-0.7-0.4-0.7-0.8c-0.1-0.4,0-0.8-0.2-1.1
				c-0.2-0.5-0.9-0.6-1-0.2c-0.4,1.8-2.7,1.7-3.2,3.4c-0.4-1-0.6-1.8-0.8-2.7c0-0.2-0.2-0.8,0.3-0.6c1.2,0.5,1.1-0.4,0.9-0.9
				c-0.6-1.7,0.6-2.6,1.4-3.8c0.4,0.6-0.5,1.3,0.5,1.6c1.2,0.4,3.2-1,3-2.3c-0.1-0.8,0.1-1.4,0.6-2c0.8-1,0.2-2.1-0.3-3
				c-0.5-1-1.2-0.2-1.8-0.1c-0.5,0-1,0.4-1.3-0.3c-0.3-0.7,0-1.2,0.5-1.5c1.3-0.8,1.5-2.3,2.4-3.3c0.3-0.4,0.4-1,0-1.5
				c-0.3-0.4-0.8-0.3-1.2-0.2c-1.7,0.4-1.8,0.4-1.4-1.5c0.1-0.9,0.3-1.7-0.6-2.3c-0.9-0.7-1.5,0-2.1,0.4c-0.8,0.6-1.4,0.5-2-0.3
				c-0.2-0.2-0.3-0.6-0.9-0.4c0.3,1.5-0.3,2.6-1.7,3.3c-0.5,0.2-0.6,0.7-0.6,1.2c0.1,1.5-0.7,2.3-2.2,2.6c-1.1,0.2-1.7,0.9-1.1,2
				c0.3,0.6,0.2,1.1-0.1,1.7c-0.7,1.7-1.4,3.4-2.1,5.1c0.2-1,0.5-2,0.8-3c0.2-0.7,0.2-1.4-0.6-1.6c-0.9-0.3-1.3,0.4-1.4,1.1
				c-0.3,1.2-0.6,2.2-1.4,3.2c-0.9,1.1-1.3,2.4-1.6,3.8c-1.9,9-2.1,18.2-1.9,27.4c0,1.2,0.3,2.4,0.8,3.6c0.7,1.5,0.8,3.2,0.8,4.9
				c0,0.4,0,0.9-0.6,0.9c-0.5,0-0.8-0.2-0.9-0.7c-0.2-1.5-0.4-3.1-0.4-4.6c0-1.6,0.2-1.6-0.9-3.5c0.2,6.6,0.7,12.7,2.7,18.7
				c0.4-1.4-0.5-2.8-0.1-4.5c0.8,1.2,1.2,2.3,1.5,3.5c0.3,1,0.7,1.9-0.4,2.7c-0.6,0.4,0,0.9,0.3,0.8c1.4-0.3,1.6,0.7,2,1.6
				c0.4,0.9,1,1.7,1.5,2.5c0.2,0.3,0.5,0.7,0.7,0.5c0.6-0.6,1.1-1.3,2.2-0.7c0.3,0.1,0.7-1.2,0.7-1.9c0-0.8,0.1-1.6-0.7-2.1
				c-1-0.6-1,0.7-1.8,0.8c0.9-8.3,2.3-16.6,2.7-24.9c0.2,2,0.2,3.9,0.2,5.8c0,0.7,0,1.6,1,1.6c0.8,0,1.1-0.7,1.2-1.5
				c0.1-1,0.3-1.9,0.3-2.9c0.1-5.2,1.3-10.2,3.1-15.1c0.1-0.3,0.1-0.9,0.8-1c0.5,1.3,1.1,2.6,1.6,3.9c0.5,1.3,1.2,2.5,2.1,3.5
				c0.9,1,1.6,1.1,2.6,0.5c0.4-0.2,0.9-0.7,1.2,0c0.6,1.6,1.7,0.7,2.2,0.2c0.5-0.5,0.6-0.5,1-0.2c0.9,0.7,1.3,0.2,1.6-0.6
				c0.2-0.8,0.5-1.5,0.7-2.3c0.3-1.2,0-2-1.2-2.4c-0.4-0.1-1.2-0.2-1.1-0.8c0.1-0.5,0.8-0.7,1.3-0.8c1.2-0.1,1.5-0.8,1.4-1.8
				c0-0.4,0-0.7,0-1.1c0-0.7,0.4-1,1-1.1c0.6,0,0.5,0.6,0.6,0.9c1.4,6.1,2.8,12.1,4.1,18.2c0.5,2.3,1.2,4.6,1.2,6.9
				C170.4,167.6,169.3,160.3,167,153.2z M74.9,131.6c-0.5-0.7-1-1.5-1.5-2.2c-0.5-0.7-1.1-1.4-2-1.8c-0.4-0.2-1-0.4-1.1,0.3
				c-0.3,1.8-0.8,3.6,0.6,5.3c1.9,2.3,3.4,5,4.6,7.9c3.1,7.8,4.6,16,5,24.3c0.5,10.8,2.6,21.2,5.6,31.6c0.1,0.3,0.1,1,0.7,0.7
				c0.4-0.2,0.5-0.7,0.2-1.1c-0.6-1-0.8-2.2-1.2-3.3c-2.3-7.3-2.9-14.9-2.8-22.6c0.3,7.1,1.2,14.1,3.4,20.9
				c-0.1-2.6-0.7-5.1-0.9-7.7c-0.1-2.6-0.5-5.1-0.5-7.7c0-2.5,0.2-5.1,0.3-7.6c0.3,4.1,0.3,8.1,0.6,12.2c0.2,3.3,0.7,6.6,1.6,9.8
				c0.1,0.4,0.2,0.9,0.6,0.8c0.6-0.1,0.5-0.6,0.4-1c-0.1-1.2-0.3-2.3-0.4-3.5c-0.3-3.4-0.7-6.9-0.5-10.5c0.4,0.4,0.2,0.8,0.3,1.2
				c0.4,3.9,0.5,7.8,1.3,11.6c0.3,1.2,0.6,2.5,1.3,3.6c0.2,0.3,0.6,0.6,1,0.4c0.5-0.2,0.3-0.6,0.3-1c-0.5-1.7-0.9-3.4-1.5-5.1
				c-0.2-0.7-0.4-1.2-0.1-2c0.4-1.1,0.6-2.9-0.1-3.3c-1.7-0.9-0.5-2-0.7-3c0.3,0.5,0.4,1.6,0.6,1.5c1.5-0.7,0.8,0.7,0.9,1
				c0.2,1.2,0.2,2.3,0.3,3.5c0.2,1.6,0.2,3.3,1,4.9c0.5-2.9,0-5.9,0.9-8.7c0.1,3.4-0.4,6.9,0.5,10.3c0.2,0,0.3,0,0.5,0
				c0.2-1.5,0.3-3.1,0.6-5.1c0.3,1.9-0.1,3.5,0.6,5c0.8-0.8,0.3-1.8,1.1-2.5c0,1,0,1.8,0,2.7c0,0.5-0.1,1-0.7,0.7
				c-0.8-0.5-0.6,0.3-0.6,0.5c-0.1,0.5,0.1,0.8,0.7,0.8c0.9,0,1.7-0.3,2.2-1.4c0.1,0.8,0.1,1.5,0.2,2.4c1.3-1.3,2.6-2.1,4.1-3
				c0,0.3-0.1,0.4-0.1,0.5c-0.2,0.8-2.5,2.4,0.7,2.1c0.1,0,0.2,0.2,0.4,0.3c1.5,1.3,3.5,1.5,5.3,2.2c0.9,0.3,1.7-0.3,2.1-1.1
				c0.4-0.9-0.4-1.2-1-1.5c-0.2-0.1-0.5-0.2-0.7-0.4c-0.3-0.2-0.7-0.4-0.6-0.8c0.1-0.2,0.5-0.4,0.8-0.4c1-0.1,2-0.2,3-0.2
				c0.8-0.1,1.6-0.2,1.7-1.1c0.1-0.8-0.6-1-1.2-1.3c-0.3-0.2-0.8-0.3-0.6-0.8c0.1-0.4,0.5-0.5,0.9-0.6c0.8-0.2,1.7-0.2,2.4-0.7
				c0.7-0.5,1.1-1,0.2-1.8c-1.5-1.3-1.4-1.3,0.3-1.9c1.2-0.4,2.3-1.8,2-2.7c-0.5-1.6-1.5-0.8-2.4-0.5c-0.4,0.2-0.6,0.1-0.8-0.2
				c-0.2-0.3-0.2-0.6,0-0.9c0.3-0.3,0.7-0.7,1.1-0.9c0.9-0.6,1.8-1.2,1-2.4c-0.7-1.1-1.8-0.9-2.8-0.2c-0.4,0.3-0.9,0.9-1.4,0.4
				c-0.5-0.5,0.1-1,0.4-1.4c0.6-0.9,1.4-1.6,1.3-2.8c-0.1-1-0.5-1.8-1.5-2c-1-0.2-1.3,0.6-1.7,1.4c-0.3,0.7-0.5,1.5-1,2.2
				c-0.3,0.4-0.7,0.5-1.1,0.4c-0.5-0.2-0.5-0.7-0.4-1.1c0.2-0.8,0.6-1.6,0.9-2.4c0.4-0.9,0.5-1.8,0.3-2.7c-0.1-0.5-0.2-1.1-0.9-1.2
				c-0.6,0-0.7,0.5-1,1c-0.3,0.6-0.5,1.3-0.8,1.9c-0.2,0.3-0.4,0.7-0.8,0.6c-0.4-0.1-0.6-0.4-0.8-0.7c-0.3-0.5-0.1-1,0.1-1.5
				c0.4-0.8,0.8-1.5,1.1-2.3c0.9-2.2,0-3.2-2.2-2.9c-0.3,0-0.5,0.1-0.8,0.1c-1.5,0-2.2,0.7-2.6,2.1c-0.4,1.5-0.8,3-1.7,4.4
				c0.3-1.5,0.7-2.9,1-4.3c0.2-1.1,0.7-2.5-0.6-3c-1.3-0.5-1.4,1.1-2,1.9c-0.2-0.6,0-1.1,0.1-1.7c0.1-0.7,0.5-1.5,0.3-2.2
				c-0.3-1.1-1.5-1.8-2-2.7c-0.4-1,0.4-2.4-0.3-3.6c-0.6-1.1-1.2-2.1-1.6-3.3c-0.2-0.5-0.3-1-0.1-1.4c1-2.1,0.8-4.6,2.6-6.4
				c0.1-0.1,0.1-0.3,0.1-0.4c-0.5-2.3-0.5-3.2,0.1-5.4c0,0.8-0.1,1.4,0,1.9c0.1,0.7-0.4,1.7,0.4,2c0.7,0.3,1.5-0.5,2.2-0.8
				c0.1-0.1,0.3-0.2,0.4-0.3c1.1-1.2,0.6-3.4-0.9-3.9c-1-0.4-0.6-0.7-0.1-1.2c1-1,1.7-2.2,1.3-3.7c-0.1-0.6-0.3-1.2-1.2-0.6
				c-0.4,0.3-0.8,1.1-1.5,0.4c-0.5-0.5-0.1-1.1,0.2-1.6c0.7-1.5,1.5-3,1.2-4.7c-0.1-0.7,0.1-1.6-0.7-2c-0.9-0.4-1.1,0.6-1.6,1
				c-0.2,0.2-0.4,0.6-0.8,0.4c-0.3-0.1-0.4-0.5-0.4-0.8c0-0.6,0-1.3,0-1.9c0-0.8-0.2-1.7-0.9-1.9c-0.9-0.3-1,0.7-1.3,1.3
				c-0.5,0.9-0.9,1-1.4,0.1c-0.1-0.1-0.1-0.2-0.2-0.3c-0.3-0.5-0.6-1.1-1.4-0.9c-0.8,0.3-0.4,1.1-0.4,1.7c0.1,0.7,0.2,1.5,0.2,2.2
				c0,0.7,0,1.5-1.1,1.4c-0.9-0.1-1.1-0.6-1-1.4c0.1-1.2,0.2-2.5-0.9-3.4c-0.4-0.3-0.7-1-1.3-0.8c-0.6,0.2-0.2,0.8-0.3,1.3
				c-0.1,0.4-0.1,1-0.5,1.1c-0.6,0.2-0.8-0.4-1.1-0.8c-0.5-0.6-0.6-1.5-1.5-1.9c-0.3,0.7-0.6,1.3-1.6,1.4c-1.8,0.1-2.1,0.8-1,2.4
				c1.2,1.7,2.3,3.6,3.2,5.5c0.2,0.4,0.7,0.9,0.2,1.4c-0.6-0.4-0.6-1.1-0.8-1.7c-0.6-1.8-1.7-3.2-3-4.5c-0.9-0.9-1.4-0.6-1.9,0.4
				c-0.6,1.3,0,2.3,0.5,3.5c-0.7-0.4-1.3-0.8-1.9-1.2c-0.9-0.6-1.5-0.5-2,0.6c-0.4,0.9-0.4,1.6,0.1,2.4
				C74.3,129.8,75,130.5,74.9,131.6z M186.5,14.9c0,0.1,0,0.1,0,0.2c-8.9,0-17.7,0-26.6,0c-4,0-7.9,0-11.9,0.1
				c-0.4,0-1.2-0.3-1.1,0.7c0.3,2.3,0,4.7,2.3,6.6c2,1.7,1.3,4.2-1,5.6c-1.5,0.9-3.1,1.6-4.8,2.2c-0.8,0.3-1.6,0.7-2.3,1.1
				c-0.6,0.4-0.6,0.8,0.1,1.1c0.9,0.4,1.9,0.4,2.8,0.6c1.4,0.2,2.9-0.8,3.3-2.1c0.6-1.9,1.3-2.1,2.9-1c0.7,0.4,1.3,1,1.6,1.8
				c0.5,1.1,1.2,1.4,2.4,1.4c23.6,0,47.1,0.2,70.7-0.2c1,0,1.5-0.3,1.8-1.3c1.9-5.1,1.8-10.2-0.2-15.2c-0.4-1.1-1.2-1.4-2.4-1.4
				C211.7,14.9,199.1,14.9,186.5,14.9z M105.4,74.7c1.5-0.6,2.1-2.3,3.5-3c2.2-1.1,4.6-0.9,6.9-0.8c0.7,0,1.1-0.1,1.6-0.6
				c0.7-0.8,1.5-2.4,3.1-1.1c0.3,0.2,0.8,0,1.2-0.2c3.2-1.7,5.7-4.1,6.6-7.8c0.4-1.6,0.2-3.3,0.1-4.9c-0.1-1-0.8-2.3-1.7-3.4
				c-2.3-2.6-4.7-3.5-8.1-3.6c-2.4-0.1-4.2,1.1-5.5,2.8c-2.3,3.1-2.4,5.7,1.5,7.9c0.5,0.3,1,0.6,1.5,0.1c0.5-0.5-0.1-0.9-0.3-1.3
				c-0.7-1.4,0.2-4.7,1.6-5.5c0.3-0.2,0.6-0.3,0.9-0.3c2,0.1,3.9,0.2,5.1,2.1c1.3,2.1,1.7,4.6,0.5,6.7c-1.3,2.2-3.4,3.7-6,4.3
				c-0.5,0.1-1,0.4-1.2-0.3c-0.3-0.7,0.4-0.8,0.8-1c2-0.8,3.3-2.4,4.4-4.1c1.6-2.4,0.3-5.1-2.5-5.5c-1-0.1-1.8,0.3-2,1.2
				c-0.1,0.9,0.7,1.3,1.5,1.5c1.8,0.4,2,1,0.8,2.5c-0.6,0.6-1.6,1.2-1.7,1.8c-0.2,1.3-0.9,1.4-1.8,1.5c-1.1,0.1-1.9,0.7-2.6,1.4
				c-0.7,0.6-1.4,1.1-2.3,1.4c-2.8,0.8-5.6,1.1-8.3,2.1c-1.9,0.7-3.8,1.3-5.4,2.4c-1.4,1.1-4,0.5-4.5,3c0,0-0.1,0.1-0.1,0.1
				c-1.7,0.8-3.2,1.8-4.1,3.9c-0.4-1.7,0.5-2.7,1-3.7c0.2-0.6,0.5-1.2-0.3-1.5c-0.8-0.3-1,0.4-1.2,0.9c-0.1,0.4-0.2,0.8-0.3,1.2
				c-0.3,1.5-0.8,3-0.8,4.6c0,0.5-0.2,1.1-0.8,1c-0.6-0.1-0.4-0.7-0.3-1.1c0.1-0.9,0.5-1.9,0.5-2.8c0-1.1-0.4-2.6-1.5-2.7
				c-1.1-0.2-1.6,1.1-1.7,2.3c0,0.6,0,1.3-0.1,1.9c0,0.3,0.1,0.7-0.3,0.8c-0.4,0.1-0.5-0.3-0.8-0.5C82,78,81.9,77,81.2,77.4
				c-0.6,0.3-0.8,1.1-0.7,1.8c0.1,0.9,0.4,1.8,0.5,2.7c0.1,0.4,0.1,0.9-0.4,1.1c-0.5,0.2-0.8-0.1-1.1-0.5c-0.5-0.5-0.4-1.2-0.4-1.8
				c0-1,0.1-2-1.2-2.4c-0.8-0.3-0.7-1-0.3-1.7c0.6-1,0.8-2.1,0.7-3.2c-0.1-0.6-0.2-1.2-1-0.7c-1.1,0.8-1.2,0-1.4-0.8
				c-0.1-0.6-0.1-1.3-0.3-1.9c-0.1-0.7-0.2-1.5-1-1.6c-0.9-0.1-1.1,0.8-1.2,1.4c-0.2,1.4-0.8,0.8-1.3,0.3c-0.5-0.5-1-1.2-1.5-1.7
				c-0.3-0.3-1.1-0.7-1.2-0.1c-0.3,1.5-0.6,2.8-1.4,4.1c-0.2,0.4,0.5,1.3,0.8,2c0.3,0.9,1.5,2,0.3,2.6c-1.3,0.6-1.5-1-2-1.9
				c-0.3-0.5-0.4-1.4-1-1.2c-1.9,0.5-1.5-0.8-1.5-1.7c0-0.7,0.1-1.4,0-2.1c0-0.6-0.1-1.4-0.9-1.5c-0.8,0-0.4,0.8-0.6,1.2
				c-0.2,0.4-0.1,1.1-0.7,1.1c-0.5,0-0.6-0.5-0.8-0.9c-0.4-0.9-0.8-1.8-1.4-2.5c-0.4-0.4-0.8-0.8-1.4-0.6c-0.7,0.3-0.4,0.9-0.3,1.4
				c0.1,0.7,0.6,1.7,0,1.9c-2,0.8-0.3,1.3,0.1,1.8c0.5,0.6,1.1,1.1,1.8,1.6c5.7,4,11,8.4,14.2,14.9c0.2,0.3,0.3,0.8,1.1,0.7
				c-1.4-3.1-2.7-6.2-4.1-9.3c0.4,0,0.6,0.1,0.7,0.3c2,4.7,4.9,9.1,5.2,14.5c0,0.5,0.1,1,0.3,1.4c1.8,4.7,3.9,9.1,7,13.1
				c0.3,0.4,0.5,0.9,1.6,1c-3.7-7.1-7.3-13.9-8.4-21.7c1.3,4.6,2.8,9.2,5,13.5c2.2,4.2,4.2,8.6,7.7,12c-4-7-8-14.1-8.9-22.4
				c2,8.5,5.2,16.5,11.2,23.1c0.1-1.6-1.3-2.6-1.7-4.1c3.3,0.1,1.4-2.3,1.6-3.7c2.8,6.6,7.6,12.4,10.8,12.7
				c-1.6-1.6-3.4-2.8-4.7-4.5c-1.3-1.6-2.6-3.3-3-5.4c-0.4-2-1-4.1-0.7-6.3c0.6,0.4,0.1,1.2,0.9,1.4c0.1-2.3,1-4.5,1.6-6.6
				c0.1-0.3,0.3-0.8-0.1-1.1c-0.3-0.2-0.6,0-0.9,0.2c-0.5,0.3-1,0.7-1.6,0.1c-0.5-0.5-0.2-1.1,0-1.6c0.5-1.2,1.1-2.3,1.1-3.7
				c0-0.4,0.2-1-0.4-1.1c-0.4-0.1-0.5,0.4-0.7,0.7c-0.2,0.5-0.5,1.1-1.2,0.7c-0.6-0.3-0.6-0.9-0.4-1.4c0.3-0.8,0.6-1.5,0.9-2.2
				c0.4-1.1,1-2.7-0.1-3.2c-1-0.4-1.7,1.2-2.2,2.3c-0.4,0.8-0.5,1.6-0.9,2.4c-0.2,0.4-0.6,0.8-1.2,0.5c-0.4-0.3-0.7-0.7-0.5-1.2
				c0.3-0.8,0.7-1.5,1.1-2.3c0.5-1.1,1.1-2.1,1-3.3c-0.3-1.8,0.8-2.3,2.3-2.5c0,0.3,0.1,0.5,0,0.7c-0.3,0.6-0.6,1.2,0.1,1.7
				c0.7,0.4,1.2-0.2,1.7-0.6c1-0.8,1.9-1.7,2.9-2.5c0.9-0.8,1.9-1.5,3.6-1.9c-2.1,1.6-4.1,2.8-5.5,4.7c-0.8,1-0.6,2-0.3,3
				c0.1,0.2,0.1,0.6,0.4,0.6c0.4,0,0.5-0.4,0.6-0.6c0.5-2.3,2.5-3.2,3.9-4.7c0.2-0.2,0.5-0.5,0.8-0.3c0.6,0.4,0.9,0,1.3-0.4
				c0.8-1.1,2-1.7,3.3-1.9c3.4-0.3,6.7-0.9,10,0.6c6.3,2.8,9.2,7.9,7.7,14.7c-0.7,3.3-2.4,6.1-5.3,7.8c-1.2,0.7-2.6,1.9-4.1,0.3
				c-0.2-0.2-0.5-0.2-0.7,0.1c-0.6,1.2-0.8,1.2-2.1,1c-3.1-0.4-4.2-3.7-6.8-4.8c-0.1,0-0.1-0.3-0.2-0.4c-0.9-2.3-0.1-5.1,1.8-6.8
				c1.2-1.1,4.5-1.1,6.2-0.1c0.3,0.2,0.7,0.7,1.1,0.2c0.3-0.4-0.1-0.8-0.4-1.1c-0.8-0.9-1.9-1.2-3-1.8c1.6-0.5,2.5,0.9,3.9,1.2
				c-1.1-2.5-5.6-3.8-8-2.2c-5.6,3.6-7.2,8.2-3.5,14.4c2.7,4.5,7.3,5.8,12,6.7c0.4,0.1,0.7-0.1,1-0.2c2.7-1.5,5.5-2.8,8.1-4.5
				c0.5-0.3,0.7-0.7,1-1.1c1.1-2,1.8-4.2,3.9-5.5c0.9-0.6,1.3-1.9,0.7-2.7c-0.9-1.1-0.8-2.1-0.8-3.3c-0.1-1.5-0.1-3-0.6-4.4
				c-2.1-6.9-6.6-11.3-13.4-13.5c-0.9-0.3-2-0.3-2.6-1.3c-0.2-0.3-1.1-0.6-1,0.4c0,0.4-0.2,0.4-0.5,0.5
				C109.5,73.9,107.5,74.3,105.4,74.7z M71.8,15L71.8,15c-11.6,0-23.3,0-34.9,0c-4.3,0-4.3,0-6,3.9c-0.5,1.1-0.2,2.3-0.1,3.5
				c0.2,3.2,0.3,6.4,2.3,9.1c0.5,0.7,1.1,1,2,1c23.5,0,47,0.1,70.5,0.2c0.5,0,1,0,1.4-0.5c1.6-1.9,1.6-1.9,3.7-0.3
				c0.2,0.1,0.3,0.3,0.5,0.4c0.7,0.4,1.6,0.7,2,0c0.5-0.8-0.7-0.9-1.1-1.1c-3.3-2-4.1-5.2-2.2-8.5c0.4-0.8,1.2-1.5,0.8-2.5
				c-0.4-1.2-0.5-2.3-0.2-3.5c0.3-1.4-0.1-1.8-1.6-1.8C96.6,15.1,84.2,15,71.8,15z M121.7,138.1c-0.9-3.1-2.4-5.9-3.5-8.9
				c-0.9-2.5-2.1-4.8-4.7-6.1c-0.8-0.4-1.7-0.8-0.9-2c0.4-0.5-0.1-1-0.5-1.1c-0.7-0.3-0.6,0.4-0.8,0.8c-0.2,0.4-0.1,1.1-0.8,1.1
				c-0.6,0-0.7-0.6-1-0.9c-0.2-0.3-0.3-0.7-0.6-1c-0.8-0.8-1.9-1.4-2.8-0.8c-1.1,0.7-0.4,1.8,0.1,2.7c0.1,0.2,0.3,0.4,0.5,0.7
				c0.2,0.3,0.4,0.6,0.2,0.9c-0.2,0.3-0.6,0.2-0.9,0.1c-0.4,0-0.7-0.1-1.1-0.2c-0.9-0.2-1.9-0.4-2.3,0.7c-0.4,1-0.2,2,0.8,2.7
				c0.6,0.5,1.3,0.7,2,1c0.6,0.2,1.4,0.5,1,1.3c-0.4,0.8-1.1,1.1-2,0.7c-0.3-0.1-0.6-0.3-0.8-0.5c-1-0.8-1.4-0.3-1.4,0.8
				c0,1.7,0.1,3.4,0.1,5.1c0,1.4,0.7,2.1,2,2.1c1.1,0.1,2.2,0.3,3.1,1.1c0.4,0.4,1,0.9,1.5,0.4c0.4-0.5-0.1-1.1-0.4-1.6
				c-0.7-1.1-1.5-2.1-2.2-3.1c3.2,2.1,4.8,5.4,6.2,8.7c0.3,0.6,0.2,1.4-0.2,2c-0.4,0.6-0.4,1.2,0,1.8c0.7,0.8,0.7,1.8,0.7,2.7
				c0,1.4-0.1,2.8,0.3,4.1c1.5,5.9,2.2,11.8,2.6,17.8c0.1,1,0.3,2,1,2.8c0.5,0.5,1.1,0.8,1.7,0.6c0.8-0.2,0.4-1,0.5-1.5
				c0-0.5,0-1-0.1-1.4c-1-7.8-2.3-15.6-4.6-23.2c-0.2-0.6-0.6-1.2-0.3-1.9c0.7,0.1,0.8,0.6,0.9,1c2,6.9,3.6,13.8,4.4,20.9
				c0.8,6.8,1,13.6,2,20.4c0.3,1.9,0.4,4,2.1,5.6c0.4-2.1-0.5-4,0-6.1c0.5,0.7,0.4,1.4,1.1,1.9c-0.8-5.5,0.1-10.8-0.1-16.1
				c0.2,0,0.3,0,0.5,0c0,5.3,0,10.5,0,15.8c0.1,0,0.3,0,0.4,0c0.5-2.6,0.6-5.2,0.9-7.9c0.3,3.4-0.2,6.8,0,10.2
				c1.9-9.6,2.6-19.3,3.2-29.1c0,3.7,0,7.3,0,11c0.7-1.6,0.9-3.3,0.9-5c0.4-8.4,0.5-16.9-0.6-25.3c-0.4-2.9-0.7-5.8-1.9-8.6
				c-0.2-0.5-0.4-1.1-1.1-0.8c-0.5,0.2-0.9,0.6-0.8,1.2c0.1,0.6,0.2,1.2,0.3,1.7c0.2,1.4,0.9,2.6,1,4.1c-0.5-0.3-0.7-0.8-0.7-1.2
				c-0.2-3.6-3.4-5.7-4.6-8.8c-0.2-0.6-0.8-0.7-1.3-0.5c-0.6,0.2-0.5,0.8-0.4,1.2c0.2,0.8,0.6,1.5,0.8,2.2
				C121.5,136,122.2,136.9,121.7,138.1z M131.1,2.5c1.2,2.4,2.4,4.5,2.8,7c0.1,0.8,0.7,0.5,1,0.1c0.9-0.9,1.8-1.8,2.7-2.7
				c2.6-2.5,3.1-2.4,4.4,0.9c0.4,1.2,1,1.5,2.2,1.5c33.6,0,67.2-0.1,100.8,0.1c4.3,0,7-2.3,9.8-4.8c0.6-0.5,0.9-1.4,0.7-2
				c-0.2-0.7-1.1-0.3-1.7-0.3c-37.6,0.1-75.2,0.1-112.8,0.2C137.9,2.5,134.6,2.5,131.1,2.5z M126.8,2.5c-0.8,0-1.2,0-1.7,0
				C85.4,2.5,45.7,2.6,6,2.9c-0.6,0-1.2,0-1.8,0C3.1,3,2.6,3.5,3.1,4.7c0.5,1.2,1.3,2.2,2.5,2.9c2.5,1.5,5.2,2.1,8.2,2
				c19-0.5,38-0.2,57.1-0.5c14.2-0.2,28.4,0.1,42.6-0.4c1,0,1.6-0.2,2.1-1.2c0.9-1.8,1.6-1.8,3.1-0.6c0.5,0.4,0.9,0.7,1.3,1.2
				c1.3,1.3,2.7,2.7,4.2,4.2C124.8,8.8,124.6,5.6,126.8,2.5z M24.9,124.4c-1.4,1.3-2.1,5-1.2,6.5c0.6,1.1,1.3,1.1,2,0.1
				c0.5-0.6,0.9-1.2,0.7-2.2c-0.3-0.9,0.7-1.2,1.3-1.5c0.6-0.3,1.2-0.5,1.8,0c0.6,0.5,0.4,1.2,0.2,1.8c-0.3,1-0.7,1.9-0.6,3
				c0,0.5,0,1.1,0.8,1c1.4-0.2,1.4,0.6,1.1,1.5c-0.3,0.9-0.1,1.6,0.6,2.3c0.8,0.7,1.4,0.1,2-0.2c1.4-0.7,3-1.5,4.6-0.9
				c1.5,0.5,3.1,1.1,4.4,2.2c6.7,5.3,9.9,12.5,11.2,20.6c1,6.1,1.5,12.4,2.4,18.6c0.2,1.8,0.2,3.7,1.2,5.4c-0.2-4-0.5-8-0.7-11.9
				c0.6,3.3,0.9,6.6,1.3,9.8c0.6,4.2,1.8,8.2,4.1,11.8c0.3,0.4,0.5,1.2,1.1,0.8c0.5-0.3,0.1-0.9-0.1-1.3c-1.4-3.7-2.3-7.4-3-11.2
				c-0.1-0.5-0.3-1,0-1.7c0.1,0.4,0.2,0.7,0.2,0.9c0.8,3.8,1.6,7.6,3.4,11.1c0.4,0.8,0.8,1.5,1.4,2.2c0.4,0.5,0.8,0.4,1-0.3
				c0.1-0.5,0.1-1-0.2-1.4c-2-2.2-1.7-5.3-2.8-7.8c-1.2-2.8-0.3-6-1.7-8.7c-0.1-0.2-0.1-0.7,0.1-0.9c0.7-1.1,0.8-2.3,0.9-3.7
				c0.5,0.9-0.1,1.9,0.7,2.6c0.8-0.5,0.2-1.4,0.6-1.9c1.3-1.4,1.4-3,1.7-4.8c0.3-2.4,0.3-3.9-1.8-5.3c-0.4-0.2-0.7-0.4-0.8-0.9
				c-0.3-1.4-2.4-3-3.7-2.6c-0.6,0.2-0.6,0.1-0.7-0.3c-0.9-3.2-1.8-6.4-2.5-9c-0.2,1,2.2-0.3,2.1,1.4c-0.1,1.1-0.1,2.3,0.3,3.4
				c0.7-0.1,1-1,1.7-0.8c0.5,0.1,1.2-0.1,1.4,0.5c0.1,0.5-0.3,0.9-0.8,1c-0.8,0.1-1.7,0.7-1.7,1.1c0,0.8,1,1.3,1.7,1.8
				c0.5,0.3,1.1,0.3,1.6,0.1c1.3-0.5,1.8-0.4,1.4,1.2c-0.4,1.4,0.2,1.8,1.6,1.7c0.5,0,1.2-0.8,1.7,0.2c0.1,0.3,0.5-0.1,0.6-0.3
				c1-1.8,1.7-3.7,1.4-5.8c0-0.2-0.3-0.7-0.2-0.7c1.5-1.1,0.5-2.6,0.7-3.8c0.1-0.4-0.1-0.9-0.6-1c-0.6-0.1-1.1,0-1.5,0.4
				c-0.4,0.4-0.2,0.9,0.1,1.3c0.5,0.5,0.7,0.9,0.1,1.5c-0.4,0.4-0.4,1-0.3,1.5c0.1,0.4,0.2,0.9-0.3,1.1c-1.2,0.5-0.8,1.1-0.2,1.9
				c0.3,0.4,0.9,1.1,0.5,1.5c-0.5,0.5-1.1-0.2-1.7-0.4c-0.6-0.2-0.5-0.7-0.7-1.2c-0.2-0.6-0.6-1.2-1.4-0.9c-1.2,0.5-1.2-0.3-1.2-1.1
				c-0.1-1.2,0.1-2.5-1.9-3c1.6-0.4,1.3-1.2,1.4-2c0.1-1-0.4-2.2,0.6-3c0.9-0.7,1.1-1.5,0.3-2.7c0.8,0.4,1.1,1.2,1.7,0.9
				c0.7-0.3,0.4-1.1,0.4-1.8c0-1-0.5-1.5-1.5-1.2c-0.6,0.2-1.3,0.2-1.9,0.2c-0.4,0-0.9-0.1-1.1,0.5c-0.1,0.4,0.3,0.7,0.6,0.9
				c1.3,0.6,1.2,1.6,0.7,2.7c-0.2,0.4-0.3,1.1-0.9,0.9c-0.6-0.2-0.1-0.7,0.1-1.1c0.2-0.4,0.3-0.8-0.1-1.2c-0.2-0.2-0.5-0.5-0.9-0.3
				c-0.8,0.4-1.1,1.1-1.4,1.9c-0.2,0.6,0.2,0.9,0.5,1.4c0.6,1,2,0.7,2.6,1.8c-1.7,0.9-2.8-0.1-3.9-1.1c-0.8-0.7-0.6-1.7-0.2-2.5
				c0.6-1.4,0.3-2.7-0.3-4c-0.9-2.1-2.5-3.9-3.8-5.7c-0.5-0.7-1.3-1.3-2.2-0.6c-0.8,0.7-0.5,1.5,0,2.3c0.4,0.6,0.8,1.2,1.2,1.8
				c-2.1-2.2-4.4-4.1-6.3-6.4c0.7-0.5,1.6,0.7,2-0.5c0.3-1-0.3-1.6-0.8-2.3c-1-1.1-2.2-2-3.6-2.6c-2.5-1.2-5.2-2.2-7.7-3.4
				c3.3,0.7,6.4,1.7,9.2,3.6c0.4,0.3,0.8,0.9,1.3,0.2c0.4-0.6-0.1-1-0.5-1.4c-1.4-1.3-2.5-2.9-3.5-4.5c-1-1.7-2.4-3.3-4.8-3.1
				c-0.5,0.1-1.2,0.1-0.8,0.9c0.3,0.5,0.8,1.1,0.2,1.5c-0.6,0.4-1-0.4-1.4-0.8c-0.3-0.2-0.5-0.5-0.8-0.8c-1-0.9-2.1-1.6-3.3-0.2
				c-0.2,0.3-0.6,0.4-0.9,0.2c-1.5-1.3-2.9-0.1-4.4,0.1c-0.4,0-0.9,0-0.9,0.6c0,0.5,0.4,0.7,0.9,0.8c1,0.3,2.1,0.6,3.3,0.9
				c-0.8,1.6-2.8,2.3-3,4.5C25.6,125.4,25.3,125,24.9,124.4z M138.5,263c0,0,0.1,0,0.1,0c0-7.2,0-14.4,0-21.6c0-0.7,0-1.4-0.8-1.9
				c-3.1-2.1-6.3-2.9-9.6-0.5c-0.4,0.3-0.9,0.6-1.4,0.8c-0.9,0.4-1.1,1.1-1.1,2.1c-0.2,14.2-0.4,28.4-0.4,42.6
				c0,1.5,0.6,1.8,1.8,1.8c3.2,0,6.4,0,9.6,0.1c1.3,0,1.7-0.4,1.7-1.7C138.4,277.4,138.5,270.2,138.5,263z M131.4,98.8
				c-0.4,0.6-0.6,0.9-0.8,1.3c-2.3,4.9-6.2,8.3-11.2,10.2c-3.6,1.3-7.2,0.9-10.6-0.6c-3.9-1.7-6.4-5-8.5-8.6c-0.2-0.4-0.4-1-1-0.9
				c-0.6,0.1-0.5,0.7-0.7,1.2c-1.9,7.3,2.1,12.8,7.4,15.8c0.8,0.5,1.7,0.9,2.7,0.9c2.7,0.2,5.3,0.2,8,0.4c3.1,0.2,6.3-0.6,9.4,0.1
				c1.5,0.3,3.1,0.4,4.6,0.2c3.4-0.5,6.7-0.3,10.1-0.2c2.7,0.1,5.5,0,8.1-0.5c1.1-0.2,2.3-0.3,3.3,0.2c1.6,0.8,2.6,0.2,3.8-0.7
				c0.4-0.3,0.9-0.6,1.3-1c3.4-2.9,4.4-6.7,4.2-11c0-0.5,0-1.3-0.7-1.5c-0.6-0.1-0.9,0.5-1.2,0.9c-1.6,1.4-2.9,3.3-4.8,4.1
				c-6.7,2.9-14.2,2.2-19.7-4.2C133.4,103,132.4,101.1,131.4,98.8z M120.5,263.4c-0.1,0-0.2,0-0.3,0c0-7.1,0-14.2,0-21.3
				c0-0.5,0.1-1-0.3-1.5c-2.1-2.3-4.4-3.8-7.7-3c-2.6,0.6-3.8,1.9-3.8,4.5c0,4.1,0,8.1,0,12.2c0,10.1,0,20.2,0,30.3
				c0,1.3,0.4,1.8,1.7,1.7c2.9-0.1,5.9-0.1,8.8,0c1.4,0.1,1.7-0.5,1.7-1.7C120.5,277.5,120.5,270.5,120.5,263.4z M144,261.7
				c0,8.3,0,15.3,0,22.3c0,1.6,0.6,2.2,2.2,2.2c2.3,0,4.6-0.1,6.9,0c1.4,0,1.9-0.5,1.9-2c0.2-11.7,0.4-23.4,0.7-35.1
				c0-2.3,0.1-4.6,0.5-6.9c0.2-1.2-0.2-2.2-1.3-3.1c-2.7-2.3-5.3-2.8-8.3-0.5c-1.4,1-2.2,1.9-2.2,3.7
				C144.2,249.3,143.9,256.2,144,261.7z M160,263.8c0,6.9,0,13.9,0,20.8c0,1.2,0.4,1.6,1.5,1.6c1.9,0,3.8,0,5.8,0
				c3.5,0,3.5,0,3.6-3.5c0.4-14.1,0.3-28.2,1-42.3c0.1-2.3-2.1-3.7-4.4-3c-2,0.6-3.4,2.1-5.3,2.8c-1.4,0.4-1.9,1.4-1.9,2.8
				C160.3,250,159.7,256.9,160,263.8z M93,262.3c0.1,0,0.3,0,0.4,0c0,7.3,0,14.6,0,21.9c0,1.6,0.6,2.1,2.1,2.1c2.3,0,4.6-0.1,6.9,0
				c1.2,0,1.7-0.3,1.6-1.6c-0.5-14-0.1-28-0.6-42c-0.1-2.1-0.6-2.6-2.7-2.5c-0.9,0-1.6-0.2-2-1.1c-0.4-1.1-0.9-2.1-2.4-1.8
				c-2.2,0.5-3.2,1.5-3.2,3.3C93,247.8,93,255,93,262.3z M192.8,286.3C192.8,286.2,192.8,286.2,192.8,286.3c1-0.1,1.9-0.1,2.9-0.1
				c2.6-0.1,2.6-0.1,2.7-2.7c0.3-12.2,0.5-24.4,0.7-36.5c0-1.3,0.2-2.6,0.6-3.9c0.3-0.9,1-2,0-2.6c-1.2-0.7-2.8-1.7-4-1
				c-1.6,0.9-3.3,1.1-5,1.5c-1,0.2-1.3,0.8-1.5,1.6c-0.3,2.3-0.6,4.5-0.7,6.8c-0.5,10.1-0.1,20.3-0.6,30.4c-0.1,1.6-0.6,3.2-0.5,4.9
				c0.1,1.1,0.4,1.8,1.7,1.6C190.4,286.2,191.6,286.3,192.8,286.3z M76.2,263.7c-0.3,0-0.5,0-0.8,0c0-7,0-14,0-21
				c0-1-0.2-1.9-1.2-2.1c-1.6-0.2-2.9-0.9-4.3-1.5c-1-0.4-2-0.3-3-0.1c-1,0.1-1.5,0.6-1.4,1.7c0.2,1.8,0.3,3.6,0.3,5.4
				c0.1,11,0.2,22,0.4,33c0,1.8,0.2,3.5,0.3,5.3c0.1,1.3,0.7,2,2.1,2c2.1-0.1,4.2-0.1,6.2-0.1c1.1,0,1.4-0.3,1.4-1.4
				C76.1,277.8,76.2,270.8,76.2,263.7z M89.5,263.7c-0.2,0-0.4,0-0.6,0c0-1.4,0-2.9,0-4.3c-0.1-5.7-0.2-11.4-0.4-17.1
				c0-0.9,0.1-2-1.4-1.8c-1.4,0.2-2.3-0.3-3.2-1.3c-0.4-0.5-1-1-1.5-1.4c-0.9-0.8-1.8-0.3-2.6,0.2c-0.8,0.4-1.2,1.3-0.8,2
				c0.8,1.6,0.5,3.2,0.5,4.9c0.1,13.2,0.1,26.4,0.1,39.6c0,1.6,0.5,2,2,1.9c2.1-0.1,4.3-0.1,6.4,0c1.2,0,1.6-0.2,1.5-1.5
				C89.4,277.8,89.5,270.7,89.5,263.7z M163.2,215.1c-0.2,1.4-0.4,2.7-0.5,4.1c-0.4,3.7-0.9,7.4-0.8,11.2c0,1.1,0.2,1.8,1.5,1.7
				c0.5,0,1.1,0,1.6,0c1,0.1,1.3-0.4,1.4-1.3c0.2-2.6,0.4-5.1,0.7-7.7c0.8-6.6,1.2-13.4,4.3-19.6c0.2-0.4,0.4-0.8,0-1.2
				c-0.3-0.3-0.7-0.1-1,0.1c-1.9,1-4.1,1.7-4.9,4.1c-0.1,0.3-0.3,0.7-0.6,0.7c-0.4,0-0.5-0.5-0.6-0.8c-0.1-0.3-0.3-0.6-0.3-0.9
				c-0.1-1.3-0.8-1.9-2.1-1.8c-0.8,0.1-1-0.4-0.9-1.1c0.2-1.3-0.2-2.2-1.5-2.7c-1.3-0.5-2.4-0.1-3.3,0.9c-0.8,0.8-1.2,1.9-1.6,2.9
				c-2.8,8.2-4.2,16.7-4.4,25.4c-0.1,3.3-0.7,3,2.9,3c1.5,0,3.4,0.7,3.3-2.1c0.5,0.5,0.2,1.2,1,1.3c0.6-2.2,0.5-4.6,1.1-6.8
				c0.3,1.4,0.2,2.8,0.3,4.2c0,0.5,0.1,1.1,0.7,1c0.5,0,0.5-0.6,0.6-1c0.2-1.8,0.3-3.6,0.6-5.4C161.1,220.5,161.3,217.6,163.2,215.1
				z M172.9,105.3c3.4-6.5,3.1-13.6,3.2-20.7c1.1,9.1,0.4,18-4.6,26.2c0.9-0.1,1.1-0.5,1.3-0.8c1-2,2.1-4.1,3-6.2
				c2.2-5.8,2.9-11.9,3.2-18c0-0.9-0.4-1.4-1-1.8c-1-0.7-1.1-1.6-0.5-2.6c0.5-0.8,1.2-1.6,1.2-2.6c0-0.6-0.1-1.5-1-1
				c-1.7,1.1-1.7-0.1-1.8-1.3c0-0.4,0-0.7-0.1-1.1c-0.1-0.7,0.2-1.7-1-1.8c-1.1-0.1-1.2,0.8-1.5,1.6c-0.1,0.3,0,0.6-0.1,0.9
				c-0.2,0.6-0.1,1.5-0.9,1.7c-0.8,0.2-0.8-0.7-1.1-1.1c-0.3-0.3-0.5-0.7-1-0.6c-0.4,0.1-0.6,0.5-0.8,0.9c-0.5,1,0,1.9,0.3,2.8
				c0.2,0.7,1,1.6,0.1,2.1c-0.8,0.5-1-0.7-1.5-1.1c-0.2-0.1-0.3-0.3-0.5-0.5c-1-0.8-1.6-0.6-1.8,0.6c-0.3,1.6-0.2,3.1,0.9,4.4
				c0.6,0.7,1.3,1.3,1.5,2.2c0.1,0.4,0.1,0.8-0.3,1c-0.4,0.3-0.7-0.1-1-0.3c-0.5-0.5-1-1.1-1.5-1.6c-0.6-0.6-1.1-0.5-1.4,0.4
				c-0.5,1.1-0.2,2.2,0.3,3.2c0.5,1,0.9,2,1.3,3.1c0.1,0.3,0.2,0.8-0.3,0.9c-0.4,0.1-0.6-0.2-0.7-0.5c-0.3-0.5-0.6-1-1-1.4
				c-0.5-0.5-1.2-1-1.9-0.6c-0.7,0.3-0.4,1.1-0.3,1.7c0.2,1.4,0.6,3.1,0,4.1c-1.1,1.7-0.6,3.1,0,4.6c2,5.1,0.6,9.6-2.6,13.7
				c-0.5,0.7-1.3,1.2-1.4,2.5c2.5-1.4,4-3.5,5.3-5.5c1.3-2,1.8-4.5,2.9-7.1c-0.4,5.3-3.3,8.9-6,12.5c8.1-5.4,10.2-13.1,8.6-22.2
				c2.2,5.8,0.1,11.2-1.2,16.7c4.9-6.4,4.7-13.8,4.2-21.3c1.8,6.9,0.4,13.5-1.5,20.1c1.9-2.8,1.7-6.1,2.7-9.1c1-3,1.3-6.2,1.3-9.5
				c0-3.2-0.6-6.3-0.3-9.5C174.7,90.7,174.7,98,172.9,105.3z M175.7,263.9c0,6.8,0,13.6,0,20.3c0,1.5,0.6,2.1,2.1,2.1
				c1.3,0,2.6,0,3.8,0c2.1,0,2.1-0.1,2.1-2.2c0.4-11.2,0.2-22.3,0.5-33.5c0.1-3.3-0.4-6.7,1-9.9c0.6-1.4-0.7-2.2-1.8-2.8
				c-1-0.6-1.5,0.4-1.8,1c-0.7,1.2-1.6,1.6-3,1.7c-2.3,0.1-2.8,0.7-2.9,2.9C175.2,250.3,175.6,257.1,175.7,263.9z M202.4,83.4
				c-0.4,2.4-1.1,4.4-2.3,6.2c-2.7,4.3-6,8.2-9.4,12c-3.5,3.9-5.2,8.6-6.4,13.6c-0.1,0.6-0.2,1.3,0.5,1.5c0.8,0.2,0.7-0.6,0.8-1.1
				c1.2-5.6,3.9-10.3,7.8-14.5c4.1-4.4,8.4-8.7,11.3-14.1c0.3-0.6,0.7-1.2,1.3-1.6c0.2,0.3,0,0.5-0.2,0.7c-1.5,2.7-3.1,5.4-5.2,7.7
				c-2.5,2.8-5,5.7-7.6,8.5c-3.2,3.4-5,7.5-6.4,11.9c-0.2,0.6-0.2,1.3-0.2,1.9c0,0.4,0.1,0.8,0.6,0.8c0.4,0,0.7-0.2,0.8-0.6
				c0.2-0.9,0.3-1.8,0.6-2.6c2.1-6.6,6.4-11.6,11.8-15.7c0,0,0.2,0.1,0.3,0.1c-1.8,2-3.6,3.9-5.5,5.8c-2.8,2.9-4.6,6.3-5.6,10.1
				c-0.3,0.9-0.8,2.3,0,2.6c0.9,0.3,1.1-1.2,1.4-2c2.1-5,5.2-9.1,9.9-11.9c-1.2,1.5-2.7,2.7-4,4c-2.4,2.5-4.3,5.3-5.2,8.7
				c-0.1,0.5-0.3,1.1,0.4,1.4c0.8,0.3,1-0.3,1.1-0.9c0.5-1.9,1.4-3.4,2.7-4.9c1.8-2,3.7-3.9,5.7-5.6c1.7-1.5,3.4-3,4.5-5
				c0.3-0.5,0.5-1.2,0.2-1.7c-0.3-0.6-0.9-0.3-1.5-0.1c-0.4,0.1-0.8,0.3-1-0.1c-0.2-0.5,0.2-0.7,0.5-0.8c1-0.6,2.2-1.2,3.2-1.9
				c1.1-0.8,1-1.4-0.2-1.9c-0.3-0.2-1,0-1-0.6c0-0.6,0.6-0.7,1-0.9c1.1-0.5,2.2-0.9,3.2-1.5c0.8-0.4,1.4-1.2,0.5-1.9
				c-1.2-0.9-0.7-1.5,0-2.3c0.7-0.8,0.7-1.1-0.5-1.5c-2.1-0.7-4.3-1.5-5.2-3.8c-0.1-0.2-0.3-0.5-0.4-0.7c-1-1.3-2.5-1.9-4.1-1.8
				c-1.5,0.2-1.4,1.7-1.6,2.8c-1.5,6-4.4,11.4-8.1,16.4c-2.3,3-4.7,5.9-6.2,9.5c-0.9,2.1-1.9,4.1-1.9,6.5c0.3-0.1,0.4-0.1,0.4-0.2
				c0.2-0.4,0.4-0.8,0.5-1.2c1.4-5.6,4.7-10,8.5-14.1c4-4.3,7.6-8.8,9.6-14.4C201.9,84,202,83.8,202.4,83.4z M89.7,211.2
				c-0.8-2.3-1.5-4.8-2.5-7.2c-0.7-1.6-1.9-2.7-3.6-3.2c-1.1-0.3-1.8,0.3-1.6,1.4c0.1,0.4,0.2,0.8,0.3,1.2c0.1,0.4,0.5,1,0,1.3
				c-0.6,0.3-1.1,0-1.4-0.6c-0.3-0.5-0.6-1.4-1.3-1.1c-0.5,0.2-0.2,1-0.1,1.6c0,0.1,0.1,0.2,0.1,0.3c0.1,0.5-0.1,0.9-0.5,1.1
				c-0.5,0.2-0.6-0.3-0.8-0.5c-0.4-0.4-0.7-0.8-1-1.2c-0.6-0.7-1.5-1.1-2.3-0.6c-0.8,0.5-0.3,1.3-0.1,2c0.8,3.1,1.9,6.2,2.4,9.4
				c0.7,5,0.6,10,0.8,15c0,1.4,0.6,1.8,1.9,1.8c1.3,0,1.7-0.5,1.7-1.6c0-0.6,0.1-1.2,0.2-2.3c0.4,1.5,0,2.6,0.7,3.7
				c0.4-0.7,0.1-1.5,0.7-2c0.2,0.6,0.3,1.1,0.4,1.6c0.1,0.4,0.4,0.8,0.8,0.3c0.8-0.9,1.9-1.5,1.8-3c-0.1-2.1,0-4.3,0-6.4
				c0.3,2.8,0.4,5.6,0.6,8.5c0.1,0.9,0.3,1.3,1.2,1.2c0.3,0,0.6,0,1,0c1.5,0.2,2.2-0.4,2-1.9c-0.1-1.1,0-2.2,0-3.3
				c0.4,1.5,0.3,3,0.9,4.5c0-5.6-0.4-11.2-0.8-16.8c-0.1-1.6-0.6-3.1-1.5-4.9C89.7,210.3,89.7,210.8,89.7,211.2z M87.9,71.9
				c0.5-0.7,0.3-1.3,0.2-1.8c-0.2-2-0.9-4-0.8-6.1c0-2.1,0-4.4-1.9-6.1c-0.5-0.5-1.6-0.7-1.3-1.6c0.3-1,1.4-0.7,2.2-0.8
				c0.3,0,0.5,0,0.8,0c0.6,0,0.8-0.3,0.8-0.9c-0.1-2-1.1-3.2-3-3.6c-0.9-0.2-2-0.1-1.9-1.4c0-1.3,0.9-2,2.2-2.1
				c1.4-0.1,3-0.3,4.3,0.3c1.6,0.8,2.8,0.4,4-0.4c1.6-1,2.8-0.5,4,0.7c0.9,0.9,1.8,1.7,2.9,2.2c0.2,0.1,0.5,0.2,0.7,0
				c0.2-0.2,0.2-0.4,0.1-0.5c-1-0.7-0.4-1.5-0.3-2.3c0.4-2.8,0.2-5.4-1.5-7.8c-1.6-2.2-5.3-2.7-7.2-1.1c-1.2,1-1,2.5,0.3,3.3
				c1.3,0.7,2.5,0.3,3.3-1.2c0.2-0.5,0.3-1.2,1-1c0.6,0.1,0.9,0.7,1.1,1.3c0.3,0.9-0.2,1.5-0.6,2.2c-1.2,1.9-5.8,1.8-7.4-0.4
				c-1.3-1.8-0.9-3.4-0.1-5.1c0.5-1,0.4-1.6-0.9-1.6C80.1,36.5,71.2,36,62.4,36c-0.5,0-1-0.2-1.4,0.4c0.1,0.1,0.2,0.3,0.2,0.3
				c0.6,0.3,1.2,0.6,1.9,0.9c4.5,2,9.1,4.1,12.2,7.9c5.7,7,10.1,14.7,11.8,23.7C87.3,70,87.2,71,87.9,71.9z M209.2,43.1
				c-1.8,0.5-3.7-0.1-5.4,0.7c2.2,0.8,4.7,0.2,6.5,2.1c-1.1,0-2.1-0.5-3.2-0.7c-4.6-0.6-8.5,0.9-12.4,3.1
				c-6.8,3.9-10.2,9.9-11.8,17.2c-0.1,0.6-0.3,1.3,0,2.1c0.8-1.1,0.9-2.2,1.2-3.2c2-7.8,6.6-13.5,14-16.9c1.7-0.8,3.4-1,5.3-1.1
				c2.6-0.2,4.9-0.1,6.8,1.8c0.4,0.4,0.9,0.8,1.3,1.1c0.7,0.6,1.1,0.3,1.1-0.5c0-0.8,0.1-1.5,1.1-1.7c0.6-0.2,1.4-0.2,1.3-1.1
				c-0.1-0.8-0.6-1.4-1.4-1.6c-0.4-0.1-0.8-0.2-1.2-0.3c-0.4-0.1-0.8-0.2-0.7-0.7c0.1-0.4,0.5-0.5,0.9-0.6c1-0.2,1.9,0.3,2.7,0.8
				c1,0.5,1.8,1.3,3.1,1.2c1.4-0.1,1.8-0.7,1.1-1.9c-0.5-1-1.3-1.8-2.4-2c-1.1-0.2-1.8-0.7-2.1-1.9c-0.2-0.9-2.9-1.8-3.2-1.2
				c-0.7,1.3-1.6,0.7-2.5,0.6c-3.2-0.2-6.5-0.6-9.7,0.2c-4,1.1-7.7,3.1-11.3,5.2c-1.4,0.8-2.7,1.9-3.7,3.3c-3.8,5.6-7,11.4-8.5,18.1
				c-0.1,0.4,0,1.1-0.9,1.1c-0.3-1.2,0.4-2.3,0.3-3.8c-1.1,2.9-1.7,6.7-1.3,8.3c0.8-0.9,0.2-2.4,1.3-3.4c0.3,2-0.9,4.4,1.8,5.3
				c0.7-1.6,0.1-3.4,1-5.1c0.4,0.8,0.3,1.6,0.4,2.4c0,0.4-0.2,1.1,0.5,1.2c0.6,0,0.7-0.6,0.8-1.1c0.3-1.2,0.7-2.4,0.7-3.6
				c0.1-2,2.1-3.5,1.5-5.6c2-5,4.2-9.8,8.6-13.2C196.2,43.8,202.3,42.1,209.2,43.1z M53,120.7c0-0.8,0.4-1,0.7-1.4
				c0.4-0.6,0.1-1-0.5-1c-1.8-0.1-3.6-0.4-5.4,0c-0.4,0.1-0.9,0.3-0.7,0.7c0.9,1.7-0.7,1.7-1.5,2.3c-0.6,0.5-1.8,0.5-1.6,1.7
				c0.2,0.8,2.1,1.6,3,1.3c0.5-0.2,1-0.5,1.5-0.8c0.4-0.2,0.7-0.5,1.1-0.7c0.6-0.2,1.3-0.4,1.6,0.4c0.4,0.8-0.3,1-0.8,1.3
				c-0.8,0.4-1.7,0.7-2.4,1.3c-1,0.8-0.9,1.9,0,2.4c1.1,0.6,1.4,1.3,0.9,2.6c-0.3,0.7-0.7,1.5,0,2.2c0.7,0.6,1.4,0,2-0.3
				c2.5-1.2,2.5-1.3,3,1.6c0.2,1.1,0.8,1.9,1.8,2.3c0.9,0.4,1.4-0.4,2.1-0.9c0.9-0.6,1-1.6,0.9-2.6c0-0.5-0.4-1.3,0.3-1.6
				c0.5-0.2,0.8,0.5,1.2,0.8c0.9,0.7,1.7,2.2,2.9,1.4c1.2-0.7,0.2-2,0-3.1c-0.1-0.7-0.7-1.5,0.1-2c0.7-0.5,1,0.5,1.6,0.7
				c0.2,0.1,0.4,0.3,0.6,0.5c0.7,0.4,1.3,1.2,2.1,0.6c0.9-0.6,0.3-1.5,0-2.2c-0.5-1.3-1-2.6-1.5-3.9c-0.2-0.5-0.1-1.1,0.5-1.4
				c0.5-0.3,0.9,0.1,1.2,0.4c0.5,0.6,0.9,1.2,1.4,1.7c0.5,0.6,1.2,1,2,0.6c0.9-0.4,0.8-1.2,0.6-1.9c-0.1-0.6-0.4-1.2-0.5-1.9
				c-0.1-0.5,0.2-1,0.7-1.1c0.6-0.2,0.7,0.4,0.9,0.7c0.3,0.6,0.6,1.2,1,1.8c0.2,0.3,0.5,0.6,0.9,0.4c0.3-0.2,0.4-0.5,0.4-0.8
				c0-0.9-0.1-1.7-0.1-2.6c0-0.5-0.3-1.2,0.2-1.5c0.6-0.3,0.9,0.4,1.2,0.7c0.2,0.2,0.5,0.5,0.8,0.3c0.5-0.5,1-1,1-1.8
				c0-0.5-0.4-0.6-0.8-0.6c-2-0.2-4-0.2-5.4,1.5c-0.9,1-1.8,2.1-2.9,3.4c0.1-1.6,1.2-2.3,1.6-3.3c0.2-0.4,0.6-0.8,0.2-1.3
				c-0.3-0.4-0.8-0.4-1.2-0.3c-3,0.7-5.8,1.7-7.6,4.5c-0.4,0.5-0.7,1.1-1.8,1.2c1.1-2,2.6-3.2,3.8-4.6c0.2-0.3,0.7-0.5,0.5-0.9
				c-0.2-0.5-0.7-0.4-1.1-0.3c-2.6,0.4-4.6,1.6-6.2,3.6c-0.5,0.6-0.9,1.4-1.9,1.7c0-1.1,0.9-1.7,1.3-2.4c0.3-0.5,1-1.1,0.6-1.5
				c-0.5-0.6-1.2,0-1.7,0.3C55,119.6,54.1,120.1,53,120.7z M120.8,121.5c-0.1-0.1-0.1-0.2-0.2-0.2c0.4-0.3,0.8-0.7,1.2-1
				c0.2-0.2,0.4-0.4,0.2-0.7c-0.1-0.1-0.4-0.2-0.5-0.2c-2.1,0.1-4.3,0.1-6.4,0.3c-0.9,0.1-1,1-1.2,1.7c-0.2,0.7,0.6,0.8,1.1,0.8
				c1.6-0.1,2,0.5,1.5,2c-0.3,1,0.2,1.8,1.5,1.6c0.6-0.1,1.2-0.1,1.7-0.3c0.5-0.2,1,0,1.2,0.5c0.3,0.6-0.2,0.7-0.6,0.8
				c-0.7,0.3-1,0.7-1,1.5c0.1,1.8,1,2.2,3,1.4c0.8-0.3,1.9-1.4,2.6-0.6c0.6,0.8-0.7,1.5-1.2,2.1c-0.7,0.8-0.8,1.6,0,2.4
				c0.8,0.9,1.5,0.3,2.2-0.2c0.7-0.5,1.1-1.3,1.6-2c0.3-0.5,0.7-0.9,1.3-0.7c0.7,0.2,0.5,0.8,0.4,1.4c-0.1,0.6-0.2,1.3-0.2,1.9
				c-0.1,1.4,1.2,1.7,2.1,2.1c0.9,0.4,1.6-0.4,2.1-1c0.5-0.6,0.1-1.4,0.2-2.2c0.1-1-0.1-2.3,1.1-2.6c1.3-0.3,1.3,1.2,1.6,2
				c0.4,1,0.8,2.1,2.1,1.6c1.1-0.4,1-1.6,0.6-2.6c-0.3-0.7-0.6-1.4-0.9-2c-0.2-0.6,0-1.1,0.5-1.3c0.6-0.3,0.9,0.2,1.1,0.6
				c0.1,0.2,0.2,0.5,0.3,0.7c0.3,0.5,0.7,1,1.4,0.8c0.7-0.2,0.8-0.8,0.9-1.4c0-0.8-0.4-1.4-0.9-2c-0.4-0.4-0.8-0.7-0.3-1.3
				c0.5-0.6,0.9-0.8,1.6-0.4c0.4,0.2,0.9,0.4,1.3,0.6c0.5,0.2,1.1,0.4,1.5,0c0.5-0.4,0.2-1-0.1-1.5c-0.6-1.2-0.1-1.7,1-1.8
				c0.3,0,0.6-0.1,0.9-0.2c0.4-0.2,1-0.4,0.8-1c-0.1-0.5-0.4-1-1-1.1c-0.3-0.1-0.6,0-1,0c-3.1-0.3-6.2,0.4-9.3-0.2
				c-1.2-0.3-2.7,0.1-4.1,0.3c-1.7,0.2-3.3,0.5-4.9,0.1c-1.9-0.5-3.6-0.1-5.2,0.8C121.9,121,121.3,121.3,120.8,121.5z M186.5,118.3
				c-0.4-0.1-0.8-0.1-1.3-0.2c-0.4,0-0.7,0.3-0.5,0.6c1,0.9,1.2,2.6,2.8,2.9c1,0.2,1.1,0.6,1,1.4c0,1,0.1,2,1.5,1.8
				c0.4,0,0.7,0.2,0.7,0.7c0.1,0.7-0.3,2,0.7,1.9c0.9-0.1,0.4-1.3,0.5-2.1c0-0.1,0-0.2,0-0.3c0-1.1,0.6-1.1,1.4-0.7
				c0.6,0.2,0.6,0.7,0.6,1.2c0,1.3-0.1,2.6-0.3,3.8c-0.1,0.6,0.1,1.3,0.7,1.5c0.7,0.2,0.5-0.6,0.8-1c0.2-0.3,0.4-0.7,0.9-0.6
				c0.4,0.1,0.6,0.5,0.5,0.9c0,0.5-0.1,0.9-0.2,1.4c-0.2,1-0.1,2,0.5,2.9c0.6,0.8,1.3,0.7,1.7-0.2c0.3-0.6,0.4-1.3,0.5-2
				c0.1-0.3,0.2-0.7,0.5-0.7c0.4-0.1,0.7,0.2,0.8,0.6c0.3,0.8,0.5,1.8,1,2.5c0.6,0.8,1,2.3,2.2,2.1c1.2-0.2,1.2-1.7,1.5-2.8
				c0.2-0.7-0.2-1.8,0.7-2.1c0.8-0.3,1.3,0.8,1.9,1.3c0.5,0.4,1,1.2,1.7,0.8c0.6-0.4,0.3-1.3,0.1-2c-0.1-0.6-0.5-1.1-0.8-1.6
				c-0.2-0.4-0.6-0.8-0.8-1.2c-0.3-0.5-0.3-0.9,0.1-1.3c0.5-0.4,0.8,0,1.1,0.3c0.4,0.4,0.7,0.8,1,1.2c0.4,0.5,0.8,1.2,1.5,0.9
				c0.7-0.3,0.5-1.1,0.5-1.7c0.1-2-1.2-3.1-2.5-4.2c-0.7-0.6-0.5-1.2-0.2-1.8c0.4-0.7,1-0.5,1.5-0.3c0.5,0.2,1,0.5,1.5,0.7
				c1.3,0.5,1.8,0.1,1.6-1.3c-0.2-1.2-0.7-2.2-2.1-2.5c-1.3-0.2-2.6-0.9-3.9-0.8c-5,0.3-10.1-0.3-15.1,0.1
				C190.8,118.6,188.7,118.5,186.5,118.3z M195.7,37.2c-1.2-0.4-2-0.3-2.8-0.3c-7.5,0-15,0-22.4,0c-2.4,0-2.5,0.1-1.7,2.3
				c1.4,3.8-2.4,6.8-5.4,6.3c-1.9-0.4-3.4-2.1-3.1-3.8c0.2-0.9,0.7-1.7,1.6-1.7c1,0,0.8,0.9,0.9,1.6c0.1,1.5,1.2,1.2,2,1.1
				c0.9-0.2,1.5-0.8,1.2-1.9c-0.6-2.1-2.2-3-4.3-2.3c-4.2,1.3-6.6,7.9-4.3,11.7c0.3,0.5,0.6,0.7,1.1,0.1c0.2-0.3,0.5-0.7,0.7-1.1
				c1.4-2.4,1.4-2.4,4.1-1.8c0.4,0.1,0.7,0.1,1.1,0.2c1.2,0.4,2.2,0.1,3.2-0.7c1.6-1.3,3.6-1.6,5.6-1.4c1.4,0.1,2.3,1.1,2.8,2.3
				c0.3,0.6,0.2,1.4-0.6,1.2c-2.1-0.5-2.8,1-3.5,2.4c-0.8,1.5-0.6,1.8,1.2,1.8c1.1,0,2.2-0.2,3.1,0.9c0.6,0.7,1,0.3,1.4-0.3
				c0.7-1.1,1.4-2.1,2-3.3c3-5.3,7.2-9.2,12.8-11.7C193.3,38.4,194.3,37.9,195.7,37.2z M156.5,74.5c0,0.1-0.1,0.1-0.1,0.2
				c-0.5-0.1-1-0.3-1.5-0.4c-4.1-0.6-8.3-0.9-12.2,1c-1.8,0.9-3.2,2.3-4.6,3.7c-5.8,5.8-6.6,16.8-1.5,23.3c3,3.8,6.7,6.2,11.9,5.4
				c5.4-0.8,9.7-4.5,10.8-9.4c0.9-4.2-1.3-10.3-7-11.7c-3.1-0.7-6.5,1-7.1,4.1c-0.1,0.7-0.4,1.8,0.3,2c0.7,0.2,0.9-0.8,1.2-1.4
				c0-0.1,0-0.2-0.1-0.3c-0.4-0.2-0.7,0.4-1,0c-0.2-0.4,0.2-0.7,0.4-1c1.4-1.9,6.6-3,9.2-0.8c2.4,2,3.2,4.3,2.7,7.2
				c-0.3,1.7-0.2,3.6-2,5.3c1.9-4.6,2.7-8.8-1.5-12.1c-1.8-1.4-3.7-1.5-4.9-0.5c0.1,0.1,0.2,0.3,0.4,0.3c0.5,0.1,0.9,0.1,1.4,0.2
				c2.9,0.4,5,2.9,4.8,5.9c-0.2,3.6-2.5,6.6-5.8,7.7c-3.7,1.2-8.1-0.1-10.5-2.9c-5.1-5.7-3.6-16,2.7-21c1.2-1,2.6-1.7,4.2-1.7
				c2-0.1,4,0,5.9,0.3c3.5,0.7,6.2,2.7,8.7,5.1c0.5,0.5,1,1.2,1.9,1.2c-2.3-4.4-6.1-7.3-10.8-8.2c-8.9-1.6-14.1,3.1-17.1,11.3
				c-0.4-0.7-0.2-1.2-0.1-1.7c2.3-7.6,9.8-11.9,17.5-10.3c3.9,0.8,6.7,3.4,9.5,5.9c0.6,0.5,1.1,1.3,2.2,1.5c-0.5-3.7-3.6-5-5.9-7
				c1.7,0.2,2.9,1.3,4.6,1.6c-0.3-0.6,0.2-1.5-0.8-1.3c-1,0.2-1.6-0.3-1.9-0.8c-1-1.6-2.8-1.6-4.2-2.3c-0.3-0.1-0.7-0.3-0.9,0
				c-0.3,0.4,0.1,0.7,0.4,0.9C156.1,74.2,156.3,74.4,156.5,74.5z M102.1,36.3c-0.9,0-1.7-0.2-2,0.4c-0.3,0.6,0.4,1,0.8,1.4
				c2.5,3.3,3.4,7,2,11c-0.6,1.5,0,2.3,1.3,2.9c0.5,0.2,1,0.4,1.5,0.6c1.4,0.6,2.1,1.6,2.1,3.1c0,1.2-0.5,1.8-1.7,1.2
				c-1.2-0.6-2.3-0.4-3.5,0.1c-1.4,0.6-2.7,1.2-4.2,1.4c-0.4,0.1-1.2,0.1-1.1,0.6c0,0.6,0.8,0.6,1.3,0.6c1.8-0.2,3.3,0.3,4.9,1.2
				c1.6,0.9,2,1.7,1.5,3.5c-0.3,1-0.7,1.4-1.7,0.7c-0.8-0.6-1.6-1.2-2.6-0.9c-1.6,0.4-3,1.1-4.3,2c-0.4,0.3-0.7,0.5-0.5,1.2
				c0.6,1.4,1.4,1.9,2.8,1.4c2.9-1,5.8-2,8.8-2.7c2.3-0.6,4.6-1,6.6-2.2c0.4-0.3,1.1-0.4,1.1-1.1c0-0.6-0.7-0.5-1.1-0.7
				c-2-0.7-3.2-2-3.7-4c-0.7-2.4-0.2-4.6,1.1-6.6c0.8-1.3,0.8-2.1-0.6-2.9c-1.9-1.2-3.1-2.9-3-5.3c0.1-0.9,0.5-1.5,1.2-2
				c0.7-0.5,1,0.3,1.5,0.6c1.4,1,2.6,0.8,3.6-0.7c0.3-0.4,0.6-0.8,1-0.9c1.6-0.4,2.6-1.9,4-2.7c0.8-0.4,1.9-1.4,1.4-2.2
				c-0.5-1-2-0.9-3.1-0.7c-1.4,0.3-2.8,0.7-4.2,1.1c-1.5,0.4-3,0.8-4.3-0.6c-0.6-0.6-0.9-0.3-1.2,0.4c-0.1,0.3,0,1-0.8,0.9
				C105.2,36.3,103.5,36.7,102.1,36.3z M187.7,225.7c1.1,0.9,0.9,2.2,1.5,3.6c0.3-2.4,0.9-4.5,0.8-6.5c-0.2-4.4,1.2-8.4,2.5-12.4
				c0.7-2.1,1.3-4.3,2.1-6.4c0.5-1.3,0-1.6-1.1-1.7c-1.2-0.2-2.2,0.2-3.2,0.7c-0.4,0.2-1.1,0.4-1.3-0.1c-0.4-0.6,0.4-0.8,0.7-1
				c1.3-0.8,2.4-1.8,3.3-3c1.4-1.6,0.9-2.9-1.2-3.3c-0.5-0.1-1-0.2-1.4-0.1c-1.9,0.4-3.8,0-5.7-0.4c-2.5-0.5-4.4,0.4-6,2.2
				c-0.2,0.3-0.7,0.5-0.4,0.9c0.2,0.3,0.6,0.1,0.9,0.1c1.7-0.3,3.1,0.3,4.3,1.5c0.9,0.9,1.8,1.6,3,2c1.3,0.4,1.4,1,0.2,1.8
				c-0.6,0.5-0.8,1-1,1.7c-0.6,3-1.3,6-2,9c-1.1,5.4-1.4,10.9-1.5,16.4c0,1.2,0.4,1.5,1.5,1.4c0.3,0,0.6,0,1,0
				c1,0.1,1.6-0.2,1.5-1.4C186.3,228.9,187.3,227.4,187.7,225.7z M168.6,74.8c-0.2-1-0.6-1.3-1-1.7c-3.3-3.6-7.5-5.5-12.3-6.4
				c-2.7-0.5-5.6-0.7-7.5-3.1c-0.4-0.5-0.8-0.2-1.3-0.1c-2.9,0.2-5.5-0.3-7.6-2.6c-0.9-1-0.9-2.1-0.3-3.3c0.6-1.1,1.4-0.5,2.2-0.3
				c1,0.3,1.6-0.1,1.7-1c0.1-1-0.4-1.5-1.4-1.5c-1.5-0.1-2.6,0.7-3.3,1.8c-0.8,1.3-0.5,2.7,0.2,4c1.1,2.1,3,3.1,5.1,3.8
				c0.9,0.3,1.8,0.4,2.6,0.7c0.4,0.1,0.6,0.4,0.7,0.8c0,0.5-0.3,0.5-0.6,0.5c-1.8-0.2-3.7-0.2-5.4-1.1c-1.7-0.9-2.4-3.1-4.4-3.7
				c-0.1,0-0.2-0.3-0.3-0.4c-1.8-2.7,0.6-4.3,1.6-6.2c0.7-1.4,1.9-1.9,3.4-1.9c0.2,0,0.3,0.1,0.5,0.1c0.3,0.1,0.7,0,0.9-0.3
				c1.2-1.8,1.9-0.5,3,0.6c-0.8-0.2-1.2-0.7-1.8-0.6c0.3,1.1,1,2.1,1.5,3.1c0.2,0.4,0.6,0.8,0.1,1.3c-1,1-0.8,2.1-0.5,3.3
				c2.4-1,3.4-2.7,3.1-5.2c-0.4-3.3-3.2-4.4-5.6-5.3c-2.1-0.7-4.6-0.1-6.5,1.3c-2.8,2.1-4.1,7-2.9,10.2c1.4,3.6,3.8,6.3,7.6,7.5
				c3.5,1.1,7,1.7,10.6,1.9c5.8,0.3,10.6,3.1,14.9,6.9c0.7,0.6,0.9,0.7,1.3-0.3c0.5-1.2,0.4-2.3-0.5-3.3c-0.5-0.6-0.9-1.2-1.3-1.8
				c0.1-0.1,0.2-0.1,0.2-0.2C166.4,73,167.4,73.8,168.6,74.8z M130.5,212.8c-0.1-2.2-0.5-4-0.5-5.8c-0.1-2.4-1.2-3.8-3.2-5
				c-3.4-2-5.2-1.3-6.2,2.6c-1.1,4.3-0.2,8.7-0.3,13c-0.1,3.6,0.5,7.2,0.6,10.8c0.2,3.9-0.5,3.3,3.6,3.4c0.8,0,1.4-0.1,1.7-1
				C128.7,225,130.1,218.8,130.5,212.8z M100.1,207.1c-1.7-2.9-5.4-2.3-7.6-4.5c0,0.9,0.2,1.6,0.4,2.4c0.8,2.5,1.7,4.9,2.3,7.5
				c1.3,5.1,1.4,10.4,1.8,15.7c0.3,4,0.4,4,4.4,3.7c0.9-0.1,1.3-0.3,1.2-1.2c0-1.6,0-3.3,0-5.2c0.7,1.7,0.3,3.3,1.1,4.9
				c0.8-1.7,0.1-3.3,0.7-5.2c0.2,2,0.3,3.7,0.4,5.4c0,0.4-0.1,1.1,0.6,1.1c0.7,0,0.7-0.7,0.7-1.2c0-1.9,0-3.9,0-6.2
				c0.8,1.4,0.5,2.6,0.8,3.7c0.3,1-0.1,2.2,0.7,3.2c0.2-0.3,0.2-0.7,0.2-1c-0.4-6.2-1.2-12.3-2.4-18.3c-0.6-3.1-0.6-3.1-2.1-5
				c-0.2-0.2-0.3-0.5-0.4-0.7c-0.2-0.4-0.4-0.8-0.6-1.1c-0.3-0.4-0.4-1-1-0.8c-0.4,0.1-0.5,0.7-0.4,1.1
				C101,206,100.6,206.5,100.1,207.1z M134.3,212.7c-0.5,5.4,0.7,10.5,2.2,15.6c1.3,4.3,0.6,3.4,4.8,3.6c1,0,1.4-0.4,1.5-1.3
				c0.2-2.7,0.6-5.3,0.7-8c0.2-4,0.8-7.9,0.7-11.9c-0.1-2.4,0-4.9-0.7-7.2c-0.5-1.9-1.7-2.6-3.5-2c-3.1,1.1-6,2.9-5.8,7.3
				C134.4,210.1,134.3,211.4,134.3,212.7z M221.2,43.7c0,1.2-0.4,2.1-1.4,2.7c-0.7,0.4-0.3,0.9,0,1.4c0.7,1.1,1.5,2.1,1.5,3.5
				c0,0.5,0.3,0.9,0.7,1c1.2,0.2,1.2,1,1.1,1.8c0,0.3-0.2,0.5,0.2,0.7c0.9,0.4,1.1,1.4,0.8,2c-0.4,1.2-0.1,2.2,0,3.3
				c0.6,4.7-2.8,10.1-7.1,12c-2.6,1.1-5.2,1.8-8.1,1.7c-0.6,0-1.4-0.1-1.6,0.5c-0.3,0.6,0.7,0.8,1,1.3c-1.1,0.8-1.8,1.9-0.7,3
				c1,1,1.4,2.2,1.6,3.5c0.2,1.1,0.5,2.3,2,1.2c0.4-0.3,0.7,0.1,1.1,0.1c1.5,0.2,2.2-0.6,1.8-2.1c-0.2-0.7-0.5-1.3-0.8-2
				c0.8,0.7,1.4,1.5,2,2.3c0.2,0.3,0.4,0.8,1,0.6c0.5-0.2,0.5-0.7,0.5-1.1c0.2-1.5-0.7-2.5-1.7-3.4c0.5-0.2,0.8-0.3,1.1,0.1
				c0.5,0.7,1.1,1.4,1.6,2.1c0.4,0.5,0.7,1.1,1.5,1.1c0.2,0,0.4-0.3,0.5-0.6c0.2-0.8-0.2-1.3-0.8-1.8c-0.2-0.2-0.4-0.3-0.6-0.5
				c-1.3-1-1.3-1.1,0.2-1.9c2.5-1.4,5.6-1.9,6.8-5.1c0,0,0.1-0.1,0.1-0.1c1.1-1.2,2-2.8,2.1-4.1c0.6-4.4,1.7-8.9-0.2-13.4
				c-1.1-2.6-2.1-5.3-3.6-7.7C223.3,44.9,222.5,44.1,221.2,43.7z M100.6,96.1c0.3-1.9,1.4-3.3,1.3-4.7c-0.1-1.7,0.9-2.2,1.8-3
				c0.5-0.5,1.1-0.8,1.7-1.2c3.1-1.8,6.3-2,9.4-0.4c3.2,1.7,4.2,6.6,2,9.3c-0.5,0.6-1,1.4-1.9,1.3c-0.8-0.2-0.6-1.1-0.8-1.7
				c-0.2-0.4-0.3-0.9-0.5-1.3c-1.1-1.7-3.5-2.2-4.7-0.9c-1.1,1.1-1.5,3.1-0.9,4.6c1.3,3.2,6,4.9,9.1,3.3c2.1-1.1,3.8-2.8,5-4.8
				c0.4,0.3-0.1,0.9,0.5,1.1c0.6-2,0.5-4,0.6-6.1c0.2-3.4-0.7-6-3.8-7.8c-2.1-1.2-4.3-2.7-6.7-2.7c-5.6-0.2-9.9,2.4-13.6,6.5
				c-0.4,0.4-0.6,0.9-0.7,1.4c-0.3,1.9-0.2,3.8-0.1,5.8c0,0.4,0.2,0.9,0.7,0.9c0.5,0,0.6-0.4,0.7-0.7c0.3-0.6,0.1-1.5,1-1.9
				C100.7,93.9,100,94.8,100.6,96.1z M61.6,202.9c0,0.3,0,0.7,0.1,0.9c2.8,7.1,3.7,14.5,3.8,22.1c0,1.4,0.1,2.9,0.3,4.3
				c0.1,0.7,0.1,1.6,1.3,1.5c1.1-0.1,1.1-0.8,1.2-1.6c0-0.6,0-1.3,0.1-1.9c0-0.3,0.1-0.7,0.5-0.7c0.3,0,0.4,0.3,0.5,0.6
				c0.1,0.7,0.3,1.4,0.3,2c0,1.5,1,1.3,2,1.3c1,0,2.1,0.2,2.1-1.4c0-1.9,0.1-3.8-0.1-5.8c-0.6-4.6-1.2-9.2-1.4-13.8
				c-0.2-3.6-2-6.5-4-9.4c-0.8-1.1-1.9-1.1-3-0.5c-1.3,0.7-0.4,1.6-0.1,2.3c0.6,1.7,1.6,3.2,2,5.5C65.4,206.1,65.2,202.8,61.6,202.9
				z M182.2,205.5c-0.5-1.3-0.5-2.6,0.2-3.8c0.4-0.8,0.4-1.7-0.5-2.3c-0.9-0.5-1.7-0.6-2.5,0.2c-1.3,1.2-2.5,2.5-3,4.3
				c-2.1,8.2-3.5,16.5-3.6,24.9c0,3.5,0,3.5,3.5,3.3c1.1-0.1,1.6-0.9,1.2-1.9c-0.4-1.1-0.1-2,0.8-3.2c0,1.3,0,2.1,0,3
				c0.7-2.9,0.4-6,1.5-8.9c0.3,3.6-0.6,7.1,0.2,10.6c0.2-0.5,0.2-0.9,0.2-1.4c0.2-7.8,1.6-15.4,3.1-22.9c0.3-1.7,0.3-3-0.9-4.3
				C182.4,204,182.3,204.7,182.2,205.5z M161.9,58.9c-0.5-0.5-1-0.2-1.4-0.3c-2.5-0.8-4.9-1.4-7.3,0.5c-0.5,0.4-1,0-1.2-0.6
				c-0.3-0.8-0.2-1.7,0-2.5c0.1-0.3,0.3-0.6,0.6-0.6c0.5,0,0.4,0.4,0.4,0.7c0.1,0.5,0.2,1.2,0.9,0.9c2-0.7,3.8,0.1,5.6,0.5
				c0.9,0.2,1.9,0.4,2.8-0.1c0.2-0.1,0.4-0.4,0.4-0.6c0-0.3-0.3-0.4-0.6-0.4c-1.4,0-2.2-0.9-3.1-1.8c-0.9-0.8-1.9-1.4-3.2-1.2
				c-1.3,0.2-1.7-0.2-1.1-1.5c0.2-0.5,0-1-0.1-1.6c-1-4.6-1.2-9.1,2.8-12.7c0.2-0.2,0.5-0.4,0.4-0.9c-2.2-0.3-4.5-0.9-6.5,0.3
				c-1.9,1.2-3.9,1.9-6.2,1.5c-0.3-0.1-0.9-0.2-0.9,0.4c0,1,0.5,2,1.3,2.6c0.6,0.5,1.2,0.2,1.7-0.2c1.9-1.3,3.3-0.8,3.9,1.4
				c0.7,2.3,0.3,4.3-1.6,5.9c-0.9,0.8-1.7,1.6-1,3c1.4,2.9,1.3,5.8-0.3,8.6c-0.5,0.9-0.2,1.5,0.6,2c1.3,0.8,2.8,1.3,4.3,1.6
				c4.1,1,8.1,2.1,11.9,4.2c0.2,0.1,0.5,0.5,0.9,0c-2.2-2.3-4.1-4.9-7.8-4.8c-0.7,0-1.3-0.3-1.3-1.1c0.1-0.8,0.7-0.9,1.4-0.9
				c1.3,0.1,2.7,0.1,4,0.1c0.3,0,0.7,0.1,0.8-0.3c0.1-0.3-0.1-0.6-0.4-0.8c-0.7-0.6-1.5-0.5-2.3-0.3c-0.6,0.1-1.1,0.6-1.8,0.4
				C159.6,59.4,160.9,59.6,161.9,58.9z M149.6,80.5c-2.4,0-4.7,0.4-6.7,2.1c-4.3,3.8-5,10.3-1.7,15.5c1.2,1.9,2.9,3.1,5.1,3.5
				c4.4,0.8,8.4-3,7.3-6.9c-0.4-1.3-2-2.7-3.1-2.6c-1.5,0.2-1.7,1.5-1.8,2.6c-0.1,0.4-0.1,0.8-0.2,1.3c-0.1,0.8-0.6,0.9-1.2,0.9
				c-1.5-0.2-3.7-2.3-4-3.8c-0.7-3.6,1.4-6.9,5.4-8.1c0.9-0.3,1.7-0.5,2.4,0.5c0.3,0.4,1,0.8,1.1,0.2c0.3-1.1,0.8-0.7,1.4-0.5
				c2.3,0.7,4.2,2,5.9,3.7c0.5,0.5,0.9,1.1,1.6,1.2c0.5,0.1,1,0.2,1.4-0.1c0.4-0.4,0-0.9-0.2-1.3C159.5,83.7,155.7,80.4,149.6,80.5z
				 M57.9,95.7c2.7,2.1,5.1,4.6,7.6,7c3.5,3.3,5.6,7.5,7.1,12c0.3,0.8,0.3,2.4,1.5,2c1-0.3,0.5-1.8,0.2-2.6
				c-1.4-4.3-3.3-8.5-6.3-11.9c-5.2-5.8-10.7-11.3-15.4-17.6c-0.4-0.5-0.9-0.8-1.4-1c-0.7-0.3-1.2-0.3-1.2,0.7
				c0,1.2,0.2,2.2,1.3,2.8c0.3,0.2,0.8,0.5,0.5,1c-0.2,0.3-0.5,0.4-0.8,0.3c-0.7-0.3-1-0.2-1.4,0.5c-0.4,0.8,0,1.2,0.4,1.7
				c0.9,0.9,2,1.4,3.1,1.9c0.6,0.2,1,0.8,0.9,1.4c-0.1,0.6-0.8,0.4-1.2,0.4c-0.8-0.1-0.9,0.3-0.6,0.9c0.3,0.6,0.5,1.2,1.2,1.4
				c1.6,0.5,3.2,0.8,3.2,3.1c0,1,1.5,1.6,2.4,2.3c4.9,3.6,8.9,7.9,11,13.8c0.2,0.6,0.6,1.1,1.3,0.9c0.7-0.2,0.7-0.9,0.6-1.5
				c-0.6-2.8-1.7-5.5-3.4-7.9c-2.5-3.5-5.5-6.5-8.6-9.4C59,97.2,58.3,96.7,57.9,95.7z M71.7,101.5c1.8,2,3.1,4.3,4,6.8
				c0.9,2.5,1.7,4.9,2.6,7.4c0.2,0.4,0.4,1,1,0.7c0.5-0.2,0.3-0.8,0.1-1.2c-0.5-1.6-0.9-3.2-1.5-4.7c-1.7-4.4-3.5-8.8-6.4-12.6
				c-1.7-2.3-3.9-4.2-5.6-6.5c-1-1.3-1.6-2.7-2.5-4c-0.8-1.1-1.6-2.1-2.1-3.4c-0.5-1.3-1.1-2.7-2.2-3.6c-1.1-0.9-3.4-0.2-4.8,1.2
				c-1.3,1.2-1.2,2.4-0.2,3.6c0.3,0.4,0.6,0.9,0.9,1.3c3.4,4.5,7.2,8.8,11.2,12.7c4.2,4.1,6.8,9.1,8.7,14.5c0.2,0.5,0.4,1.1,0.7,1.6
				c0.2,0.4,0.6,0.8,1.2,0.5c0.5-0.2,0.5-0.7,0.3-1.1c-0.9-2.3-1.1-4.9-2.3-7.1C73.7,105.7,72.6,103.7,71.7,101.5z M131.3,85.1
				c1.8-2.6,2.8-5.3,4.5-7.6c1.8-2.3,4.4-3.7,7-5.4c-0.7-0.3-1-0.4-1.3-0.5c-3.9-0.7-6.9-2.9-9.3-6c-0.2-0.3-0.4-0.5-0.6-0.7
				c-0.6-0.6-1.1-0.8-1.6,0.1c-2.3,3.6-5.6,5.8-9.5,7.2c-0.3,0.1-0.8,0.2-0.8,0.6c0,0.4,0.5,0.6,0.8,0.7c2.1,0.9,3.8,2.3,5.4,3.9
				C128,79.5,129.8,82,131.3,85.1z M197.1,231.7c1.5-9.6,1.6-19.4,5.2-28.7c-1.2,0.6-1.5,1.8-2,2.8c-0.2,0.3-0.1,1-0.7,0.8
				c-0.4-0.1-0.9-0.5-1-1c0-0.3,0.1-0.8,0.3-1c0.8-0.9,0.6-2.1,0.9-3.2c0.2-0.5,0.1-1.1-0.5-1.4c-0.6-0.3-1-0.1-1.5,0.3
				c-0.8,0.6-1.2,1.5-1.5,2.4c-1.2,3.5-2.2,7.1-3.6,10.6c-2.3,5.7-1.4,11.6-1.5,17.4c0,0.7,0,1.6,1.3,1.5c1.1-0.1,1.7-0.4,1.8-1.5
				c0.1-1,0.2-2,0.4-3c0.1-0.8,0.7-1.1,1.4-1c0.8,0.1,0.5,0.7,0.5,1.1C196.7,229.1,196.4,230.4,197.1,231.7z M129.6,137.1
				c-0.2,0.7-0.1,1.2,0,1.7c0.8,4.7,1.3,9.4,1.5,14.2c0.4,12-0.6,24-2.1,35.9c-0.7,5.6-0.9,5.4,4.5,5.4c2.4,0,2.8-0.4,2.3-2.7
				c-2.1-11-2.8-22.2-3.1-33.4c-0.2-6.2,0.1-12.3,0.6-18.4c0.1-2,0.1-2.1-1.9-2.4C130.8,137.3,130.3,137.2,129.6,137.1z
				 M177.6,110.9c0.8-0.2,1-0.8,1.3-1.2c3.6-5.7,6.1-11.8,8.1-18.2c1-3.2,1.8-6.5,4-9.2c0.3-0.4,0.3-1,0.5-1.5
				c0.6-1.8,1.7-3.1,3.5-3.7c2.6-0.9,5.2-0.5,7.7,0.2c0.7,0.2,1.3,0.5,1.8-0.3c0.2-0.4,0.6-0.7,0.4-1.1c-0.4-0.7-1.1-0.7-1.8-0.6
				c-0.7,0.1-1.5,0.3-1.6-0.7c-0.1-1.1,0.9-1.1,1.6-1.1c1.1-0.1,2.2-0.3,3.3-0.7c0.8-0.4,1.6-0.9,0.2-1.5c-0.7-0.4-1-0.9-0.9-1.7
				c0.3-2-0.2-2.4-2.4-1.8c-0.7,0.2-1.2,0.6-1.7,1.1c-0.7,0.8-1.3,0.8-1.8-0.2c-0.2-0.5-0.4-1.3-1.1-1.1c-0.6,0.1-0.8,0.8-0.9,1.4
				c-0.1,0.4-0.2,0.7-0.3,1.1c-0.5,1.6-0.6,1.6-1.9,0.5c-1-0.9-1.5-0.7-1.8,0.5c-0.2,0.9-0.3,1.9-0.3,2.9c0,0.7-0.2,1.2-1,1
				c-1.3-0.4-1.7,0.3-2,1.4c-0.2,0.8-0.4,1.6-1.5,1.9c-0.7,0.2-1,0.9-1.3,1.5c-0.6,1.2-1,2.6-1.4,3.9c-1.1,4.1-1.8,8.3-3.4,12.3
				c-1.3,3.2-3.3,6.1-4.4,9.4c-1.1,3.3-2.9,6.3-5.3,8.8c-0.6,0.7-1.3,1.3-1.3,2.4c1-0.7,1.9-1.5,2.5-2.4c2.5-3.7,4.9-7.3,6.9-11.3
				c2.2-4.6,3.2-9.6,4.7-14.4c0.3-0.9,0.4-1.8,1.4-2.6C185,94.6,182.7,103.2,177.6,110.9z M232.1,52.2c2,1.3,2,1.3,1.8,3.6
				c0,0.3,0.1,0.5,0.3,0.7c0.6,0.6,0.6,1.4,0.6,2.1c0,2.5,0.1,4.9-0.4,7.3c-0.1,0.5-0.2,1.1,0.4,1.4c0.6,0.2,1-0.2,1.4-0.6
				c1.2-1.3,1.5-2.9,1.9-4.5c0.3-1.2,0-2.6,0.8-3.9c0.8,1.5,0.3,2.8,0.1,4c-0.3,2.2-0.6,4.5-2,6.3c-0.2,0.3-0.5,0.9-0.9,0.6
				c-1.3-1.4-2,0-2.7,0.6c-0.7,0.5-1.7,1.5-1.2,2.1c0.6,0.8,1.6-0.2,2.4-0.6c0.1,0,0.2,0,0.3,0c-0.1,0.4-0.4,0.6-0.7,0.8
				c-0.9,0.7-2,1.3-3,1.8c-0.8,0.4-1.5,1.1-1.3,1.8c0.2,1,1.3,0.6,1.9,0.4c2.9-0.5,5-2.4,6.2-5c2.8-6,3.3-12.2,1.7-18.5
				c-0.6-2.5-1.4-4.9-3.2-6.8c1.2,3.3,2.2,6.6,1.9,10.2c-0.5-3.8-2-7.4-2.9-11.1c-0.2-0.8-0.3-1.7-1.3-2.1c-2-0.8-4.2-1-6-2.2
				c0.2,0.7,0.5,1.2,0.9,1.6c2.1,2.5,3.3,5.5,4.5,8.4C233.8,51.8,233.8,52.4,232.1,52.2z M182.4,92.9c1.1-2.4,1.7-4.8,2.3-7.3
				c1.2-4.4,2.2-8.9,5.3-12.5c0.2-0.2,0.5-0.5,0.3-0.7c-0.9-1.1-0.2-1.8,0.3-2.7c0.4-0.7,0.4-1.5-0.2-2.1c-0.7-0.5-1.4-0.1-1.9,0.3
				c-0.5,0.4-1,0.9-1.4,1.5c-0.7,0.9-1.4,1.5-2.3,0.2c-0.3-0.4-0.7-0.7-1.3-0.4c-0.6,0.3-0.6,0.8-0.6,1.4c0.1,0.9,0.2,1.8,0.3,2.7
				c0,0.6,0.3,1.3-0.3,1.6c-0.7,0.3-0.9-0.5-1.3-0.9c-0.4-0.4-0.6-1.2-1.3-0.8c-0.8,0.4-0.5,1.2-0.2,1.8c0.7,1.2,1.4,2.4,2.2,3.5
				c0.3,0.5,0.4,1,0.2,1.5c-0.3,0.6-0.7,0.5-1.2,0.4c-1.3-0.3-1.5,0.6-1.4,1.5c0.3,4.3-0.4,8.6-0.9,12.9c-0.6,5.4-2.6,10.4-5.1,15.2
				c-0.3,0.6-0.9,1.3-0.7,2.5c2.8-4.1,4.9-8.1,6.4-12.5c1.5-4.4,2-8.9,3.2-13.4C183.1,88.8,182.1,90.8,182.4,92.9z M113.5,227.4
				c-0.1-3.4-0.5-7.6-1-11.9c-0.4-3.1-0.8-6.2-1.9-9.2c-0.6-1.8-1.6-3.5-3.3-4.5c-0.8-0.4-1.6-0.6-2.4,0c-0.7,0.5-0.6,1.3-0.4,2
				c0.9,3.5,1.9,7,2.6,10.5c1.1,5.3,1.5,10.7,1.6,16c0,1.1,0.3,1.5,1.4,1.5C113.5,231.9,113.5,231.9,113.5,227.4z M62,80.8
				c-0.9,0.2-0.4,0.8-0.3,1.3c1,3.1,2.9,5.7,4.9,8.1c4.9,5.9,9.7,11.8,12.1,19.2c0.6,1.8,1.3,3.6,1.9,5.4c0.5,1.4,2.7,2.9,3.7,2.3
				c1.3-0.8,2.2-0.2,3.2,0.5c0.4,0.3,1,0.7,1.4,0.1c0.4-0.5-0.3-0.8-0.5-1.2c-0.1-0.2-0.3-0.3-0.4-0.5c-6-5.4-9.6-12.3-12.7-19.5
				c-2.1-4.8-4.8-9.3-8.5-13C65.5,82.2,63.9,81.4,62,80.8z M66.6,131.7c-0.1,1.2,0.6,1.8,1.1,2.4c2,2.5,3.4,5.3,4.5,8.2
				c2.9,8,4,16.3,4.1,24.8c0.1,8.3,0.6,16.5,3.2,24.5c0.3,1,0.6,2,1.5,2.6c0.5,0.4,1.1,1.1,1.8,0.7c0.6-0.4,0.2-1.2,0-1.8
				c-2.1-8.5-3.7-17.1-4-25.8c-0.3-8.1-1.7-16.1-4.3-23.8c-1.2-3.5-2.9-6.6-5.2-9.5C68.6,133.3,67.9,132.4,66.6,131.7z M47.2,50
				c0.9,0.3,1.5,0,2.1-0.1c3.6-0.4,7-0.7,10.1,1.9c4.8,4,7.8,8.7,6.2,15.2c-0.3,1.2,0.2,2.1,0.6,3c0.1,0.3,0.3,0.6,0.7,0.6
				c0.4,0,0.6-0.3,0.7-0.6c0.3-0.8,0.5-1.6,0.7-2.5c0.2-1.1,0.9-1.3,1.9-1c0.4,0.1,0.8,0.3,1.2,0.4c1.9,0.6,2.4,0.2,2-1.8
				c-0.1-0.8-0.4-1.6-0.7-2.3c-1.5-3.6-3.6-7-6.3-9.7c-4-4-8.6-6.9-14.7-6C49.9,47.4,48.4,48.3,47.2,50z M181.7,192.5
				c-0.2,0.7,0.1,1.2,0.8,1.3c1,0.1,1.9-0.2,2.2-1.2c0.5-1.7,1.3-3.5,1.3-5.2c0-3,0.4-5.9,0.4-8.9c-0.1-7.2-0.2-14.3,0-21.5
				c0.2-6.9,1.9-13.4,5.8-19.2c0.5-0.8,1-1.6,1.5-2.4c0.3-0.4,0.5-0.9-0.1-1.3c-0.6-0.3-0.7,0.3-0.9,0.6c-1,1.4-2,2.8-2.9,4.2
				c-1.1,1.6-2.3,3.1-2.9,5.1c-2.5,7.4-2.5,15-2.8,22.6c-0.2,6.1-0.1,12.2-1,18.2C182.7,187.4,182.1,189.9,181.7,192.5z M198.3,81.5
				c0.1-1.7-0.4-2.1-1.8-1.5c-2.9,1.2-4.9,3.4-6,6.3c-1.1,2.7-2,5.5-2.9,8.3c-2.2,6.4-4.5,12.8-8.8,18.2c-0.6,0.8-1.3,1.6-1.9,2.4
				c-0.3,0.3-0.3,0.7,0,1c0.2,0.2,0.4,0.3,0.7,0.1c1.7-1.1,3.7-1.8,4.3-4.2c1-3.6,2.7-6.9,4.9-10c2.6-3.6,5.5-7.1,7.6-11
				C196.1,87.9,197.7,84.8,198.3,81.5z M129.3,35.4c-0.8-0.6-0.8-1.4-1.2-1.9c-0.3-0.5-0.4-1.4-1.3-1c-0.7,0.3-0.5,1.1-0.3,1.7
				c0.2,0.9,0.8,1.8,0.2,2.9c-0.1-0.4-0.3-0.7-0.3-1c0-1.1-0.5-1.8-1.6-2.1c-0.5-0.1-0.9,0-1.2,0.5c-0.5,1.1,0.2,1.7,0.9,2.3
				c1,1,1.4,2.2,1.1,3.6c-0.3-1-0.7-1.9-1.3-2.7c-0.4-0.6-0.9-0.9-1.5-0.5c-0.6,0.4-0.2,1,0.1,1.4c0.6,0.9,1.4,1.7,1.9,2.8
				c0.2,0.6-0.7,2.6,1.5,1.6c0,0,0.2,0.1,0.2,0.2c0.2,1,0.8,2,0.2,2.9c-0.4,0.6-0.8,1-0.2,1.6c0.5,0.6,1.2,0.5,1.8,0.2
				c1.3-0.7,2.5-0.6,3.8,0.1c0.4,0.2,1,0.6,1.4-0.1c0.3-0.6,0.4-1.1-0.1-1.6c-0.8-0.7-1.2-1.7-2.1-2.2c-0.6-0.4-0.7-0.8,0.1-1
				c1.6-0.4,2.2-1.5,2.5-3c0.1-0.6,0.3-1.1,0.6-1.6c1.7-2.8,1.7-2.8-0.8-4.8c-1-0.9-1.5-0.7-1.9,0.5c-0.1,0.2,0,0.6-0.5,0.5
				c0-0.6,0-1.3-0.1-1.9c-0.1-0.7-0.6-1.2-1.3-1.2c-0.8,0-0.9,0.7-0.8,1.3C129.2,33.6,129.2,34.3,129.3,35.4z M108.2,144.9
				c-0.9,1.6-0.6,3-0.2,4.3c0.2,0.5,0.2,1.3,0.9,1.1c0.9-0.2,1.4-1.1,1.6-2c0.2-0.6-0.3-0.8-0.8-0.9c-0.3,0-0.7-0.1-0.7-0.5
				c0-0.3,0.3-0.4,0.5-0.5c1.3-0.7,0.8-1.6,0-2c-0.8-0.4-1-1-1.2-1.7c-0.1-0.6-0.3-1.1-0.8-1.6c-0.2,0.4-0.3,0.7-0.5,1
				c-0.2,0.4-0.3,1.2-1,1c-0.8-0.2-0.5-1-0.3-1.5c0.6-1.4,0.1-2-1.4-1.9c-0.5,0-0.9-0.2-1.4-0.2c-0.5,0-1-0.3-1.3,0.2
				c-0.3,0.5-0.1,1,0.2,1.5c1.1,2.2,1,2.2-1.1,3.2c-0.2-0.7,0.1-1.4,0.1-2c0-0.6-0.1-1.2-0.7-1.5c-0.6-0.4-1.2,0-1.6,0.4
				c-1,1-1.6,2.3-2.1,3.6c-0.2,0.5,0.1,0.9,0.6,1.1c0.4,0.2,0.9,0.2,1.4,0.4c0.3,0.1,0.7,0,0.7,0.5c0,0.4-0.2,0.7-0.7,0.7
				c-0.4,0-0.8,0-1.1,0c-1.3-0.2-1.8,0.3-1.6,1.6c0.1,0.5,0.1,1.1,0.1,1.6c0.1,1.3,0.7,2.1,2,2.2c0.4,0.1,1.1,0,1.1,0.6
				c0,0.6-0.7,0.4-1,0.5c-0.2,0.1-0.4,0.1-0.5,0.3c0.7,0.4,2-0.2,2,0.7c0,0.8-1.3,0.3-1.9,0.7c0,0-0.1,0.1-0.2,0.1
				c0.1,0.2,0.2,0.5,0.3,0.7c0.5,1.4,1.4,2.5,2.6,3.4c0.7,0.6,3.7,1.6,4.5,1c0.1-0.1,0.2-0.4,0.2-0.5c-0.1-0.9,0.1-2-1.3-2.2
				c-0.5-0.1-0.6-0.4-0.6-0.8c0-1.7-0.5-2.9-2.9-2.2c1.5-1.9,2.1-3.5-0.2-4.7c-0.3-0.2-0.3-0.5,0-0.6c1.8-0.8,1.6-2.2,1.2-3.6
				c-0.1-0.6-0.5-1.4,0.8-1.1c0.7,0.2,0.9-0.3,1-0.9c0.1-0.7,0.3-1.4,0.4-2.2C105.7,146.1,105.7,146.1,108.2,144.9z M142.4,263.4
				c0-6.8,0-13.6,0-20.3c0-0.5,0-1-0.1-1.4c-0.1-0.6-0.4-1-1.1-1c-0.6,0-0.8,0.4-0.9,0.9c-0.1,0.8-0.2,1.6-0.2,2.4
				c0,13.1-0.5,26.2-0.3,39.2c0,0.7,0.1,1.5,0.1,2.2c0,0.7,0.5,0.8,1,0.7c0.5,0,1,0,1.1-0.7c0.1-0.9,0.2-1.8,0.2-2.7
				C141.8,276.3,142.3,269.9,142.4,263.4z M128.9,195c-2.5-0.1-4.1,0.5-5.1,2.2c-0.6,1-0.5,1.8,0.6,2.2c1.4,0.6,2.7,1.4,4.1,2.2
				c2.2,1.3,4.5,1.4,6.8,0.2c1.8-0.9,3.5-2,5.5-2.4c0.8-0.1,1.2-0.8,0.6-1.6c-1.1-1.3-2.3-2.4-4.1-2.5
				C134.4,195.2,131.4,195.5,128.9,195z M30.5,60.7c0.3-1.2,0.3-2.4-0.5-3.3c-0.2-0.3-0.3-0.6-0.3-0.9c0.3-4.2,1.2-8.1,3.7-11.5
				c0.3-0.5,0.6-1,1.5-0.7c0.5,0.2,1.3-0.4,1-1.2c-0.4-0.9-3-1.1-3.7-0.5c-1.6,1.4-2.7,3.2-3.5,5.1c-3.5,8.4-2,16.3,2.5,23.8
				c1,1.7,2.5,2.9,4.2,3.9c0.4,0.2,0.8,0.4,1.2,0c0.4-0.4,0.1-0.8-0.1-1.1c-0.6-0.8-1.4-1.7-2-2.5c-3-3.6-4.2-7.8-4.5-12.4
				C30.1,59.9,30.3,60.3,30.5,60.7z M152.7,204c0.6-1.1,1.1-2.3,1.7-3.3c1.6-2.5,3.6-2.9,6.2-1.5c1,0.6,1.9,1.4,2.8,2.1
				c1.2,1,2.6,1.6,4,0.8c1.9-0.9,3.6-2,5.4-3.2c1-0.7,1-1.6,0.2-2.4c-0.9-1.1-2.1-1.3-3.5-1.2c-2.8,0.3-5.5,0.2-8.3,0
				c-1.4-0.1-2.9-0.3-4.1,0.5C154.3,197.8,153,200.6,152.7,204z M233,60.2c-0.1-6.7-2-12.1-5.8-16.8c-0.4-0.4-0.7-1.5-1.5-0.9
				c-0.7,0.5-0.3,1.4,0,2c0.1,0.2,0.2,0.4,0.3,0.6c1.4,2.5,2.6,5.1,3.4,7.9c1.7,5.7,1.6,11.3-0.9,16.8c-0.9,1.9-2.2,3.4-3.3,5.1
				c-0.3,0.4-0.8,0.8-0.5,1.3c0.3,0.6,0.8,0.2,1.3,0.2c0.2,0,0.3,0,0.5,0c1.4,0.3,2.3,0,1.9-1.8c-0.2-0.7,0.4-1.3,0.9-1.8
				C232.4,68.9,232.4,64.1,233,60.2z M121.9,263.5C122,263.5,122,263.5,121.9,263.5c0.1,7.1,0.1,14.2,0.1,21.3
				c0,0.5-0.3,1.4,0.6,1.4c0.8,0,0.8-0.7,0.8-1.3c0.5-14,0.5-28.1,0.3-42.1c0-0.9-0.1-2-1.2-1.9c-1,0.1-0.6,1.2-0.6,1.8
				C121.9,249.6,121.9,256.6,121.9,263.5z M72.5,195.6c-2.7-0.1-3.5,1.1-2.6,3.3c0.6,1.5,1.6,2.7,3.2,3.1c2.5,0.6,4.9-0.1,7.1-1
				c1.7-0.7,3.2-1.6,5-0.6c0.3,0.1,0.7,0.3,0.9,0.2c0.3-0.2,0.2-0.7,0.1-1c-0.7-2.1-3.9-4.3-6.1-4.1
				C77.4,195.5,74.8,196.2,72.5,195.6z M104.9,263.4c0.1,0,0.1,0,0.2,0c0,6.9,0,13.9,0,20.8c0,0.5,0,1,0,1.4c0,0.5,0.4,0.6,0.8,0.6
				c0.4,0,0.7-0.2,0.8-0.6c0-0.4,0-0.9,0-1.3c0-12.5,0-25,0-37.5c0-1.5-0.1-3-0.2-4.5c0-0.7-0.3-1.6-1-1.6c-0.9,0-0.6,1-0.6,1.5
				C104.9,249.4,104.9,256.4,104.9,263.4z M158.1,263.6c0.2,0,0.3,0,0.5,0c0-4.3,0-8.5,0-12.8c0-2.8,0.1-5.6,0.2-8.3
				c0-0.5,0-1.1-0.5-1.2c-0.7-0.1-0.8,0.6-0.9,1.1c-0.2,1.6-0.4,3.2-0.5,4.8c-0.5,12.5-0.5,25-0.4,37.5c0,0.5-0.4,1.5,0.5,1.6
				c1,0.1,1-0.9,1.1-1.6c0-0.3,0-0.5,0-0.8C158.1,277,158.1,270.3,158.1,263.6z M84.8,48.8c0.8,0.9,1.9,1.2,2.4,2.1
				c0.4,0.9,0.9,1.8,1.3,2.7c1.2,2.5,1.8,2.9,4.5,2.1c1-0.3,1.9-0.3,2.6,0.5c1.2,1.5,2.6,1.4,4.1,0.4c0.7-0.4,1.5-0.9,2.3-1.2
				c1-0.4,2-1,3.2-0.5c0.3,0.1,0.9,0.4,1.1-0.2c0.2-0.6-0.4-0.9-0.8-1c-1-0.3-2-0.7-2.9-1.3c-0.8-0.6-1.6-0.5-2.3,0.1
				c-0.8,0.6-1.5,1.3-2.3,2c-0.4,0.4-0.9,0.6-1.4,0.2c-0.5-0.4-0.2-1-0.1-1.5c0.1-0.2,0.3-0.5,0.4-0.7c1.3-2.3,1.1-3-1.2-4.3
				c-1.1-0.6-1.8,0-2.6,0.4c-0.9,0.5-0.7,1.3-0.5,2c0.3,0.8,0.4,1.7,0.1,2.5c-0.2,0.5-0.4,0.8-1,0.8c-0.6,0-0.9-0.3-1-0.8
				c-0.2-0.7-0.3-1.4-0.4-2c-0.4-2.7-0.7-2.9-3.4-2.7C86.2,48.7,85.6,48.7,84.8,48.8z M127.9,27c0-0.2,0-0.4,0-0.6
				c-0.6-4.4-2.7-8.2-4.6-12.2c-1.2-2.4-3.3-3.9-5-5.7c-0.5-0.5-1.6-0.7-1.7,0.2c-0.2,1.4-0.9,2.9,0.1,4.4c3.2,4.9,7,9.5,8.6,15.4
				c0.1,0.5,0.5,1.6,1.1,1.2c0.7-0.3,1-1.3,0.8-2.2c-0.1-0.4-0.4-0.8-0.6-1.1c-2.7-4.6-5.4-9.2-8.1-13.8c-0.5-0.8-1.2-1.6-1-3.1
				C121.3,15.4,124,21.5,127.9,27z M173.9,240c-0.5,0.4-0.7,0.9-0.7,1.5c-0.1,1.4-0.3,2.8-0.3,4.1c-0.2,8.1-0.4,16.2-0.5,24.3
				c-0.1,4.5-0.1,9.1,0,13.6c0,0.8-0.3,2.2,0.8,2.2c0.5,0,0.6-1.4,0.6-2.2c0.1-4.3,0.3-8.6,0.3-13c0.1-9.6,0.1-19.2,0.6-28.8
				C174.7,241.1,174.5,240.5,173.9,240z M134.2,227.2c0.3-0.6,0.2-1.1,0.1-1.6c-1.1-3.6-1.2-7.3-1.1-11.1c0-2.3,0-4.6-0.1-6.9
				c0-0.6-0.1-1.3-0.3-1.9c-0.2-0.7-1-0.7-1.5-0.6c-0.8,0.1-0.3,0.7-0.3,1.1c0.6,3.8,1,7.5,0.1,11.3c-0.6,2.6-1.1,5.3-1.6,7.9
				c0.6-0.1,0.4-0.8,0.9-1c0,1.4-0.3,2.7-0.7,3.9c-0.9,3.5-0.9,3.5,2.7,3.5c1.5,0,1.7-0.5,1.4-1.8c-0.4-1.9-1-3.9-0.6-6
				C133.6,225.1,133.9,226.1,134.2,227.2z M77.9,286.1c0.5-0.6,0.4-1.1,0.4-1.6c0.1-5.8,0.2-11.6,0.2-17.5c0-8.3,0.2-16.6-0.2-24.8
				c0-0.9,0-2.2-1-2.2c-1.1,0.1-0.6,1.4-0.5,2.2c0.2,13.7,0.4,27.3,0.6,41C77.3,284.2,77.3,285.2,77.9,286.1z M117.7,226.8
				c-0.1-7-0.9-13.9-1.7-20.9c-0.2-1.3-0.3-2.6-0.9-3.9c-0.6-1.2-1.6-1.2-2.6-0.9c-1.1,0.3-0.5,1.2-0.3,1.9c2.3,7.2,3.3,14.5,3.6,22
				c0.1,2,0.3,4,0.5,6.1c0,0.5,0.2,0.8,0.8,0.8c0.7,0,0.6-0.5,0.6-0.9C117.7,229.6,117.7,228.2,117.7,226.8z M192.9,152.8
				c-0.1,0.5-0.6,0.6-0.9,0.9c-0.3,0.3-0.6,0.6-0.3,0.9c0.4,0.4,0.7-0.1,0.9-0.2c0.8-0.6,1.4-1.3,1.4-2.4c0-1.9,1.1-3.3,2.4-4.5
				c1.5-1.4,2.8-1.3,3.9,0.5c0.6,0.9,1.2,0.9,2,0.7c0.6-0.1,0.8-0.7,0.7-1.3c-0.2-1.1-1.1-0.6-1.8-0.7c0.5-0.7,2.1-0.7,1.4-1.9
				c-0.9-1.6-1.7-3.3-4.2-3.3c-2.1,0-2.6-0.4-2.2,1.8c0.1,0.4,0.2,0.8-0.3,1c-0.4,0.1-0.6-0.2-0.8-0.4c-0.3-0.4-0.7-0.8-1,0
				c-0.7,1.8-2,3.2-3,4.9C190,150.8,190.6,152.2,192.9,152.8z M143.2,12.3c34.1,0,68.2,0,102.3,0C242.8,11.5,144.6,11.7,143.2,12.3z
				 M92,263.5c-0.1-7.1-0.5-14.1-0.6-21.1c0-0.8,0.1-2.1-0.9-2.1c-1,0-0.5,1.3-0.5,2c0.3,13.8,0.6,27.7,0.9,41.5c0,0.7-0.3,2,0.6,2
				c0.9,0,0.6-1.3,0.6-2C92,277.1,92,270.3,92,263.5z M68.2,197.6c0-1-0.2-1.9-1.2-2.4c-3-1.5-6.1-1.4-9,0.2c-1.3,0.7-1.9,2-1.7,3.5
				c0.3,1.6,1.4,2.3,2.9,2.6c1.1,0.2,2.1-0.4,2.9-1c1.4-1,2.9-1.6,4.6-1.4C67.9,199.2,68.2,198.6,68.2,197.6z M16.5,11.9
				c7.1,0.8,95.2,0.4,97.7-0.4C81.3,11.3,48.9,11.4,16.5,11.9z M23.4,32.2c2.9,0.3,5.6,0.5,8.5,0.1c-4-5.7-3.9-11.4-0.6-17.2
				c-2.7-0.2-5.3-0.2-8.3,0c3.2,2.3,5.1,5,5.1,8.6C28.2,27.3,26.1,30,23.4,32.2z M132.2,17c0.3-3.9-0.1-7.8-1.6-11.5
				c-0.2-0.5-0.3-1.2-1-1.1c-0.5,0.1-0.4,0.8-0.4,1.3c0,0.2,0,0.4,0,0.6c-0.3,6.7,0.6,13.3,0.3,20c0,0.8,0.2,1.3,1.1,1.4
				c1,0.1,0.9-0.7,1-1.3C131.9,23.3,132,20.1,132.2,17z M187.1,240.5c-1.1,1.1-1.4,2.5-1.4,3.9c-0.6,12.9-0.7,25.8-0.6,38.8
				c0,0.7,0,1.5,0.7,2.1C186.8,270.4,185.9,255.5,187.1,240.5z M123.1,31.2c0.6-0.8,0.6-1.6,0.3-2.5c-1-2.8-2.4-5.4-4.2-7.8
				c-1.4-1.8-3.2-2.9-5.3-3.8c-0.4-0.2-0.9-0.4-1.3,0.1c-0.3,0.5,0.2,0.7,0.5,1c2,2.2,4.2,4.1,6.5,5.9c0.9,0.7,1.8,1.5,1.9,2.8
				c-2.7-3-5.8-5.4-9.4-7.9c0.3,2.1,1.1,3.4,2.4,4.3c1.9,1.3,3.7,2.9,5.2,4.7C120.7,29.3,121.8,30.4,123.1,31.2z M238.8,74.6
				c0.2,0.1,0.3,0.1,0.5,0.2c2.1-2.2,4-4.6,4.4-7.9c0.5-4.1,0.2-8.1-0.5-12.1c-0.8-4.2-1.8-8.5-4.6-12c-0.3-0.3-0.4-0.8-0.9-0.7
				c-0.4,0.1-0.3,0.5-0.4,0.8c-0.2,0.4-0.3,0.8,0.3,1c0.5,0.2,0.7,0.6,0.9,1.1c1.6,3.2,3,6.4,3.5,9.9c0.7,5.5,0.6,10.9-2.2,16
				C239.2,71.9,239.1,73.3,238.8,74.6z M119.7,34.2c0.7,0.3,0.9,0,0.8-0.7c-0.1-1-0.3-2-1.4-2.5c-1.1-0.6-2.3-1.1-3.5-1.6
				c-1.5-0.6-3.1-1.1-4.5-2.1c-0.3-0.2-0.8-0.5-0.4-0.9c0.3-0.4,0.7,0,0.9,0.3c1.7,1.7,4.1,2,6.2,2.7c0.4,0.1,1.1,0.3,1.3-0.1
				c0.3-0.6-0.5-0.9-0.9-1.1c-1.8-1.1-3.7-2.1-5.6-3.1c-1.1-0.6-2-0.2-2.7,0.6c-0.7,0.9-0.6,1.9,0.3,2.7c1.1,1,2.3,1.9,3.9,2.1
				c0.8,0.1,1.4,0.4,1.2,1.4c-0.1,0.9-0.3,1.6-1.4,1.8c-1.3,0.2-2.5,0.3-3.8,0.3c-0.3,0-0.7-0.1-0.7,0.4c0,0.4,0.3,0.5,0.6,0.7
				c1,0.5,2,0,3-0.2C115.2,34.3,117.4,33.6,119.7,34.2z M154,234.4c-1.2,0.1-2.6-0.2-2.8,0.6c-0.3,0.9,1.2,1.1,1.9,1.6
				c0.4,0.3,0.9,0.4,1.2,0.7c3.8,3,7.5,2.4,11.1-0.3c0,0,0.1,0,0.1-0.1c0.4-0.3,1-0.5,1-1.2c-0.1-0.7-0.7-1-1.3-1.2
				c-0.5-0.1-1-0.2-1.4-0.1C160.3,234.7,157,235.2,154,234.4z M173.2,205.5c-0.7,1.9-2,3.5-2.4,5.5c-0.6,2.5-1.5,5-1.8,7.6
				c0,0.4-0.1,1.3,0.3,1.2c1.5-0.4,0.7,0.8,0.7,1c-0.1,3.1-0.2,6.3-0.3,9.4c0,0.5-0.2,1.2,0.4,1.6
				C170.7,230.4,173.6,206.6,173.2,205.5z M89.9,203.6c0.2,3.2,1.3,6.2,2.2,9.2c0.9,3.1,0.9,6.2,1.2,9.3c0.2,3.2,0.1,6.3,0.7,9.7
				c1-1.1,0.3-2.2,0.7-3.1c0.3,0.4,0.1,0.9,0.2,1.4c0.1,0.5-0.1,1.3,0.6,1.3c0.7,0,0.6-0.7,0.7-1.2c0-0.3,0-0.6,0-1
				c-0.3-6.8-1.2-13.6-3-20.2c-0.1-0.3-0.3-0.9-0.4-0.9c-1.5,0-1.5-1.3-1.9-2.2C90.4,205.2,90.2,204.4,89.9,203.6z M166.2,54.8
				c1.5,0.4,2.3-0.5,3-1.8c1-1.9,1.2-4.3,3.5-5.4c0.2-0.1,0.3-0.3,0.2-0.5c-0.1-0.3-0.4-0.3-0.7-0.3c-1.2,0.3-2.5,0.5-3.7,0.9
				c-0.8,0.2-1.1,1-1.1,1.8c-0.1,1,0.1,2,0.3,3c0.2,0.8-0.3,1.3-1,1.5c-0.8,0.2-1-0.4-1.1-1c-0.3-1-0.5-2.1-0.7-3.1
				c-0.3-1.3-1.4-1.2-2.4-1.4c-1.1-0.2-1.6,0.4-2,1.2c-0.5,0.8-0.5,1.6,0.2,2.4c1.3,1.6,2.4,3.7,5.1,2.7
				C165.7,54.7,165.9,54.8,166.2,54.8z M89.8,234.2C89.8,234.2,89.8,234.2,89.8,234.2c-1.7,0-3.3,0-5,0c-1.4,0-1.8,0.4-1.5,1.7
				c0.6,2.4,2.5,3.6,4.9,3.2c1.6-0.3,3.2-0.9,4.6-1.8c0.7-0.4,1.5-0.8,2.3-1.1c0.5-0.2,1.5,0,1.3-1c-0.2-0.9-0.9-1-1.8-1
				C93.1,234.2,91.5,234.2,89.8,234.2z M119.8,234.3c-0.9,0-1.7,0.1-2.5,0.5c-0.6,0.3-0.8,0.8-0.4,1.4c1.5,2.5,5.8,3.8,8.4,2.4
				c1.6-0.8,3.1-1.7,4.7-2.4c0.4-0.1,0.9-0.3,0.8-0.8c0-0.5-0.5-0.7-0.9-0.8c-0.4-0.1-0.8-0.3-1.2-0.2
				C125.7,234.9,122.7,235.1,119.8,234.3z M105.7,234.5c-1.5,0-3,0-4.5,0c-1,0-1.5,0.5-1.5,1.5c0,1.4,1.5,3.1,2.8,3.3
				c1.4,0.2,2.8,0.1,4.2-0.6c1.6-0.8,3.3-1.5,4.9-2.3c0.4-0.2,1-0.3,0.9-0.9c-0.1-0.6-0.6-0.6-1.1-0.7
				C109.6,234.3,107.6,234.5,105.7,234.5z M135.3,47.6c-0.1,0.7,0,1.4,0.9,1.2c1.7-0.4,3.4-0.4,5-0.6c0.9-0.1,1-0.6,0.8-1.3
				c-0.5-1.6-0.9-3.2-1.3-4.8c-0.5-1.9-2.3-2.5-3.8-1.3c-0.6,0.5-1,1.2-1.1,2C135.7,44.5,135.5,46,135.3,47.6z M101,62.5
				c-1.4-0.7-2.8-0.6-4.1,0.2c-0.7,0.5-1.5,1.5-2.4,0.7c-1-0.8,0.2-1.6,0.5-2.3c0.3-0.7,0.7-1.3,0.1-2.1c-0.6-0.7-1.4-1-2.3-0.9
				c-0.9,0.1-1.5,0.6-1.7,1.5c-0.1,0.4-0.1,0.7-0.1,1.1c0,0.7-0.2,1.2-0.9,1.3c-0.8,0.1-0.9-0.6-1-1.1c-0.1-0.6-0.2-1.2-0.4-1.7
				c-0.1-0.3-0.4-0.7-0.9-0.6c-0.4,0.1-0.4,0.5-0.4,0.8c0,0.7,0,1.5,0.1,2.2c0.4,2.4,1.1,2.8,3.4,2.1c0.5-0.2,0.8-0.2,1,0.5
				c0.6,1.6,1.5,2,2.9,1.2C96.8,64.3,98.7,63,101,62.5z M134.7,165.3c0.1-1.8,0.2-3.2,0.3-4.7c0.1-5.9,0.5-11.7,1.3-17.5
				c0.3-2.1,0.7-4.1,1-6.1c0.1-0.8,0.2-1.8-0.9-1.9c-0.9-0.1-0.9,0.9-1.1,1.5c-0.5,1.8-0.8,3.7-0.9,5.5c-0.5,6.9-0.3,13.9-0.3,20.8
				C134.1,163.6,134.1,164.3,134.7,165.3z M128.7,26.2c0.4-0.5,0.2-0.9,0.2-1.3c-0.1-3.9-0.3-7.9-0.4-11.8c-0.1-2.8-0.2-5.5-0.3-8.3
				c0-0.4,0.1-0.8-0.3-1c-0.4-0.1-0.7,0.3-0.8,0.6c-0.8,1.5-1.5,3-1.5,4.8c-0.1,3.8,0.9,7.4,1.6,11.1
				C127.5,22.1,127.9,24.1,128.7,26.2z M47.9,62.4c0.3-0.4,0.1-0.9,0.1-1.4c0.4-3.4,2.4-5,5.7-3.9c1.6,0.5,2.6,1.8,3,3.5
				c0.5,2,0.3,3.9-0.7,5.7c-0.2,0.3-0.5,0.8-0.1,1.2c0.2,0.2,0.5,0.2,0.7,0.1c1.3-0.4,3.3-3.2,3.1-4.6c-0.3-2.6-1.4-4.7-3.4-6.3
				c-2.7-2.3-7-1.6-8.9,1.4C46.8,59.3,46.9,61.4,47.9,62.4z M140.4,234.4c-1.1,0.1-3-0.3-4.8,0.2c-0.7,0.2-1.5,0.5-0.7,1.2
				c1.3,1.2,2.7,2.3,4.6,2.7c3.2,0.6,5.7-1,8.2-2.5c0.4-0.2,0.6-0.5,0.4-0.9c-0.2-0.4-0.6-0.4-0.9-0.5
				C145.2,234.5,143.2,234.4,140.4,234.4z M67.9,81c-0.5-1.3-1.5-2.1-2.5-2.9c-2.5-1.9-4.9-3.7-7.4-5.7c-1-0.7-2-1.4-2.2-2.8
				c-0.1-0.8-0.6-1-1.3-0.8c-0.8,0.3-0.4,0.9-0.1,1.4c0.3,0.7,1.1,1.1,1.2,2c-0.4,0.3-0.7,0.2-1.1,0.2c-0.7,0.1-1.6-0.2-1.7,0.9
				c0,1,0.7,1.2,1.5,1.2c0.5,0,1.3,0,1.4,0.5c0.3,1.5,1.6,1.4,2.6,1.6c1.4,0.2,2.7,0.7,4,1.1C64.5,78.7,66,80.1,67.9,81z
				 M144.4,35.6c0.7-0.5,1.3-0.3,1.9-0.4c1-0.1,1.9-0.5,2.3-1.5c0.2-0.4,0.3-0.9,0-1.2c-0.4-0.5-0.8,0-1.1,0.2
				c-2.1,1.6-4.3,1.1-6.5,0.2c-0.9-0.3-1.7-0.4-2.7-0.5c-0.6,0-0.9,0.2-0.9,0.9c0,2.3,2.7,4.3,4.8,3.4c0.6-0.3,1.2-0.5,1.8-0.1
				c1.1,0.5,2.3,0.5,3.4,0.5c2.2-0.1,3.4-1.9,2.7-4C148.3,35.9,146.9,36.6,144.4,35.6z M124.5,46.7c-0.5-1.6-0.3-3.4-0.7-5
				c-0.5-1.7-1.9-2-3.3-2c-1.4-0.1-1.5,1.1-1.7,2.1c-0.3,1.3-0.5,2.6-1,3.9c-0.3,0.9,0,1.1,0.8,1.3c1.6,0.3,3.1,0.6,4.7,0.9
				C124.3,48,124.7,47.7,124.5,46.7z M188.2,234.4C188.2,234.5,188.2,234.5,188.2,234.4c-1.2,0-2.4,0-3.7,0.1c-0.5,0-1-0.2-1.2,0.5
				c-0.2,0.6,0.2,1,0.7,1.3c1,0.6,2.1,1.3,3.1,1.9c1.6,0.9,3.2,1.4,5,1.1c1.1-0.2,2.4-1.8,2.1-2.8c-0.3-1.2-0.9-2.1-2.4-2.1
				C190.6,234.5,189.4,234.4,188.2,234.4z M75.6,66.2c0-0.4,0.1-0.6,0-0.8c-0.1-0.6-0.3-1.1-0.4-1.7c-1.4-4.7-4.3-8.5-7.3-12.3
				c-4.3-5.4-10-7.4-16.7-6.6c-0.7,0.1-1.3,0.1-1.7,0.8c0.2,0.1,0.3,0.1,0.4,0.1c0.2,0,0.3,0,0.5,0c5.1-0.9,9.6,0.2,13.6,3.6
				c4.7,4,8.1,8.9,10.2,14.7C74.3,64.8,74.5,65.7,75.6,66.2z M145.6,230.7c0.2,0.5-0.5,1.4,0.6,1.4c1,0,0.7-0.8,0.7-1.3
				c0.1-1,0.2-1.9,0.2-2.9c0-4.8,0.5-9.5,1.6-14.1c0.9-3.5,1.7-7,2.6-10.5c0.2-0.7,0.3-1.8-0.8-1.9c-1-0.1-1,0.8-1.2,1.6
				C147.5,212.1,146.7,221.4,145.6,230.7z M71.7,147.6c0.2-0.3,0.2-0.7,0.1-1c-1-3-2.1-5.9-3.6-8.7c-1.3-2.5-3.6-2.4-5.7-2.5
				c-1.7-0.1-2.5,1.8-3.8,2.8c0.5,0.5,0.9,0.3,1.3,0.3c2.3,0.2,4.9-0.3,6.2,2.6c0.1,0.3,0.6,0.6,0.9,0.6c2.2,0.4,2.9,2.1,3.6,3.9
				C70.8,146.3,70.8,147.2,71.7,147.6z M175.5,234.8C175.5,234.8,175.5,234.8,175.5,234.8c-1.4,0-2.9-0.1-4.3,0
				c-0.5,0-1.2,0.1-1.3,0.7c-0.1,0.5,0.6,0.5,0.9,0.7c0.6,0.4,1.2,0.9,1.8,1.3c1.2,0.9,2.5,1.8,4,2.2c3.1,0.8,4.4-1.6,4.3-3.8
				c0-0.8-0.5-1.1-1.3-1.1C178.3,234.8,176.9,234.8,175.5,234.8z M73.3,239c2.1-0.1,4.8-1.1,6.7-2.7c0.4-0.3,1-0.6,0.9-1.2
				c-0.1-0.6-0.7-0.8-1.3-0.8c-0.4-0.1-0.9-0.3-1.3-0.1c-1.9,0.6-3.8,0.3-5.7,0c-2-0.3-2.7,0.6-2.6,2.6
				C70.3,238.2,71.6,239.1,73.3,239z M197.3,160c1.3-0.4,2-1.6,2.9-2.3c1.4-1.1,1.3-1.7-0.3-2.5c-0.4-0.2-1.1-0.3-0.9-0.9
				c0.2-0.7,1-0.5,1.4-0.3c1.3,0.6,1.9-0.1,2.3-1.2c0.6-1.7,0.1-2.6-1.8-3c-0.8-0.2-1.2-0.1-1,0.9c0.4,1.8-1.9,4.6-3.7,4.8
				c-0.5,0.1-1,0.2-1.4-0.4c-0.8-1.1-1.7-0.6-2.5-0.1c-0.6,0.4-0.7,1.2-0.2,1.7c0.7,0.6,0.8-0.3,1.1-0.6c0.5-0.7,1-0.6,1.7-0.3
				c0.5,0.3,0.8,0.7,0.2,1.1c-1.7,0.9-0.9,2.1-0.7,3.4c1.3-0.3,1.8-1.4,2.6-2.2c0.3-0.3,0.4-0.8,0.9-0.6c0.3,0.1,0.6,0.3,0.7,0.6
				c0.2,0.6-0.4,0.6-0.7,0.9C197.7,159.1,197.2,159.2,197.3,160z M69.1,116.6c0-1.2,0-1.2-0.4-2.1c-2.4-6-7.3-9.8-12-13.6
				c-0.2-0.2-0.5-0.3-0.7-0.2c-0.3,0.2-0.2,0.6-0.1,0.9c0.4,1.8,1.7,2.8,3,3.8c3.4,2.8,6.5,5.9,8.8,9.7
				C68,115.7,68.3,116.3,69.1,116.6z M119.2,231c0.3-4.3-0.7-8.5-0.7-12.8c0.1-5-1.5-10.2,1-15.1c0-0.1,0.1-0.2,0.1-0.3
				c0-0.5,0.2-1.1-0.4-1.4c-0.9-0.4-1.8-0.4-2.6,0c-0.6,0.3-0.5,0.9-0.4,1.4c0.2,1,0.5,2.1,0.6,3.1c0.7,5.9,1.1,11.9,1.4,17.9
				C118.2,226.3,118.4,228.7,119.2,231z M172.2,59.3c-0.1-0.4,0.2-0.9-0.3-1.1c-0.6-0.2-0.6,0.4-0.8,0.7c-1.2,1.6-1.3,1.6-2.2-0.1
				c-0.8-1.5-2.1-2.1-3.2-1.6c-1.2,0.5-1.4,1.9-0.7,3.5c0.8,1.7,0.4,2.3-1.6,2.2c-0.4,0-0.7-0.2-1.1-0.2c-0.4,0-0.6,0.3-0.3,0.6
				c0.9,0.8,1.9,1.6,3.1,1.4c0.9-0.1,1.3-1.2,1.4-2.1c0.3-1.9,0.3-1.9,2-1C170.6,62.8,172.2,61.8,172.2,59.3z M204.1,201.4
				c1.2,0,2.1-0.7,2.3-2c0.2-1.2-0.1-2.3-1.5-2.8c-1.3-0.5-2.7-0.7-4.1-0.7c-0.7,0-1.2,0.3-1.7,0.7c-0.8,0.8-1,1.4,0.2,1.9
				c0.9,0.4,1.7,0.9,2.2,1.8C202.2,201.1,203,201.3,204.1,201.4z M211.7,71.2c2.4-0.1,4.6-0.6,6.2-2.7c0.3-0.4,0.9-0.8,0.6-1.4
				c-0.3-0.5-0.9-0.5-1.4-0.5c-0.3,0-0.6,0.1-0.9,0.1c-2.7,0.6-5.2,2-8,2c-1,0-0.8,0.7-0.3,1.1C209,71,210.3,71.3,211.7,71.2z
				 M222,60.1c-0.1-0.7-0.1-1.1-0.1-1.5c-0.3-1.5-0.4-3.1-1.1-4.5c-0.4-0.8-1.1-1.1-1.9-0.8c-0.6,0.2-0.7,0.7-0.5,1.2
				c0.9,3.1,1.7,6.3,0.6,9.5c-0.2,0.5-0.1,1.2,0.7,1.4c0.7,0.2,1.3-0.1,1.5-0.9C221.7,63,222,61.4,222,60.1z M55.1,64.1
				c0.9-1.6,0.9-3.2,0-4.7c-0.9-1.5-2.3-1.6-3.8-1.5c-1.6,0.1-2.9,2.1-2.5,4c0.2,1.2,1.6,1.9,3,1.6c1.2-0.2,1.5-1.2,1.8-2.2
				c0.1-0.5,0.2-1.1,1-1c0.6,0.1,0.7,0.7,0.7,1.3C55.2,62.4,55.2,63.3,55.1,64.1z M50.5,71.8c0.5,0,1.1,0,1.6,0
				c0.6,0,1.3-0.1,1.2-0.9c0-0.8,0-1.8-1.1-1.8c-2.6,0-5.1-0.6-7.6-0.7c-0.6,0-1.4,0-1.6,0.8c-0.1,0.7,0.6,1.1,1.1,1.4
				C46.2,71.5,48.3,71.8,50.5,71.8z M102.5,150.1c0,2.6,0.1,3.1,0.7,3.8c0.9,1.3,2,1.3,2.6-0.3c0.7-2.1,0.7-4.4-0.1-6.5
				c-0.3-0.7-0.9-1-1.6-1c-0.9,0-1.1,0.8-1.3,1.4C102.5,148.3,102.6,149.2,102.5,150.1z M132.6,24.2c0.9-2.9,1.8-5.9,3.2-8.7
				c0.9-2,1.8-4,2.7-6c0.2-0.4,0.5-0.9,0.1-1.2c-0.5-0.4-0.9,0.2-1.2,0.5c-1.3,1.2-2.2,2.6-2.9,4.2C133,16.6,132.6,20.4,132.6,24.2z
				 M142.5,43.9c0.1,1.2,0.5,2.2,1.2,3.1c1.3,1.6,2.4,1.9,4,1.2c1.7-0.8,2.7-2.5,2.3-4.1c-0.2-1.1-0.7-1.8-2-1.2
				c-0.8,0.3-1.6,0.5-2.4,0.7c-0.3,0.1-0.8-0.1-1,0.3c-0.2,0.5,0.3,0.9,0.6,1.2c1,0.8,2,0.6,2.9-0.2c0.3-0.2,0.5-0.5,0.8-0.8
				c0.2-0.1,0.4-0.1,0.6,0c0.2,0.2,0.1,0.4,0,0.5c-0.9,1.6-3.3,2-4.7,1C144,45.1,143.4,44.3,142.5,43.9z M230.1,21.5
				c0.2,0,0.3,0.1,0.5,0.1c0.9-2.9,3-4.8,5.8-6.5c-2.8-0.3-5.2-0.1-7.6-0.1c-0.5,0-1,0.2-0.8,0.7C228.7,17.7,229.4,19.6,230.1,21.5z
				 M140.2,8.3c-3,5.6-5.6,11.1-6.7,17.2c2.1-4.8,4.7-9.4,7-14.1C141,10.6,141,9.5,140.2,8.3z M203.7,60.3c2.3-1.2,2.4-1.2,2.5,0.9
				c0.1,1.1,0.5,1.7,1.4,2.1c0.9,0.4,1.8,0.2,2.5-0.5c0.7-0.7,1.2-1.6,0.8-2.7c-0.4-1.1-1.1-1.9-2.4-2
				C206.5,57.9,204.9,58.1,203.7,60.3z M135.1,30.9c1.3,0.6,2.2,0.8,3.1,0c0.6-0.5,1.4-0.7,2.2-1c2.3-0.8,4.5-1.6,6.4-3.1
				c1-0.7,1.4-1.6,0.9-2.8C143.6,26.5,139.5,28.7,135.1,30.9z M134.4,30.7c0.9-0.5,1.7-0.9,2.6-1.3c2.8-1.5,5.6-3.1,8.4-4.6
				c0.6-0.3,1.1-0.7,0.7-1.4c-0.3-0.6-0.9-0.1-1.2,0.1c-2.6,1-5,2.3-7.6,3.2C135.7,27.3,134.1,28.3,134.4,30.7z M120.9,192.6
				c0-2.9-0.3-5.5-0.8-8.1c-0.1-0.4-0.1-0.9-0.7-0.9c-0.8,0-2.3,1.9-2.1,2.7c0.3,1.4,0.4,2.7,0.4,4.1c0,0.4,0.2,1.2,0.4,1.1
				C119.4,191,119.8,192.1,120.9,192.6z M146.2,214.7c0.3-1.6,0.6-3.3,0.9-4.9c0.4-2.2,0.7-4.4,1-6.6c0.2-1.6-0.9-1.6-2-1.8
				c-1-0.1-1.2,0.4-1.1,1.2C145.6,206.6,145.8,210.6,146.2,214.7z M197.8,234.8c-0.4,0-0.7,0-1.1,0c-0.8,0-1,0.4-0.5,1
				c1,1.4,2.2,2.6,3.7,3.5c1,0.5,2,0.5,2.8-0.4c0.7-0.9,0.3-1.8-0.3-2.6c-0.5-0.7-1.2-1.1-2-1.2
				C199.5,234.9,198.7,234.9,197.8,234.8z M202,188.5c0-0.7,0-1.5-0.8-1.1c-0.8,0.4-1.7,0.9-1.8,1.9c-0.1,1.7-1,2.6-2.3,3.4
				c-1.1,0.7-1.2,1.7-0.3,2.7c0.9,1,1.7,0.5,2.3-0.2C200.8,193.1,201.4,190.7,202,188.5z M150.7,165.3c0,0.5,0,1.2,0,1.9
				c0,0.6,0.2,1.1,0.8,1.2c0.7,0.1,0.7-0.5,0.8-0.9c0.2-1.1,0.5-2.2,0.6-3.3c0.2-2.1,0.9-4.2,0.1-6.3c-0.1-0.4-0.2-0.9-0.7-0.9
				c-0.5,0-0.5,0.6-0.6,1C151.1,160.2,150.7,162.6,150.7,165.3z M67.2,234.1c-1.5-0.2-2.6,0.1-3.7,0.6c-0.9,0.3-1.3,0.9-1.2,1.8
				c0.1,0.9,0.7,1.6,1.7,1.7c1.5,0.2,2.9-0.2,3.9-1.4c0.6-0.6,1.7-1.2,1.3-2.2C68.8,233.6,67.7,234.3,67.2,234.1z M121.9,197.9
				c0-0.9-1.6-3.3-2.4-3.6c-0.5-0.2-0.7,0.1-0.8,0.5c-0.6,1.4-1.1,2.9-1.7,4.3c-0.2,0.5-0.2,1,0.4,1.4
				C119.1,201.3,121.8,199.8,121.9,197.9z M68.8,82.1c2.7,5.8,6.5,11.1,8.8,17.2C75.9,92.8,73.6,86.8,68.8,82.1z M64.4,80.3
				c-0.1-0.9-0.8-1.1-1.2-1.4c-2.2-1.5-4.7-1.6-7.2-1.5c-0.5,0-1.7,0.9-1.5-0.7c0,0-0.3-0.2-0.4-0.2c-0.8,0.2-1.5,0.6-2,1.3
				c-0.5,0.7,0.2,1.2,0.5,1.7c0.5,0.9,1.2,0.4,1.8,0.1c2.1-0.9,4.3-1.2,6.5-0.4C62,79.7,63.2,80,64.4,80.3z M52.3,99.7
				c0,2.6,0.6,3.9,3.2,6.7c0.3,0.3,0.6,1.1,1.2,0.8c0.6-0.4,0.5-1.1,0.2-1.7c-1.2-2.2-2.4-4.5-3.3-6.9c-0.1-0.3-0.3-0.6-0.7-0.6
				c-0.4,0.1-0.5,0.5-0.6,0.8C52.2,99,52.3,99.3,52.3,99.7z M153.9,197c-0.1-0.3-0.2-0.7-0.2-1c-0.1-0.7-0.1-1.5-1.1-1.6
				c-1-0.1-1.6,0.4-1.9,1.3c-0.2,0.7-0.4,1.3-0.6,2c-0.3,1-0.7,2.1,0.6,2.6c1.2,0.5,2.1-0.4,2.7-1.4
				C153.6,198.3,153.9,197.7,153.9,197z M217.2,38.9c1.6,0.9,3.3,1.9,5,2.8c0.4,0.2,0.8,0.4,1.2,0.1c0.4-0.3,0.2-0.8,0.1-1.2
				c-0.4-1.7-0.3-1.9,1.4-1.6c0.3,0,0.6,0.1,1,0.1c0.4,0,1.1,0.3,1.2-0.4c0.1-0.7-0.7-0.5-1.1-0.6C223,37.6,220.2,38.7,217.2,38.9z
				 M210.8,201.7c1.2,0.1,2-0.9,1.7-2.1c-0.4-1.4-2.7-3.2-4.1-3.2c-0.3,0-0.5,0-0.6,0.3C207,198.7,208.8,201.5,210.8,201.7z
				 M111,155.4c-0.9-0.2-1.6-0.4-2.3-0.5c-0.4-0.1-1.2-0.3-1.2,0c-0.2,1.8-1.4,0.9-2.3,1c-0.4,0.1-0.9,0.1-1,0.7
				c1.2,0.3,1.4,1.4,1.6,2.4c0.1,0.4,0.1,0.9,0.6,1.1c0.5,0.1,0.9-0.3,1.2-0.6C108.8,158.2,109.8,156.9,111,155.4z M109.4,45
				c0,1.9,1.2,2.9,3.2,2.9c2.3,0,4.2-2.7,3.9-5.9C114.8,44.6,113.1,47.3,109.4,45z M216.5,52.3c0.8-0.2,2.1,0.5,2.5-0.6
				c0.4-1.3-1-1.8-1.8-2.5c0,0-0.1-0.1-0.1-0.1c-0.7-0.4-1.5-0.8-2.2-0.1c-0.7,0.7-1.4,1.5-1.1,2.5c0.2,0.9,1.3,0.7,2.1,0.7
				C215.9,52.3,216.1,52.3,216.5,52.3z M230.8,33c0.6-0.2,1.8,0.4,2.1-0.3c0.3-0.6-0.6-1.4-1-2.2c0-0.1-0.1-0.2-0.1-0.3
				c-0.6-0.7-0.8-2-1.6-2c-0.9,0-0.9,1.4-1.2,2.2C227.9,33,227.9,33,230.8,33z M74.7,212.7c0.5,6.2,0.6,12.1,1.4,17.8
				C76.9,225.1,76.1,215.2,74.7,212.7z M29.4,39.7c-1.4-0.8-3-0.4-3.9-1.6c-0.7-0.9-1.5-0.9-2.3-0.2c-0.3,0.2-0.5,0.5-0.9,0.5
				c-0.4,0-0.9,0-0.9,0.5c0,0.4,0.4,0.7,0.8,0.9C24.5,41.2,26.8,40.4,29.4,39.7z M44.6,79.3c0-0.3,0-0.5,0-0.7
				c0-0.4,0.2-0.9-0.3-1.1c-0.5-0.2-0.8,0.3-1,0.6c-0.6,0.7-1.2,1.5-0.9,2.4c0.4,1,1.4,0.9,2.3,1.1c1.5,0.2,1.8-0.9,2-1.9
				c0.1-0.6,0.9-1.5,0-1.8c-0.9-0.3-1.3,0.9-1.9,1.4C44.8,79.3,44.8,79.3,44.6,79.3z M62.2,148.2c0,1.6,0.5,3.1,1.2,4.5
				c0.2,0.4,0.4,1,1,0.8c0.5-0.2,0.7-0.6,0.7-1.2c0.1-1.6-0.3-3.2-1-4.6c-0.3-0.6-0.7-1.3-1.4-1.1C61.9,146.9,62.3,147.7,62.2,148.2
				z M112.1,158.6c-0.9,0.7-1.1,1.4-0.9,2.3c0.4,2.3,0.7,4.6,1.1,6.9c0.1,0.4,0,1.1,0.6,1.1c0.7,0,0.7-0.7,0.7-1.2
				C113.3,164.7,112.9,161.8,112.1,158.6z M198.4,147.8c-0.8,0-1.2,0.3-1.2,1.1c0,0.4,0.1,1-0.4,1.1c-2,0.5-1.1,2-0.9,3
				c0.2,1.3,0.8,1.3,1.8,0.4C199.6,151.7,198.6,149.7,198.4,147.8z M170.6,68.3c-0.3-1-0.6-2.2-1-3.4c-0.2-0.5-0.5-0.9-1.1-0.7
				c-0.7,0.2-0.6,0.8-0.4,1.3c0.2,0.5,0.5,1,0.7,1.6c0.2,0.4,0.8,0.8,0,1.1c-0.6,0.2-0.8-0.3-0.9-0.8c-0.1-0.5-0.4-1-0.8-1.3
				c-0.2-0.1-0.4-0.4-0.7-0.2c-0.1,0.1-0.2,0.4-0.1,0.6c0.5,1.2,1.1,2.3,2.3,3C169.7,70,170.6,69.6,170.6,68.3z M209,99
				c0,0.1,0-0.3,0-0.7c-0.1-0.4-0.2-0.9-0.7-0.9c-0.5,0-0.6,0.4-0.7,0.8c-0.2,1.8-1.1,3.3-1.9,4.8c-0.2,0.3-0.4,0.7,0,1
				c0.3,0.3,0.7,0,1-0.2C208.2,102.8,209.2,101.4,209,99z M146,199.7c0-0.9-2.5-4.6-3-4.9c-0.7-0.3-1,0.1-1.2,0.7
				c-0.2,1.2,1.8,4.3,3,4.6C145.5,200.3,146,200.3,146,199.7z M112.2,194.6c-0.6,1.3-1.1,2.4-1.5,3.5c-0.2,0.6-0.1,1.1,0.4,1.6
				c0.5,0.4,1,0.5,1.6,0.2c1.2-0.6,1.4-1.6,1.1-2.7C113.5,196.3,113.1,195.4,112.2,194.6z M233.4,41c0.7-0.1,1.6-0.3,2.5-0.5
				c0.4-0.1,0.8-0.2,0.8-0.6c0.1-0.5-0.3-0.7-0.7-1c-1-0.8-2.2-0.5-3.2,0c-0.8,0.3-2.3,0.3-2.2,1.3C230.8,41,232.3,40.9,233.4,41z
				 M215.4,53.3c1.4,3,2.3,6.1,2.2,9.8C219.5,60.3,218.1,54.7,215.4,53.3z M173.3,61.1c0,0.5-0.2,1.1,0.4,1.2
				c0.6,0.2,0.7-0.5,0.9-0.9c0.5-1.3,0.9-2.6,1.3-3.9c0.1-0.4,0.4-1-0.2-1.3c-0.7-0.3-1,0.2-1.4,0.7
				C173.7,58.2,173.4,59.6,173.3,61.1z M110.2,150.9c-1.6-0.3-2.2,0.3-2.1,1.7c0.1,1.1,0.9,1.3,1.7,1.3c1,0.1,0.9-0.7,0.9-1.3
				c0-0.6,0-1.1,0.6-1.5c0.5-0.4,0.6-1.1,0.3-1.8c-0.1-0.1-0.4-0.3-0.5-0.2c-0.6,0.3-0.5,0.8-0.6,1.3
				C110.3,150.6,110.2,150.8,110.2,150.9z M111.8,44.9c1.9-0.1,2.6-1.6,3.8-2.6c0.5-0.4,0.7-0.8,0.1-1.3c-0.8-0.7-0.8,0.2-1.1,0.5
				c-1,1-1.8,2.3-3.5,1.9c-0.5-0.1-1-0.8-1.3,0c-0.3,0.8,0.4,1.1,1.1,1.3C111.2,44.8,111.5,44.9,111.8,44.9z M130,48.4
				c-0.8,0.1-1.6,0.4-1.4,1.3c0.2,1,0.7,2.1,1.8,2.2c1,0,1.6-1.1,1.6-2C132,48.7,130.9,48.6,130,48.4z M51.9,103.1
				c1.4,4.4,3.2,5.8,6.8,5.9c0.5,0,1,0.2,1.3-0.4c0.2-0.3-0.1-0.6-0.3-0.9c-0.4-0.5-0.8-0.4-1.3-0.1c-1.5,0.8-2.6-0.1-3.7-0.9
				C53.6,105.8,53,104.5,51.9,103.1z M68.6,146.1c-1-0.4-1-1.9-2.1-2.4c-0.8-0.4-1.3,0.8-2,1c-0.3,0.1-0.4,0.4-0.3,0.6
				c0.3,0.6,0.9,0.6,1.5,0.6c0.6,0,1.2-0.1,1.2,0.8c0,0.5,0.4,0.5,0.7,0.3C68,146.9,68.5,146.9,68.6,146.1z M156.8,163.5
				C156.8,163.5,156.8,163.5,156.8,163.5c0-0.3,0-0.6,0-1c-0.1-0.6-0.2-1.5-0.9-1.5c-0.7-0.1-0.6,0.8-0.8,1.3
				c-0.2,0.6-0.3,1.3-0.3,1.9c0,0.7,0.5,1.2,1.2,1.2c0.7,0,0.8-0.6,0.8-1.2C156.8,164,156.8,163.8,156.8,163.5z M209.1,103.4
				c-1,1.3-1.8,2.2-2.9,2.6c-1,0.3-2.1,0.4-3.1,0.6c-0.4,0.1-1,0-0.9,0.6c0.1,0.5,0.6,0.5,1,0.5C205.1,108.1,208.4,106,209.1,103.4z
				 M226.7,79.7c0.3,0.8,0,2.3,1.2,2.6c0.8,0.2,0.9-1.2,0.9-1.9c0-0.9-0.1-1.9-1.3-2C226.9,78.3,226.7,78.9,226.7,79.7z M31.8,79.9
				c-0.1-0.4,0.1-1.1-0.7-1.2c-0.8-0.1-1.7,1.2-1.7,2.3c0,0.5-0.1,1.1,0.6,1.2C30.9,82.5,31.8,81.2,31.8,79.9z M231.5,79.4
				c-0.1-0.8-0.3-1.7-1.2-1.8c-0.8-0.1-1.2,0.5-1.1,1.2c0.1,0.9,0.1,2.1,1.3,2.2C231.4,81.1,231.3,80.1,231.5,79.4z M26.5,69.9
				c-0.4,0-0.8,0-1,0.4c-0.2,0.4,0.1,0.7,0.4,0.9c0.7,0.7,1.7,1.1,2.6,1.5c0.2,0.1,0.5,0.1,0.7,0c0.3-0.2,0.2-0.5,0-0.7
				C28.6,70.8,27.9,69.9,26.5,69.9z M61.5,235.6c-0.2-0.4,0.1-1.2-0.8-1.2c-1.2,0.1-1.3,1.1-1.4,2c-0.1,0.7,0.2,1.3,1.1,1.2
				C61.4,237.4,61.3,236.4,61.5,235.6z M206.3,236.9c0-1-0.7-1.7-1.9-1.8c-0.7-0.1-0.5,0.5-0.4,0.9c0.2,1,0.1,2.2,1.6,2.3
				C206.2,238.3,206.4,237.9,206.3,236.9z M56.1,196.4c0-0.5-0.3-1-0.7-0.9c-1.1,0.3-1.6,1.4-1.8,2.4c-0.2,0.7,0.3,1.2,0.9,1
				C55.6,198.6,55.6,197.3,56.1,196.4z M149.7,216.2c-1.1,3.8-1.6,10.2-1,12.2C148.9,224.2,149.1,220.2,149.7,216.2z M148.6,194
				c-0.1-0.5,0.1-1.5-0.6-1.6c-0.7-0.1-0.7,0.9-0.9,1.4c0,0.1-0.1,0.2-0.1,0.3c-0.1,0.7-0.4,1.5,0.1,2.1c0.1,0.2,0.4,0.1,0.6,0
				c0.8-0.5,0.9-1.3,0.9-2.1C148.6,194.1,148.6,194.1,148.6,194z M134.4,41.4c1.1-1,2-1.7,2.8-2.5c0.4-0.3,0.5-0.8,0-1.2
				c-0.4-0.3-0.8-0.2-1.1,0.2C135.2,38.7,134.4,39.6,134.4,41.4z M49.3,79.6c-0.1-0.5,0.1-1.2-0.6-1c-1,0.2-1.3,1.2-1.5,2.1
				c-0.1,0.7,0.4,1.2,1.1,1C49.7,81.5,48.9,80.2,49.3,79.6z M117.1,197.2c0-0.4,0.2-0.8-0.2-0.9c-0.4-0.2-0.6,0.2-0.7,0.5
				c-0.5,0.8-0.9,1.5-1.4,2.3c-0.2,0.3-0.5,0.8,0.1,1.1c0.5,0.3,0.8-0.1,1.1-0.5C116.4,199,116.8,198.1,117.1,197.2z M224.3,80.6
				c0,0.7-0.1,1.5,0.8,1.5c0.9,0,1-0.8,1-1.5c0.1-0.8-0.3-1.7-1.1-1.7C224,78.9,224.7,80.1,224.3,80.6z M101.2,124.3
				c-0.5,1-0.7,1.8-0.5,2.7c0.1,0.7,0.7,1,1.4,0.9c0.8-0.2,0.5-0.8,0.3-1.3C102.2,125.9,102,125,101.2,124.3z M168.2,230.2
				c0.5-2.9,0.8-5.8,0.7-8.8C168.4,224.3,168.1,227.3,168.2,230.2z M100.7,119.5c-0.5-1-1.3-1.9-2.3-2.4c-1-0.5-1.5-1.6-2.5-2.1
				C96.8,117.1,98.7,118.4,100.7,119.5z M90.2,71.2c0.3,0,0.8-0.1,0.7-0.4c-0.4-1.1,0.1-1.9,0.4-2.9c0-0.2-0.1-0.5-0.2-0.5
				c-0.3-0.1-0.5,0.1-0.6,0.4c-0.2,0.8-0.7,1.4-1.3,2c-0.3,0.3-0.3,0.6-0.1,1C89.5,71.1,89.8,71.2,90.2,71.2z M230.9,36.8
				c-0.5,0.2-1.4-0.3-1.4,0.7c0,0.8,0.5,1,1.2,0.9c0.8-0.1,1.9-0.2,2-1C232.7,36.7,231.6,37,230.9,36.8z M116.1,194.3
				c-0.1-0.6,0.3-1.6-0.5-1.7c-0.7-0.1-0.8,0.9-0.8,1.5c0,0.7,0.1,1.7,0.8,1.7C116.4,195.8,115.9,194.8,116.1,194.3z M51.1,97.7
				c-0.6,1.6-0.5,3.2,0.6,4.9C51.6,100.7,51.8,99.1,51.1,97.7z M78,100.3c0.4,1.6,1,3,2.3,4.1C80,102.8,79.2,101.4,78,100.3z
				 M98.3,60.8c1.3,0.3,2.5,0.9,4.2,0.8C101.1,60.5,99.8,59.9,98.3,60.8z M146.7,177.8c-0.2-0.6-0.1-1.6-1-1.6
				c-0.5,0-0.5,0.8-0.5,1.3c0,0.6,0,1.3,0.8,1.3C146.7,178.8,146.7,178.2,146.7,177.8z M35.5,37.9c-1.3-1-2.6-0.6-3.9-0.1
				C32.8,38.4,34.1,38.2,35.5,37.9z M129.1,181.1c0.5-1.7,0.7-3.4,0.6-5.1C128.9,177.7,128.8,179.4,129.1,181.1z M37.2,77.9
				c0.1-0.8-0.2-1.2-0.7-1.1c-0.8,0.2-0.8,1-0.9,1.6c-0.1,0.4,0.1,0.8,0.5,0.7C36.9,79,37.1,78.4,37.2,77.9z M172.6,54.5
				c-1.3,0-2,0.6-2.6,1.5c-0.2,0.3-0.2,0.7,0.1,0.9c0.2,0.2,0.5,0,0.7-0.2C171.4,56.1,172.1,55.6,172.6,54.5z M33.3,80.9
				c0.8-0.1,0.9-0.7,1.1-1.4c0.1-0.4,0-0.9-0.4-0.9c-0.8,0-1.1,0.8-1.3,1.5C32.7,80.5,32.9,80.8,33.3,80.9z M222,79.8
				c0.3,0.4-0.3,1.3,0.7,1.3c0.6,0,0.7-0.6,0.7-1c0-0.7,0-1.7-0.8-1.7C221.8,78.3,222.4,79.3,222,79.8z M27.8,36.2
				c-0.5,0-0.8,0.2-0.7,0.7c0.1,0.6,0.5,1.1,1.1,1.2c0.5,0.1,0.8-0.3,0.7-0.8C28.9,36.6,28.4,36.3,27.8,36.2z M113.4,217.2
				c0.2-1.7-0.1-3.4-0.6-5C112.3,213.9,113.1,215.5,113.4,217.2z M27.8,79.2c-0.5,0.2-0.9,0.5-1,1.1c0,0.4,0.2,0.9,0.7,0.8
				c0.6-0.1,0.8-0.6,0.9-1.2C28.5,79.5,28.4,79.2,27.8,79.2z M78.1,191.7c-0.1-1.4-0.3-2.9-1.1-4.4C76.8,189,77.5,190.3,78.1,191.7z
				 M197.5,77.3c-1.7,0-2.6,0.8-3.8,1.9C195.3,78.9,196.3,78.3,197.5,77.3z M145.2,185.3c0.5-0.1,0.9-0.3,0.9-0.9c0-0.5-0.1-1-0.7-1
				c-0.6,0-0.8,0.4-0.8,0.9C144.6,184.8,144.6,185.2,145.2,185.3z M95.8,69.5c-1.7,0.1-1.8,0.2-1.9,1.7
				C94.8,70.9,95.4,70.4,95.8,69.5z M109.3,164.9c0.5-1,0.4-1.7-0.2-2.4c-0.2-0.3-0.6-0.1-0.6,0.2
				C108.2,163.5,108.5,164.2,109.3,164.9z M113.2,15.2c1,0.4,1.6,0.6,2.2,0.8c0.3,0.1,0.8,0.3,0.9-0.2c0.1-0.4-0.3-0.6-0.7-0.7
				C115,15,114.3,14.9,113.2,15.2z"/>
			<path fill="#7A7765" d="M81.1,56.9c0,0.3,0,0.6,0.1,1c-2.8-3.5-4.9-7.4-7.8-10.7l0.1-0.1c1.2,0.9,2.1,2.1,3.1,3.2
				c1.3,1.3,2,3.1,3.5,4.3C80.4,55.3,80.7,56.1,81.1,56.9z"/>
			<path fill="#7A7765" d="M164.3,150c-2.2,0.5-2.9,1.7-2.6,3.6c0.1,0.5-0.1,0.8-0.6,0.9c-0.1,0-0.1,0-0.2,0
				c-0.3,0.1-3.9-0.3-4.1-0.4c-0.2-0.1-0.3-0.3-0.3-0.5c0.3-1.1-0.3-2.1-0.7-3c-1.1-3.1,0.7-5.8,3.9-5.9c0.6,0,1.2,0,1.9,0
				c-0.4-1.2-0.3-2.2,0.8-3c0.4,0.8,0.1,1.7,0.4,2.4c0.4,0.8,0.5,1.8,1.8,1.6c0.4-0.1,0.6,0.2,0.7,0.5c0.1,0.4-0.1,0.6-0.4,0.8
				c-0.5,0.2-1.1,0.4-1.6,0.6c-0.4,0.1-1-0.4-1.2,0.4c-0.2,0.7,0.3,1.1,0.8,1.5C163.2,149.5,163.7,149.7,164.3,150z M161.3,149.5
				c0.1-0.8,0-1.6-0.4-2.3c-0.3-0.6-0.6-1.2-1.3-1.3c-0.7-0.1-1.1,0.5-1.5,1c-1.2,1.7-1,4.5,0.2,6.1c0.6,0.8,1.3,0.8,2,0.1
				C161.2,152,161.2,150.8,161.3,149.5z"/>
			<path fill="#7A7765" d="M169.3,139.9c1.3,7.4,2.5,14.9,3.8,22.3c-0.1,0-0.3,0-0.4,0.1C171,154.9,169.3,147.6,169.3,139.9z"/>
			<path fill="#7A7765" d="M180.7,173.6c0.1,5,0.2,9.9-0.9,14.8c-0.1,0.4-0.2,0.8-0.4,1.2c-0.2,0.3-0.5,0.4-0.8,0.3
				c-0.3-0.1-0.2-0.5-0.1-0.7C180.4,184.2,180.1,178.8,180.7,173.6z"/>
			<path fill="#7A7765" d="M178.7,172.6c0,4.8,0.8,9.6-0.5,14.3C178.5,182.2,178.1,177.4,178.7,172.6z"/>
			<path fill="#7A7765" d="M168.6,181.4c-0.8-2.8-2.1-5.3-3.3-7.9c-1.2-2.5-2.5-5-3.3-7.7C164.7,170.8,167.3,175.8,168.6,181.4z"/>
			<path fill="#7A7765" d="M173.1,138.8c0,3.6,0,7.2,0,10.8c-0.3-3.6-0.7-7.2-0.6-10.8C172.7,138.8,172.9,138.8,173.1,138.8z"/>
			<path fill="#7A7765" d="M141.7,186.6c0.3-3.6,0.5-7.1,0.8-11C143.1,177.2,142.6,184.2,141.7,186.6z"/>
			<path fill="#7A7765" d="M175.9,145.7c-0.2-3.6-0.4-7.1,0.9-10.6C176.5,138.7,176.2,142.2,175.9,145.7z"/>
			<path fill="#7A7765" d="M170.1,190.7c-0.1-2.1-0.3-4.2,0.1-6.4C171.2,185.6,171.1,189.6,170.1,190.7z"/>
			<path fill="#7A7765" d="M178.4,145.7c0.3-3.3,0.3-6.6,2-9.5C179.8,139.3,179.1,142.5,178.4,145.7z"/>
			<path fill="#7A7765" d="M140.4,176.5c0,2.6,0,5.2,0,7.8C139.4,181.7,139.9,179.1,140.4,176.5z"/>
			<path fill="#7A7765" d="M137.1,157.8c-0.2-2.4-0.1-4.8,0.9-7.1C137.9,153.1,137.7,155.5,137.1,157.8z"/>
			<path fill="#7A7765" d="M182.4,146c0.7-2.9,1.6-5.8,3.3-8.3C184.6,140.5,183.5,143.3,182.4,146z"/>
			<path fill="#7A7765" d="M165.6,179.1c-1.6-1.7-2.9-3.7-4-5.8C163.1,175.1,164.9,176.7,165.6,179.1z"/>
			<path fill="#7A7765" d="M168.8,184c0.6,2.1,0.5,4.2,0.4,6.3c-0.1,0-0.3,0-0.4,0C168.8,188.2,168.8,186.1,168.8,184z"/>
			<path fill="#7A7765" d="M171.9,181.6c0.3,2.9,0.3,5.7-0.2,8.6C171.4,187.3,172.3,184.4,171.9,181.6z"/>
			<path fill="#7A7765" d="M148.7,129.5c-1.2,2.2-2.4,4.4-3.5,6.6C145.6,133.6,147,131.5,148.7,129.5z"/>
			<path fill="#7A7765" d="M176.8,180.1c-0.1-1.8-0.2-3.5-0.3-5.3c0.1,0,0.3,0,0.4,0c0.2,1.8,0.4,3.5,0.3,5.3
				C177.1,180.1,176.9,180.1,176.8,180.1z"/>
			<path fill="#7A7765" d="M153.5,147.6c-0.2-0.9-0.5-1.8,0.4-2.2c0.4-0.2,1.1,0.2,1.2,0.6C155.3,147.3,153.8,146.8,153.5,147.6z"/>
			<path fill="#7A7765" d="M140.1,150.9c0.2,1.3-0.2,2.6-0.7,3.8C139.2,153.3,139.4,152.1,140.1,150.9z"/>
			<path fill="#7A7765" d="M165.8,187.8c0.7,1.1,1,1.8,1,2.6c0,0.3-0.2,0.5-0.5,0.5c-0.3,0-0.5-0.2-0.5-0.5
				C165.8,189.7,165.8,189,165.8,187.8z"/>
			<path fill="#7A7765" d="M164,191.5c-0.1-0.9-0.3-1.9-0.4-2.8C164.4,189.5,165,190.4,164,191.5z"/>
			<path fill="#7A7765" d="M147.6,152.2c-0.2-1.5,0.4-2.8,1-4C148.7,149.6,148.1,150.8,147.6,152.2z"/>
			<path fill="#7A7765" d="M82.8,167.6c-0.9-9.4-1.9-18.3-4.5-27.1C80.1,141.7,83.6,162.2,82.8,167.6z"/>
			<path fill="#7A7765" d="M84.5,123c2,3.4,2.3,7.3,3,11.1C86.7,130.4,85.2,126.8,84.5,123z"/>
			<path fill="#7A7765" d="M87.7,173.8c-0.3-4.8,0.4-9.5,1.1-14.2C88.7,164.3,87.7,169,87.7,173.8z"/>
			<path fill="#7A7765" d="M93.9,138.1c-0.1,2.6-0.4,5.3-0.8,7.9c-0.1,0-0.3,0-0.4,0c0.3-2.6,0.5-5.2,0.8-7.9
				C93.7,138.1,93.8,138.1,93.9,138.1z"/>
			<path fill="#7A7765" d="M93.7,135.2c0-2.1,0-4.2,0-6.2C94.2,131,94,133.1,93.7,135.2z"/>
			<path fill="#7A7765" d="M106.1,177.4c-0.6,1.4-1.5,2.4-2.6,3.3C104.2,179.5,104.9,178.3,106.1,177.4z"/>
			<path fill="#7A7765" d="M83.9,152.3c0,1.8,0,3.6,0,5.5c-0.1,0-0.1,0-0.2,0c0-1.8,0-3.7,0-5.5C83.8,152.2,83.9,152.2,83.9,152.3z"
				/>
			<path fill="#7A7765" d="M113.9,76.3c6.4-0.3,12.7,5.9,13.8,13c0.9,5.9-1.9,13.5-7.2,15c6.3-4,7.6-9.8,6.2-16.2
				C125.1,81.5,120.7,77.5,113.9,76.3z"/>
			<path fill="#7A7765" d="M118.3,105.3c-5.4,3-14.6-0.9-15.2-7.7c-0.2-2.4,0.2-4.6,1.6-6.7c0.7-1.1,2-1.3,3.2-1.6
				c-0.6,0.5-1.3,0.9-1.9,1.4c-3.1,2.3-3.1,8.3-0.3,11c3.3,3.3,7.1,4.7,11.8,3.6C117.7,105.3,118,105.1,118.3,105.3z"/>
			<path fill="#7A7765" d="M77,85.3c-1.4-4-3.4-7.7-5-11.6C74.1,77.4,76.6,80.8,77,85.3z"/>
			<path fill="#7A7765" d="M124.3,52.5c-6.4-1.4-6.4-1.4-9.3,0.7C115.5,50.5,121.5,49.7,124.3,52.5z"/>
			<path fill="#7A7765" d="M84.5,82.9c0,2.6,0,5.1,0,7.6c-0.3-2.4-0.6-5-0.5-7.5C84.2,82.9,84.4,82.9,84.5,82.9z"/>
			<path fill="#7A7765" d="M90.6,82.3c0,0.4-1.6,2.4-1.9,2.4c-0.3,0-0.6,0-0.8-0.4c-0.1-0.5,1.5-2.3,2.1-2.4
				C90.3,81.9,90.5,82.1,90.6,82.3z"/>
			<path fill="#7A7765" d="M98.2,79.4c-0.7,0.6-1.4,1.3-2.1,1.9c-0.3,0.2-0.7,0.9-1.1,0.2c-0.3-0.5-0.1-1,0.5-1.3
				c0.8-0.3,1.6-0.7,2.4-1C98,79.2,98.1,79.3,98.2,79.4z"/>
			<path fill="#7A7765" d="M88.4,96.3c-0.5-2.8-0.5-5.2,0-6.7C88.4,91.7,88.4,93.8,88.4,96.3z"/>
			<path fill="#7A7765" d="M119.4,150c2.7,11.2,2.7,22.8,3.6,34.2C121.9,172.8,121.4,161.3,119.4,150z"/>
			<path fill="#7A7765" d="M120.3,142.5c-1-2.6-1.9-5.2-2.9-7.8C118.9,137.1,120.2,139.6,120.3,142.5z"/>
			<path fill="#7A7765" d="M47.4,138.7c1.7,1,3.3,3.2,4.4,6.3c-0.7-1-1.4-1.9-2.2-2.9C48.8,141.2,48,140.2,47.4,138.7z"/>
			<path fill="#7A7765" d="M38.8,126.8c-1.9-0.2-3.8-0.5-5.7-0.6C35.1,125.2,37,126,38.8,126.8z"/>
			<path fill="#7A7765" d="M56.7,166.3c-0.7-2.9-0.6-5.8-1.1-8.7C56.5,160.4,56.5,163.3,56.7,166.3z"/>
			<path fill="#7A7765" d="M52.9,147.8c1.2,2.4,2,4.9,2.5,7.5c-0.1,0-0.3,0.1-0.4,0.1C54.4,152.9,53.7,150.3,52.9,147.8z"/>
			<path fill="#7A7765" d="M37.4,133.3c-1.3,0.4-2.8,0.3-3.9,1.4C34.6,133.2,35.1,133,37.4,133.3z"/>
			<path fill="#7A7765" d="M62.3,166.8c0-2,0-4,0-6c0,0,0.1,0,0.1,0c0,2,0,4,0,6C62.4,166.8,62.3,166.8,62.3,166.8z"/>
			<path fill="#7A7765" d="M43.3,135.9c1.4-0.1,2.2,0.6,2.7,1.8C45.1,137.1,44.2,136.5,43.3,135.9z"/>
			<path fill="#7A7765" d="M171.1,89.5c-1-1.2-1.1-2.3-1.2-3.8C170.8,86.9,171.4,87.9,171.1,89.5z"/>
			<path fill="#7A7765" d="M90.1,214.4c0.7,1.9,1.1,3.9,0.7,6C90.6,218.4,90.3,216.4,90.1,214.4z"/>
			<path fill="#7A7765" d="M212.5,41.3c-2.1-0.3-3.8-0.5-5.9-0.7C208.4,39.8,209.8,40,212.5,41.3z"/>
			<path fill="#7A7765" d="M149.6,105.9c-3.8,1.2-6.9-0.7-9.8-2.8c-3.8-2.7-5.7-8.2-4.7-13.1C135.2,99.7,139.7,105.3,149.6,105.9z"
				/>
			<path fill="#7A7765" d="M108.1,37.7c2.2,0.2,3.9,0.3,5.5-0.7c0.5-0.3,0.8,0.1,1,0.5c0.3,0.4,0,0.7-0.3,0.9
				C112.7,39.5,110.1,39.3,108.1,37.7z"/>
			<path fill="#7A7765" d="M138.4,65.8c2.2,1.2,4.7,1.7,7.1,2.1c0.3,0,0.7,0,0.7,0.5c0,0.4-0.3,0.5-0.7,0.5
				C142.9,68.5,140.4,67.7,138.4,65.8z"/>
			<path fill="#7A7765" d="M104.1,222.4c-0.9-1.6-0.5-3.3-0.5-5C104.3,219,104.2,220.7,104.1,222.4z"/>
			<path fill="#7A7765" d="M103,214.3c-0.3-1.5-0.7-3-1-4.6C102.8,211.1,103.1,212.6,103,214.3z"/>
			<path fill="#7A7765" d="M17.6,57.6c1.5,1.7,1.4,4.3-0.1,5.2C18.8,61,17.8,59.3,17.6,57.6z"/>
			<path fill="#7A7765" d="M61.5,89.3c-2.2-2-4-4.3-4.8-7.2C58.3,84.5,59.9,86.9,61.5,89.3z"/>
			<path fill="#7A7765" d="M62.1,89.8c1.9,2.2,3.7,4.3,5.6,6.5C65.4,94.5,63.7,92.2,62.1,89.8z"/>
			<path fill="#7A7765" d="M202.8,70.1c0,1-0.8,1.3-1.4,1.6c-2.1,1.3-4.3,2.6-6.4,3.9c-2.3,1.5-4.2,3.4-5.5,5.9
				c-0.5,0.9-0.9,1.8-1.8,2.4c0.8-2.5,2-4.8,4-6.6c1.5-1.3,3.2-2.4,4.9-3.3C198.7,72.8,200.7,71.4,202.8,70.1z"/>
			<path fill="#7A7765" d="M187.4,71.7c-1.6,4.1-2.8,8.4-4.2,12.6C183.9,79.8,184.9,75.5,187.4,71.7z"/>
			<path fill="#7A7765" d="M100.8,158.6c-0.5-0.2-0.6-0.5-0.4-0.9c0.2-0.6,0.3-1.4,1.1-1.4c0.3,0,0.5,0.6,0.4,1
				C101.7,157.9,101.5,158.5,100.8,158.6z"/>
			<path fill="#7A7765" d="M72.6,166.4c-0.2-1.7-0.3-3.5-0.5-5.2C72.6,162.9,73,164.6,72.6,166.4z"/>
			<path fill="#7A7765" d="M92.6,210.2c1.3,4.4,1.8,8.8,1.8,13.3C93.8,219.1,93.2,214.6,92.6,210.2z"/>
		</g>
	</g>
</g>
</svg>
